<?xml version="1.0" encoding="utf-8"?>
<!-- Generator: Adobe Illustrator 27.8.0, SVG Export Plug-In . SVG Version: 6.00 Build 0)  -->
<svg version="1.1" id="Layer_1" xmlns="http://www.w3.org/2000/svg" xmlns:xlink="http://www.w3.org/1999/xlink" x="0px" y="0px"
	 viewBox="0 0 249 112" style="enable-background:new 0 0 249 112;" xml:space="preserve">
<style type="text/css">
	.st0{fill-rule:evenodd;clip-rule:evenodd;fill:#8E9AEF;fill-opacity:0.17;}
	.st1{fill:#FFFFFF;}
	.st2{fill:#E4E6F5;}
	.st3{fill-rule:evenodd;clip-rule:evenodd;fill:#1D2587;}
	.st4{fill-rule:evenodd;clip-rule:evenodd;fill:#FFFFFF;}
	.st5{fill-rule:evenodd;clip-rule:evenodd;fill:#8E9AEF;}
	.st6{fill:#8E9AEF;}
</style>
<path class="st0" d="M46.6,90h84c3.9,0,7.1-3.2,7.1-7.1c0-3.9-3.2-7.1-7.1-7.1c0,0-6.1-3.2-6.1-7.1c0-3.9,4-7.1,8.9-7.1h10.3
	c3.9,0,7.1-3.2,7.1-7.1s-3.2-7.1-7.1-7.1h-22.3c3.9,0,7.1-3.2,7.1-7.1c0-3.9-3.2-7.1-7.1-7.1h40.5c3.9,0,7.1-3.2,7.1-7.1
	s-3.2-7.1-7.1-7.1H62.7c-3.9,0-7.1,3.2-7.1,7.1s3.2,7.1,7.1,7.1H22.3c-3.9,0-7.1,3.2-7.1,7.1c0,3.9,3.2,7.1,7.1,7.1h25.3
	c3.9,0,7.1,3.2,7.1,7.1s-3.2,7.1-7.1,7.1H7.1c-3.9,0-7.1,3.2-7.1,7.1c0,3.9,3.2,7.1,7.1,7.1h39.5c-3.9,0-7.1,3.2-7.1,7.1
	C39.5,86.9,42.6,90,46.6,90z M154.8,54.5c0,3.9,3.2,7.1,7.1,7.1s7.1-3.2,7.1-7.1s-3.2-7.1-7.1-7.1S154.8,50.6,154.8,54.5z"/>
<path class="st0" d="M126.6,93h84c3.9,0,7.1-3.2,7.1-7.1c0-3.9-3.2-7.1-7.1-7.1c0,0-6.1-3.2-6.1-7.1c0-3.9,4-7.1,8.9-7.1h10.3
	c3.9,0,7.1-3.2,7.1-7.1s-3.2-7.1-7.1-7.1h-22.3c3.9,0,7.1-3.2,7.1-7.1c0-3.9-3.2-7.1-7.1-7.1h40.5c3.9,0,7.1-3.2,7.1-7.1
	s-3.2-7.1-7.1-7.1h-99.2c-3.9,0-7.1,3.2-7.1,7.1s3.2,7.1,7.1,7.1h-40.5c-3.9,0-7.1,3.2-7.1,7.1c0,3.9,3.2,7.1,7.1,7.1h25.3
	c3.9,0,7.1,3.2,7.1,7.1s-3.2,7.1-7.1,7.1H87.1c-3.9,0-7.1,3.2-7.1,7.1c0,3.9,3.2,7.1,7.1,7.1h39.5c-3.9,0-7.1,3.2-7.1,7.1
	C119.5,89.9,122.6,93,126.6,93z M234.8,57.5c0,3.9,3.2,7.1,7.1,7.1s7.1-3.2,7.1-7.1s-3.2-7.1-7.1-7.1S234.8,53.6,234.8,57.5z"/>
<path class="st1" d="M60.1,23.3l113.3-20c3.3-0.6,6.4,1.6,7,4.9l12.5,70.7c0.6,3.3-1.6,6.4-4.9,7l-113.3,20c-3.3,0.6-6.4-1.6-7-4.9
	L55.3,30.3C54.7,27,56.9,23.9,60.1,23.3z"/>
<path class="st2" d="M70.9,30.4l94.8-16.7c3.3-0.6,6.4,1.6,7,4.9l9.4,53.5c0.6,3.3-1.6,6.4-4.9,7L82.4,95.7c-3.3,0.6-6.4-1.6-7-4.9
	l-9.4-53.5C65.5,34.1,67.7,31,70.9,30.4z"/>
<path class="st3" d="M60.3,25.5c-2.2,0.4-3.6,2.5-3.2,4.6l12.6,71.3c0.4,2.2,2.5,3.6,4.6,3.2l8-1.4c1.1-0.2,2.1,0.5,2.3,1.6
	c0.2,1.1-0.5,2.1-1.6,2.3l-8,1.4c-4.4,0.8-8.5-2.1-9.3-6.5L53.1,30.9c-0.8-4.4,2.1-8.5,6.5-9.3l113.5-20c4.4-0.8,8.5,2.1,9.3,6.5
	l2.5,14.2c0.2,1.1-0.5,2.1-1.6,2.3c-1.1,0.2-2.1-0.5-2.3-1.6l-2.5-14.2c-0.4-2.2-2.5-3.6-4.6-3.2L60.3,25.5z"/>
<path class="st4" d="M98,46c0-5.5,4.5-10,10-10h104c5.5,0,10,4.5,10,10v14c-7.7,0-14,6.3-14,14s6.3,14,14,14v14c0,5.5-4.5,10-10,10
	H108c-5.5,0-10-4.5-10-10V88c7.7,0,14-6.3,14-14s-6.3-14-14-14V46z"/>
<path class="st5" d="M108,38c-4.4,0-8,3.6-8,8v12.1c7.9,1,14,7.7,14,15.9s-6.1,14.9-14,15.9V102c0,4.4,3.6,8,8,8h104
	c4.4,0,8-3.6,8-8V89.9c-7.9-1-14-7.7-14-15.9s6.1-14.9,14-15.9V46c0-4.4-3.6-8-8-8H108z M222,46c0-5.5-4.5-10-10-10H108
	c-5.5,0-10,4.5-10,10v14c7.7,0,14,6.3,14,14s-6.3,14-14,14v14c0,5.5,4.5,10,10,10h104c5.5,0,10-4.5,10-10V88c-7.7,0-14-6.3-14-14
	s6.3-14,14-14V46z"/>
<path class="st6" d="M148.9,89L168,61h3.9l-19.1,28H148.9z M151.2,76.1c-1.3,0-2.5-0.3-3.5-1s-1.8-1.5-2.4-2.7
	c-0.6-1.1-0.8-2.5-0.8-4c0-1.5,0.3-2.9,0.8-4c0.6-1.1,1.3-2,2.4-2.7s2.2-1,3.5-1c1.4,0,2.5,0.3,3.5,1c1,0.6,1.8,1.5,2.4,2.7
	c0.6,1.1,0.8,2.5,0.8,4c0,1.5-0.3,2.9-0.8,4c-0.6,1.1-1.3,2-2.4,2.7C153.7,75.8,152.6,76.1,151.2,76.1z M151.2,73.3
	c1.1,0,1.9-0.4,2.5-1.2c0.6-0.9,0.9-2.1,0.9-3.6c0-1.6-0.3-2.8-0.9-3.6c-0.6-0.9-1.4-1.3-2.5-1.3s-1.9,0.4-2.6,1.3
	c-0.6,0.9-0.9,2.1-0.9,3.6c0,1.5,0.3,2.7,0.9,3.6C149.3,72.9,150.2,73.3,151.2,73.3z M169.6,89.3c-1.3,0-2.5-0.3-3.5-1
	s-1.8-1.5-2.4-2.7c-0.6-1.1-0.8-2.5-0.8-4c0-1.5,0.3-2.9,0.8-4c0.6-1.1,1.3-2,2.4-2.7s2.2-1,3.5-1c1.4,0,2.5,0.3,3.5,1
	c1,0.6,1.8,1.5,2.4,2.7c0.6,1.1,0.8,2.5,0.8,4c0,1.5-0.3,2.9-0.8,4c-0.6,1.1-1.3,2-2.4,2.7C172.1,89,170.9,89.3,169.6,89.3z
	 M169.6,86.5c1.1,0,1.9-0.4,2.5-1.3c0.6-0.9,0.9-2.1,0.9-3.6c0-1.5-0.3-2.7-0.9-3.6c-0.6-0.9-1.5-1.3-2.5-1.3c-1,0-1.9,0.4-2.5,1.3
	c-0.6,0.8-0.9,2-0.9,3.6c0,1.6,0.3,2.8,0.9,3.6C167.7,86.1,168.5,86.5,169.6,86.5z"/>
</svg>
