<?xml version="1.0" encoding="utf-8"?>
<!-- Generator: Adobe Illustrator 27.8.0, SVG Export Plug-In . SVG Version: 6.00 Build 0)  -->
<svg version="1.1" id="Layer_1" xmlns="http://www.w3.org/2000/svg" xmlns:xlink="http://www.w3.org/1999/xlink" x="0px" y="0px"
	 viewBox="0 0 266 175" style="enable-background:new 0 0 266 175;" xml:space="preserve">
<style type="text/css">
	.st0{fill:#F7F8FC;filter:url(#Adobe_OpacityMaskFilter);}
	.st1{mask:url(#mask0_405_1043_00000181773047920651048190000016988329354657806494_);}
	.st2{fill:#8E9AEF;}
	.st3{fill-rule:evenodd;clip-rule:evenodd;fill:#163F79;}
	.st4{fill-rule:evenodd;clip-rule:evenodd;fill:#CFD5FF;}
	.st5{fill:#163F79;}
	.st6{fill:#6D7AD2;}
	.st7{fill:#F2F2F2;}
	.st8{fill:#1E2482;}
	.st9{fill:#FFFFFF;}
</style>
<defs>
	<filter id="Adobe_OpacityMaskFilter" filterUnits="userSpaceOnUse" x="-31.4" y="-83" width="369.3" height="293">
		<feColorMatrix  type="matrix" values="1 0 0 0 0  0 1 0 0 0  0 0 1 0 0  0 0 0 1 0"/>
	</filter>
</defs>
<mask maskUnits="userSpaceOnUse" x="-31.4" y="-83" width="369.3" height="293" id="mask0_405_1043_00000181773047920651048190000016988329354657806494_">
	<rect y="0" class="st0" width="266" height="175"/>
</mask>
<g class="st1">
	<path class="st2" d="M251.5,7.5c0-1.3-1.1-2.5-2.5-2.5c-1.3,0-2.5,1.1-2.5,2.5c0,0.5,0.6,0.8,1.3,0.9v2.4h2V8.4
		C250.8,8.2,251.5,7.9,251.5,7.5z"/>
	<path class="st2" d="M202.1,27.8c1-0.8,1.2-2.4,0.3-3.4c-0.8-1-2.4-1.2-3.4-0.3c-0.4,0.3-0.2,0.9,0.2,1.6l-1.8,1.4l1.3,1.6l1.8-1.5
		C201.1,27.8,201.7,28.1,202.1,27.8z"/>
	<path class="st3" d="M245.7,24.8c0-1.2,1-2.3,2.3-2.3c1.3,0,2.4,1,2.3,2.3c0,1.2-1,2.3-2.3,2.3C246.7,27,245.7,26,245.7,24.8z
		 M246.5,24.8c0,0.8,0.6,1.4,1.4,1.4s1.4-0.6,1.4-1.4s-0.6-1.4-1.4-1.4S246.5,23.9,246.5,24.8z"/>
	<path class="st3" d="M205.6,5.2c0-1.2,1-2.3,2.3-2.3c1.3,0,2.4,1,2.3,2.3c0,1.2-1,2.3-2.3,2.3C206.6,7.5,205.6,6.4,205.6,5.2z
		 M206.4,5.2c0,0.8,0.6,1.4,1.4,1.4s1.4-0.6,1.4-1.4s-0.6-1.4-1.4-1.4S206.4,4.4,206.4,5.2z"/>
	<path class="st3" d="M238.4,36.6c0-1.2,1-2.3,2.3-2.3s2.3,1,2.3,2.3c0,1.2-1,2.3-2.3,2.3S238.4,37.9,238.4,36.6z M239.2,36.5
		c0,0.8,0.6,1.4,1.4,1.4s1.4-0.6,1.4-1.4c0-0.8-0.6-1.4-1.4-1.4S239.2,35.7,239.2,36.5z"/>
	<path class="st4" d="M-1.1-83c0.3,0.1,0.4,0.3,0.4,0.6l0,0l-0.5-0.1l-0.5-0.1C-1.6-82.9-1.4-83-1.1-83z M-1.2-82.5l-0.5-0.1l0,0
		l0,0l0,0l0,0l0,0l0,0c0,0,0,0.1,0,0.1c0,0.1,0,0.3-0.1,0.5c-0.1,0.4-0.2,1-0.3,1.8c0,0.3,0.2,0.5,0.4,0.6c0.3,0,0.5-0.2,0.6-0.4
		c0.1-0.8,0.2-1.4,0.3-1.8c0-0.2,0.1-0.4,0.1-0.5c0-0.1,0-0.1,0-0.1l0,0l0,0l0,0l0,0 M-1.9-75.7c0.3,0,0.5,0.2,0.5,0.5
		c-0.1,1.5-0.1,3.1-0.1,5c0,0.3-0.2,0.5-0.5,0.5c-0.3,0-0.5-0.2-0.5-0.5c0-1.9,0-3.5,0.1-5C-2.4-75.5-2.2-75.7-1.9-75.7z M-1.9-65.7
		c0.3,0,0.5,0.2,0.5,0.5c0.1,1.6,0.2,3.2,0.4,4.9c0,0.3-0.2,0.5-0.4,0.6C-1.7-59.8-2-60-2-60.2c-0.2-1.7-0.3-3.4-0.4-5
		C-2.4-65.5-2.2-65.7-1.9-65.7z M-0.9-55.8c0.3,0,0.5,0.1,0.6,0.4c0.2,1.6,0.5,3.2,0.9,4.9C0.6-50.3,0.4-50,0.1-50
		c-0.3,0.1-0.5-0.1-0.6-0.4c-0.3-1.7-0.6-3.3-0.9-4.9C-1.4-55.5-1.2-55.8-0.9-55.8z M1-46.1c0.3-0.1,0.5,0.1,0.6,0.4
		C2-44.2,2.4-42.6,2.9-41c0.1,0.3-0.1,0.5-0.3,0.6C2.3-40.3,2-40.4,2-40.7c-0.5-1.6-0.9-3.2-1.3-4.8C0.6-45.8,0.7-46,1-46.1z
		 M3.8-36.6c0.3-0.1,0.5,0,0.6,0.3c0.5,1.5,1.1,3.1,1.7,4.6c0.1,0.3,0,0.5-0.3,0.6c-0.3,0.1-0.5,0-0.6-0.3C4.6-32.9,4-34.4,3.5-36
		C3.4-36.2,3.5-36.5,3.8-36.6z M7.4-27.4c0.3-0.1,0.5,0,0.7,0.3c0.7,1.5,1.4,3,2.1,4.5c0.1,0.2,0,0.5-0.2,0.7
		c-0.2,0.1-0.5,0-0.7-0.2c-0.8-1.5-1.5-3-2.1-4.5C7-27,7.1-27.3,7.4-27.4z M11.8-18.4c0.2-0.1,0.5,0,0.7,0.2
		c0.8,1.4,1.6,2.8,2.4,4.3c0.1,0.2,0.1,0.5-0.2,0.7c-0.2,0.1-0.5,0.1-0.7-0.2c-0.9-1.4-1.7-2.9-2.5-4.3C11.4-18,11.5-18.3,11.8-18.4
		z M16.8-9.9c0.2-0.2,0.5-0.1,0.7,0.1c0.9,1.4,1.8,2.7,2.8,4.1c0.2,0.2,0.1,0.5-0.1,0.7c-0.2,0.2-0.5,0.1-0.7-0.1
		c-1-1.4-1.9-2.8-2.8-4.1C16.5-9.5,16.6-9.8,16.8-9.9z M244.1-6.1c-1.7-0.1-3.4-0.2-4.9-0.2c-0.3,0-0.5-0.2-0.5-0.5
		c0-0.3,0.2-0.5,0.5-0.5c1.6,0,3.3,0,5,0.2c0.3,0,0.5,0.3,0.5,0.5C244.7-6.3,244.4-6.1,244.1-6.1z M234.8-6.4c0,0.3-0.1,0.5-0.4,0.6
		c-1.7,0.3-3.3,0.6-4.8,1.1c-0.3,0.1-0.5-0.1-0.6-0.3c-0.1-0.3,0.1-0.5,0.3-0.6c1.5-0.5,3.2-0.9,4.9-1.1
		C234.5-6.9,234.8-6.7,234.8-6.4z M248.7-6c0-0.3,0.3-0.5,0.6-0.4c1.5,0.3,3.1,0.6,4.8,0.9c0.3,0.1,0.4,0.3,0.4,0.6
		c-0.1,0.3-0.3,0.4-0.6,0.4c-1.6-0.4-3.2-0.7-4.8-0.9C248.9-5.5,248.7-5.8,248.7-6z M258.4-3.9c0.1-0.3,0.3-0.4,0.6-0.3
		c1.5,0.4,3.1,0.9,4.8,1.4c0.3,0.1,0.4,0.4,0.3,0.6c-0.1,0.3-0.4,0.4-0.6,0.3c-1.6-0.5-3.2-1-4.7-1.4C258.5-3.4,258.3-3.7,258.4-3.9
		z M225.4-3.5c0.1,0.2,0,0.5-0.2,0.7c-1.5,0.8-2.8,1.7-4,2.7c-0.2,0.2-0.5,0.1-0.7-0.1c-0.2-0.2-0.1-0.5,0.1-0.7
		c1.3-1.1,2.7-2,4.2-2.8C224.9-3.9,225.2-3.8,225.4-3.5z M22.5-1.8C22.7-2,23-1.9,23.2-1.7c1,1.3,2,2.6,3.1,3.9
		c0.2,0.2,0.1,0.5-0.1,0.7C26,3,25.7,3,25.5,2.8c-1.1-1.3-2.1-2.6-3.1-3.9C22.2-1.3,22.3-1.6,22.5-1.8z M267.9-0.9
		c0.1-0.3,0.4-0.4,0.6-0.3c1.5,0.5,3,1.1,4.6,1.7c0.3,0.1,0.4,0.4,0.3,0.6c-0.1,0.3-0.4,0.4-0.6,0.3c-1.6-0.6-3.1-1.2-4.6-1.7
		C267.9-0.4,267.8-0.7,267.9-0.9z M277.2,2.7c0.1-0.3,0.4-0.4,0.7-0.3c1.4,0.6,2.9,1.3,4.4,1.9c0.3,0.1,0.4,0.4,0.3,0.7
		c-0.1,0.3-0.4,0.4-0.7,0.3c-1.5-0.7-3-1.3-4.4-1.9C277.3,3.3,277.1,3,277.2,2.7z M217.6,2.6c0.2,0.2,0.2,0.5,0.1,0.7
		c-1,1.2-2,2.6-2.9,4c-0.1,0.2-0.5,0.3-0.7,0.2c-0.2-0.1-0.3-0.5-0.2-0.7c0.9-1.4,1.9-2.8,3-4.1C217.1,2.5,217.4,2.4,217.6,2.6z
		 M28.8,5.9c0.2-0.2,0.5-0.2,0.7,0c1.1,1.2,2.2,2.4,3.3,3.6c0.2,0.2,0.2,0.5,0,0.7c-0.2,0.2-0.5,0.2-0.7,0c-1.1-1.2-2.2-2.4-3.3-3.6
		C28.6,6.4,28.6,6.1,28.8,5.9z M286.3,6.7c0.1-0.2,0.4-0.4,0.7-0.2c0.8,0.4,1.6,0.7,2.4,1.1c0.8,0.4,1.6,0.8,2.4,1.2
		c0.2,0.1,0.4,0.4,0.2,0.7c-0.1,0.2-0.4,0.4-0.7,0.2c-0.8-0.4-1.6-0.8-2.4-1.2c-0.8-0.4-1.6-0.8-2.4-1.1
		C286.2,7.3,286.1,7,286.3,6.7z M212.1,10.9c0.2,0.1,0.3,0.4,0.2,0.7c-0.7,1.5-1.4,3-2,4.5c-0.1,0.3-0.4,0.4-0.7,0.3
		c-0.3-0.1-0.4-0.4-0.3-0.7c0.6-1.6,1.3-3.1,2-4.6C211.6,10.9,211.9,10.8,212.1,10.9z M295.6,11.2c0.1-0.2,0.4-0.4,0.7-0.2
		c1.5,0.7,2.9,1.4,4.3,2.1c0.2,0.1,0.3,0.4,0.2,0.7c-0.1,0.2-0.4,0.3-0.7,0.2c-1.4-0.7-2.8-1.4-4.3-2.1
		C295.6,11.8,295.5,11.5,295.6,11.2z M35.5,13.1c0.2-0.2,0.5-0.2,0.7,0c1.1,1.1,2.3,2.3,3.5,3.4c0.2,0.2,0.2,0.5,0,0.7
		c-0.2,0.2-0.5,0.2-0.7,0c-1.2-1.1-2.4-2.3-3.6-3.4C35.4,13.6,35.4,13.3,35.5,13.1z M304.5,15.7c0.1-0.2,0.4-0.3,0.7-0.2
		c1.5,0.8,3,1.5,4.3,2.2c0.2,0.1,0.3,0.4,0.2,0.7c-0.1,0.2-0.4,0.3-0.7,0.2c-1.4-0.7-2.8-1.5-4.3-2.2
		C304.5,16.2,304.4,15.9,304.5,15.7z M42.8,19.9c0.2-0.2,0.5-0.2,0.7,0c1.2,1.1,2.5,2.2,3.8,3.2c0.2,0.2,0.2,0.5,0.1,0.7
		c-0.2,0.2-0.5,0.2-0.7,0.1c-1.3-1.1-2.6-2.2-3.8-3.2C42.6,20.4,42.6,20.1,42.8,19.9z M313.4,20.3c0.1-0.2,0.4-0.3,0.7-0.2
		c1.5,0.8,2.9,1.6,4.3,2.3c0.2,0.1,0.3,0.4,0.2,0.7c-0.1,0.2-0.4,0.3-0.7,0.2c-1.3-0.7-2.8-1.5-4.3-2.3
		C313.3,20.8,313.2,20.5,313.4,20.3z M208.3,20.2c0.3,0.1,0.4,0.4,0.3,0.6c-0.5,1.5-1.1,3.1-1.6,4.7c-0.1,0.3-0.4,0.4-0.6,0.3
		c-0.3-0.1-0.4-0.4-0.3-0.6c0.5-1.6,1-3.2,1.6-4.7C207.8,20.2,208.1,20.1,208.3,20.2z M322.1,25.1c0.1-0.2,0.4-0.3,0.7-0.2
		c1.5,0.9,3,1.8,4.2,2.6c0.2,0.1,0.3,0.5,0.2,0.7s-0.5,0.3-0.7,0.2c-1.3-0.8-2.7-1.6-4.2-2.5C322,25.7,322,25.4,322.1,25.1z
		 M50.3,26.3c0.2-0.2,0.5-0.3,0.7-0.1c1.3,1,2.6,2,3.9,3c0.2,0.2,0.3,0.5,0.1,0.7c-0.2,0.2-0.5,0.3-0.7,0.1c-1.4-1-2.7-2-4-3
		C50.2,26.8,50.2,26.5,50.3,26.3z M205.3,29.6c0.3,0.1,0.4,0.4,0.3,0.6c-0.1,0.2-0.1,0.5-0.2,0.7c-0.4,1.3-0.8,2.7-1.2,4
		c-0.1,0.3-0.4,0.4-0.6,0.3c-0.3-0.1-0.4-0.4-0.3-0.6c0.4-1.3,0.8-2.7,1.2-4c0.1-0.2,0.1-0.5,0.2-0.7
		C204.7,29.7,205,29.6,205.3,29.6z M330.5,30.4c0.2-0.2,0.5-0.3,0.7-0.1c1.6,1.2,3,2.2,4,3.2c0.2,0.2,0.2,0.5,0,0.7
		c-0.2,0.2-0.5,0.2-0.7,0c-1-0.9-2.3-2-3.9-3.1C330.3,30.9,330.3,30.6,330.5,30.4z M58.3,32.2c0.2-0.2,0.5-0.3,0.7-0.1
		c1.3,0.9,2.7,1.9,4.1,2.8c0.2,0.2,0.3,0.5,0.1,0.7c-0.2,0.2-0.5,0.3-0.7,0.1c-1.4-0.9-2.8-1.9-4.1-2.8
		C58.2,32.8,58.1,32.5,58.3,32.2z M337.4,37.4c0.3,0,0.5,0.2,0.6,0.4c0.1,0.9-0.2,1.7-0.8,2.4c-0.6,0.7-1.5,1.2-2.6,1.6
		c-0.3,0.1-0.5,0-0.7-0.3c-0.1-0.3,0-0.5,0.3-0.7c1-0.4,1.8-0.9,2.2-1.4c0.4-0.5,0.6-1,0.5-1.6C336.9,37.6,337.1,37.4,337.4,37.4z
		 M66.5,37.8c0.1-0.2,0.5-0.3,0.7-0.2c1.4,0.9,2.8,1.8,4.2,2.6c0.2,0.1,0.3,0.5,0.2,0.7c-0.1,0.2-0.5,0.3-0.7,0.2
		c-1.4-0.9-2.8-1.8-4.2-2.6C66.4,38.3,66.3,38,66.5,37.8z M202.3,39.2c0.3,0.1,0.4,0.4,0.3,0.6c-0.5,1.6-1.1,3.2-1.7,4.7
		c-0.1,0.3-0.4,0.4-0.6,0.3c-0.3-0.1-0.4-0.4-0.3-0.6c0.6-1.5,1.1-3.1,1.7-4.7C201.8,39.2,202.1,39.1,202.3,39.2z M330.2,42.6
		c0.1,0.3-0.1,0.5-0.4,0.6c-1.5,0.3-3.2,0.6-5,0.9c-0.3,0-0.5-0.1-0.6-0.4c0-0.3,0.1-0.5,0.4-0.6c1.8-0.3,3.5-0.6,4.9-0.9
		C329.8,42.2,330.1,42.3,330.2,42.6z M75,43c0.1-0.2,0.4-0.3,0.7-0.2c1.4,0.8,2.8,1.6,4.3,2.4c0.2,0.1,0.3,0.4,0.2,0.7
		c-0.1,0.2-0.4,0.3-0.7,0.2c-1.5-0.8-2.9-1.6-4.3-2.4C74.9,43.5,74.8,43.2,75,43z M320.2,44.2c0,0.3-0.2,0.5-0.4,0.6
		c-1.2,0.2-2.4,0.3-3.6,0.5c-0.4,0.1-0.9,0.1-1.3,0.2c-0.3,0-0.5-0.2-0.6-0.4c0-0.3,0.2-0.5,0.4-0.6c0.4-0.1,0.9-0.1,1.3-0.2
		c1.2-0.2,2.5-0.3,3.6-0.5C320,43.7,320.2,43.9,320.2,44.2z M310.3,45.5c0,0.3-0.2,0.5-0.4,0.6c-1.6,0.2-3.3,0.5-4.9,0.7
		c-0.3,0-0.5-0.1-0.6-0.4c0-0.3,0.1-0.5,0.4-0.6c1.7-0.3,3.3-0.5,5-0.7C310,45,310.3,45.2,310.3,45.5z M300.4,47
		c0,0.3-0.1,0.5-0.4,0.6c-1.6,0.3-3.3,0.6-4.9,0.9c-0.3,0.1-0.5-0.1-0.6-0.4c-0.1-0.3,0.1-0.5,0.4-0.6c1.6-0.3,3.3-0.7,4.9-0.9
		C300.1,46.5,300.4,46.7,300.4,47z M83.7,47.8c0.1-0.2,0.4-0.3,0.7-0.2c1.4,0.8,2.9,1.5,4.4,2.2c0.2,0.1,0.3,0.4,0.2,0.7
		c-0.1,0.2-0.4,0.3-0.7,0.2c-1.5-0.7-2.9-1.5-4.4-2.2C83.6,48.3,83.5,48,83.7,47.8z M198.8,48.5c0.3,0.1,0.4,0.4,0.3,0.7
		c-0.7,1.5-1.4,3.1-2.2,4.5c-0.1,0.2-0.4,0.3-0.7,0.2c-0.2-0.1-0.3-0.4-0.2-0.7c0.8-1.4,1.5-2.9,2.2-4.4
		C198.3,48.5,198.6,48.4,198.8,48.5z M290.6,49c0.1,0.3-0.1,0.5-0.4,0.6c-1.6,0.4-3.2,0.8-4.8,1.3c-0.3,0.1-0.5-0.1-0.6-0.3
		c-0.1-0.3,0.1-0.5,0.3-0.6c1.6-0.5,3.2-0.9,4.8-1.3C290.3,48.5,290.6,48.7,290.6,49z M281.1,51.8c0.1,0.3,0,0.5-0.3,0.6
		c-1.6,0.6-3.1,1.2-4.6,1.9c-0.3,0.1-0.5,0-0.7-0.2c-0.1-0.3,0-0.5,0.2-0.7c1.5-0.7,3.1-1.3,4.6-1.9C280.7,51.4,281,51.6,281.1,51.8
		z M92.5,52.3c0.1-0.2,0.4-0.4,0.7-0.2c1.5,0.7,2.9,1.4,4.4,2.1c0.3,0.1,0.4,0.4,0.2,0.7c-0.1,0.3-0.4,0.4-0.7,0.2
		c-1.5-0.7-3-1.4-4.5-2.1C92.5,52.8,92.4,52.5,92.5,52.3z M272,56c0.1,0.2,0.1,0.5-0.2,0.7c-1.4,0.9-2.8,1.8-4.1,2.8
		c-0.2,0.2-0.5,0.1-0.7-0.1c-0.2-0.2-0.1-0.5,0.1-0.7c1.3-1,2.7-2,4.2-2.8C271.6,55.6,271.9,55.7,272,56z M101.5,56.4
		c0.1-0.3,0.4-0.4,0.7-0.3c1.5,0.7,3,1.3,4.6,2c0.3,0.1,0.4,0.4,0.3,0.7c-0.1,0.3-0.4,0.4-0.7,0.3c-1.6-0.7-3.1-1.3-4.6-2
		C101.5,56.9,101.4,56.6,101.5,56.4z M194.1,57.3c0.2,0.2,0.3,0.5,0.1,0.7c-0.9,1.4-2,2.7-3.1,4c-0.2,0.2-0.5,0.2-0.7,0
		c-0.2-0.2-0.2-0.5,0-0.7c1.1-1.2,2.1-2.5,3-3.9C193.6,57.2,193.9,57.1,194.1,57.3z M110.6,60.2c0.1-0.3,0.4-0.4,0.7-0.3
		c1.5,0.6,3.1,1.2,4.6,1.8c0.3,0.1,0.4,0.4,0.3,0.6c-0.1,0.3-0.4,0.4-0.6,0.3c-1.6-0.6-3.1-1.2-4.7-1.8
		C110.6,60.8,110.5,60.5,110.6,60.2z M264.1,62c0.2,0.2,0.2,0.5,0,0.7c-1.1,1.2-2.1,2.5-3,3.8c-0.2,0.2-0.5,0.3-0.7,0.1
		c-0.2-0.2-0.3-0.5-0.1-0.7c0.9-1.4,2-2.7,3.1-4C263.6,61.8,263.9,61.8,264.1,62z M117.6,63c0.1-0.3,0.4-0.4,0.6-0.3
		c0.8,0.3,1.6,0.6,2.5,0.9c0.3,0.1,0.4,0.4,0.3,0.6s-0.4,0.4-0.6,0.3c-0.8-0.3-1.6-0.6-2.5-0.9C117.7,63.5,117.5,63.2,117.6,63z
		 M187.6,64.8c0.2,0.2,0.1,0.5-0.1,0.7c-1.3,1.1-2.6,2-4.1,2.9c-0.2,0.1-0.5,0.1-0.7-0.2c-0.1-0.2-0.1-0.5,0.2-0.7
		c1.4-0.9,2.8-1.8,4-2.8C187.1,64.5,187.5,64.6,187.6,64.8z M124.9,65.6c0.1-0.3,0.4-0.4,0.6-0.3c1.6,0.5,3.1,1,4.6,1.5
		c0.3,0.1,0.4,0.4,0.3,0.6c-0.1,0.3-0.4,0.4-0.6,0.3c-1.5-0.5-3-1-4.6-1.5C124.9,66.1,124.8,65.9,124.9,65.6z M134.3,68.6
		c0.1-0.3,0.4-0.4,0.6-0.3c1.6,0.5,3.2,0.9,4.7,1.3c0.3,0.1,0.4,0.3,0.4,0.6c-0.1,0.3-0.3,0.4-0.6,0.4c-1.5-0.4-3.1-0.8-4.8-1.3
		C134.4,69.1,134.3,68.8,134.3,68.6z M179.2,70c0.1,0.3,0,0.5-0.3,0.7c-1.5,0.6-3.1,1.1-4.8,1.6c-0.3,0.1-0.5-0.1-0.6-0.4
		c-0.1-0.3,0.1-0.5,0.4-0.6c1.7-0.4,3.2-0.9,4.7-1.5C178.8,69.6,179.1,69.8,179.2,70z M258.5,70.2c0.3,0.1,0.4,0.4,0.3,0.7
		c-0.6,1.5-1.1,3-1.4,4.7c-0.1,0.3-0.3,0.4-0.6,0.4c-0.3-0.1-0.4-0.3-0.4-0.6c0.4-1.7,0.9-3.3,1.5-4.8
		C258,70.2,258.3,70.1,258.5,70.2z M144,71c0.1-0.3,0.3-0.4,0.6-0.4c1.7,0.3,3.3,0.6,4.8,0.9c0.3,0,0.5,0.3,0.4,0.6
		c0,0.3-0.3,0.5-0.6,0.4c-1.6-0.3-3.2-0.6-4.9-0.9C144.1,71.5,143.9,71.3,144,71z M169.7,72.6c0,0.3-0.2,0.5-0.4,0.6
		c-1.6,0.2-3.2,0.3-5,0.4c-0.3,0-0.5-0.2-0.5-0.5c0-0.3,0.2-0.5,0.5-0.5c1.7-0.1,3.3-0.2,4.9-0.4C169.4,72.1,169.6,72.3,169.7,72.6z
		 M153.8,72.6c0-0.3,0.3-0.5,0.6-0.4c1.7,0.2,3.3,0.3,4.8,0.4c0.3,0,0.5,0.2,0.5,0.5c0,0.3-0.2,0.5-0.5,0.5
		c-1.6-0.1-3.2-0.2-4.9-0.4C154,73.1,153.8,72.9,153.8,72.6z M227.8,74.3c0.1-0.2,0.4-0.3,0.7-0.2c1.2,0.7,2.5,1.9,3.9,3.4
		c0.2,0.2,0.2,0.5,0,0.7c-0.2,0.2-0.5,0.2-0.7,0c-1.4-1.5-2.6-2.6-3.7-3.2C227.7,74.8,227.7,74.5,227.8,74.3z M224.4,75.2
		c0.3,0.1,0.4,0.4,0.3,0.6c-0.4,1-0.6,2.5-0.6,4.7c0,0.3-0.2,0.5-0.5,0.5c-0.3,0-0.5-0.2-0.5-0.5c0-2.2,0.3-3.9,0.7-5.1
		C223.8,75.2,224.1,75.1,224.4,75.2z M256.3,79.9c0.3,0,0.5,0.2,0.5,0.5c-0.1,1.6-0.1,3.2,0.1,4.9c0,0.3-0.2,0.5-0.5,0.5
		c-0.3,0-0.5-0.2-0.5-0.5c-0.1-1.8-0.2-3.4-0.1-5C255.8,80.1,256,79.8,256.3,79.9z M235,81.3c0.2-0.2,0.5-0.1,0.7,0.1
		c1,1.3,2,2.6,3.1,4.1c0.2,0.2,0.1,0.5-0.1,0.7c-0.2,0.2-0.5,0.1-0.7-0.1c-1-1.4-2.1-2.8-3-4C234.8,81.8,234.8,81.5,235,81.3z
		 M223.7,85.1c0.3,0,0.5,0.2,0.5,0.5c0.1,1.5,0.3,3.1,0.6,5c0,0.3-0.2,0.5-0.4,0.6c-0.3,0-0.5-0.2-0.6-0.4c-0.3-1.8-0.4-3.5-0.6-5
		C223.3,85.4,223.5,85.1,223.7,85.1z M241,89.5c0.2-0.2,0.5-0.1,0.7,0.1c0.9,1.4,1.9,2.8,2.8,4.2c0.2,0.2,0.1,0.5-0.1,0.7
		c-0.2,0.2-0.5,0.1-0.7-0.1c-0.9-1.4-1.9-2.8-2.8-4.2C240.7,90,240.8,89.7,241,89.5z M256.9,89.9c0.3-0.1,0.5,0.1,0.6,0.4
		c0.3,1.5,0.7,3.1,1.1,4.7c0.1,0.3-0.1,0.5-0.3,0.6c-0.3,0.1-0.5-0.1-0.6-0.3c-0.5-1.7-0.8-3.3-1.1-4.8
		C256.5,90.2,256.7,89.9,256.9,89.9z M225.1,95.2c0.3,0,0.5,0.1,0.6,0.4c0.3,1.5,0.6,3.2,0.9,4.9c0.1,0.3-0.1,0.5-0.4,0.6
		c-0.3,0.1-0.5-0.1-0.6-0.4c-0.3-1.7-0.6-3.4-0.9-4.9C224.6,95.5,224.8,95.2,225.1,95.2z M258.7,97.2c0.3-0.1,0.5,0.1,0.6,0.3
		c0.3,0.9,0.6,1.8,0.8,2.6c0.1,0.3-0.1,0.5-0.3,0.6c-0.3,0.1-0.5-0.1-0.6-0.3c-0.3-0.8-0.5-1.7-0.8-2.6
		C258.3,97.5,258.5,97.3,258.7,97.2z M246.6,97.9c0.2-0.2,0.5-0.1,0.7,0.1c0.9,1.4,1.9,2.8,2.8,4.2c0.2,0.2,0.1,0.5-0.1,0.7
		s-0.5,0.1-0.7-0.1c-0.9-1.4-1.8-2.8-2.8-4.2C246.3,98.4,246.4,98,246.6,97.9z M261,104.4c0.3-0.1,0.5,0.1,0.6,0.3
		c0.5,1.8,1,3.5,1.4,5c0.1,0.3-0.1,0.5-0.4,0.6c-0.3,0.1-0.5-0.1-0.6-0.4c-0.4-1.5-0.9-3.1-1.4-4.9
		C260.5,104.8,260.7,104.5,261,104.4z M226.9,105c0.3-0.1,0.5,0.1,0.6,0.4c0.3,1.6,0.7,3.2,1.1,4.9c0.1,0.3-0.1,0.5-0.4,0.6
		c-0.3,0.1-0.5-0.1-0.6-0.4c-0.4-1.7-0.7-3.4-1.1-4.9C226.5,105.3,226.7,105.1,226.9,105z M252.1,106.4c0.2-0.2,0.5-0.1,0.7,0.1
		c1,1.5,1.9,2.9,2.8,4.2c0.2,0.2,0.1,0.5-0.1,0.7c-0.2,0.2-0.5,0.1-0.7-0.1c-0.9-1.3-1.8-2.8-2.8-4.2
		C251.8,106.8,251.9,106.5,252.1,106.4z M228.6,112.6c0.3-0.1,0.5,0.1,0.6,0.4c0.2,0.9,0.4,1.7,0.6,2.5c0.1,0.3-0.1,0.5-0.4,0.6
		c-0.3,0.1-0.5-0.1-0.6-0.4c-0.2-0.8-0.4-1.7-0.6-2.6C228.1,112.9,228.3,112.7,228.6,112.6z M263.6,114.2c0.3-0.1,0.5,0.1,0.6,0.4
		c0.5,2.4,0.7,4.1,0.7,5.2c0,0.3-0.2,0.5-0.5,0.5c-0.3,0-0.5-0.2-0.5-0.5c0-1-0.2-2.6-0.7-4.9C263.1,114.6,263.3,114.3,263.6,114.2z
		 M257.8,114.8c0.2-0.2,0.5-0.1,0.7,0.1c1.2,1.6,2.2,3,3.1,4c0.2,0.2,0.2,0.5,0,0.7c-0.2,0.2-0.5,0.2-0.7,0c-0.9-1-2-2.4-3.1-4.1
		C257.5,115.3,257.6,115,257.8,114.8z M230.4,120.1c0.3-0.1,0.5,0.1,0.6,0.4c0.4,1.7,0.9,3.3,1.3,4.8c0.1,0.3-0.1,0.5-0.3,0.6
		c-0.3,0.1-0.5-0.1-0.6-0.3c-0.5-1.6-0.9-3.2-1.3-4.9C229.9,120.4,230.1,120.1,230.4,120.1z M233.1,129.8c0.3-0.1,0.5,0.1,0.6,0.3
		c0.5,1.6,1,3.2,1.6,4.8c0.1,0.3,0,0.5-0.3,0.6c-0.3,0.1-0.5,0-0.6-0.3c-0.5-1.5-1.1-3.1-1.6-4.8
		C232.7,130.1,232.9,129.8,233.1,129.8z M236.4,139.3c0.3-0.1,0.5,0,0.6,0.3c0.6,1.6,1.3,3.2,1.9,4.7c0.1,0.3,0,0.5-0.3,0.7
		c-0.3,0.1-0.5,0-0.7-0.3c-0.6-1.5-1.3-3.1-1.9-4.8C236,139.7,236.1,139.4,236.4,139.3z M240.2,148.6c0.3-0.1,0.5,0,0.7,0.2
		c0.7,1.6,1.5,3.1,2.2,4.5c0.1,0.2,0,0.5-0.2,0.7s-0.5,0-0.7-0.2c-0.7-1.4-1.5-3-2.2-4.6C239.9,149,240,148.7,240.2,148.6z
		 M244.8,157.6c0.2-0.1,0.5-0.1,0.7,0.2c0.9,1.5,1.7,3,2.6,4.3c0.1,0.2,0.1,0.5-0.2,0.7c-0.2,0.1-0.5,0.1-0.7-0.2
		c-0.8-1.4-1.7-2.8-2.6-4.4C244.5,158.1,244.6,157.8,244.8,157.6z M150.5,164c1.8,0,3.5,0,5.2,0c0.3,0,0.5,0.2,0.5,0.5
		c0,0.3-0.2,0.5-0.5,0.5c-1.7,0-3.4,0-5.2,0c-0.3,0-0.5-0.2-0.5-0.5C150,164.2,150.2,164,150.5,164z M146.1,164.5
		c0,0.3-0.2,0.5-0.5,0.5c-1.6,0-3.3,0-5,0.1c-0.3,0-0.5-0.2-0.5-0.5c0-0.3,0.2-0.5,0.5-0.5c1.7,0,3.4,0,5-0.1
		C145.9,164,146.1,164.2,146.1,164.5z M160.3,164.5c0-0.3,0.2-0.5,0.5-0.5c1.7,0,3.3,0,4.9,0.1c0.3,0,0.5,0.2,0.5,0.5
		c0,0.3-0.2,0.5-0.5,0.5c-1.6,0-3.3-0.1-4.9-0.1C160.5,165,160.3,164.8,160.3,164.5z M135.9,164.7c0,0.3-0.2,0.5-0.5,0.5
		c-1.7,0-3.3,0.1-5,0.1c-0.3,0-0.5-0.2-0.5-0.5c0-0.3,0.2-0.5,0.5-0.5c1.7,0,3.4-0.1,5-0.1C135.7,164.2,135.9,164.4,135.9,164.7z
		 M170.3,164.7c0-0.3,0.2-0.5,0.5-0.5c1.7,0,3.4,0.1,5.1,0.2c0.3,0,0.5,0.2,0.5,0.5c0,0.3-0.2,0.5-0.5,0.5c-1.7-0.1-3.4-0.1-5.1-0.2
		C170.5,165.2,170.3,165,170.3,164.7z M126,165c0,0.3-0.2,0.5-0.5,0.5c-1.7,0.1-3.4,0.1-5.1,0.2c-0.3,0-0.5-0.2-0.5-0.5
		c0-0.3,0.2-0.5,0.5-0.5c1.7-0.1,3.4-0.1,5.1-0.2C125.7,164.5,126,164.7,126,165z M180.3,165.1c0-0.3,0.2-0.5,0.5-0.5
		c1.8,0.1,3.5,0.2,5.2,0.2c0.3,0,0.5,0.2,0.5,0.5s-0.2,0.5-0.5,0.5c-1.7-0.1-3.4-0.2-5.2-0.2C180.5,165.6,180.3,165.3,180.3,165.1z
		 M115.7,165.3c0,0.3-0.2,0.5-0.5,0.5c-1.6,0.1-3.3,0.2-5,0.2c-0.3,0-0.5-0.2-0.5-0.5c0-0.3,0.2-0.5,0.5-0.5c1.7-0.1,3.3-0.2,5-0.2
		C115.5,164.9,115.7,165.1,115.7,165.3z M190.5,165.6c0-0.3,0.3-0.5,0.5-0.5c1.7,0.1,3.3,0.2,5,0.3c0.3,0,0.5,0.3,0.5,0.5
		c0,0.3-0.3,0.5-0.5,0.5c-1.6-0.1-3.3-0.2-4.9-0.3C190.7,166.1,190.5,165.9,190.5,165.6z M105.8,165.8c0,0.3-0.2,0.5-0.5,0.5
		c-1.7,0.1-3.3,0.2-5,0.3c-0.3,0-0.5-0.2-0.5-0.5c0-0.3,0.2-0.5,0.5-0.5c1.7-0.1,3.4-0.2,5.1-0.3
		C105.6,165.3,105.8,165.5,105.8,165.8z M200.6,166.3c0-0.3,0.3-0.5,0.5-0.5c1.7,0.1,3.3,0.3,4.9,0.4c0.3,0,0.5,0.3,0.4,0.5
		c0,0.3-0.3,0.5-0.5,0.4c-1.6-0.2-3.2-0.3-4.9-0.4C200.8,166.8,200.6,166.6,200.6,166.3z M95.6,166.4c0,0.3-0.2,0.5-0.5,0.5
		c-0.9,0.1-1.7,0.1-2.6,0.2c-0.9,0.1-1.7,0.1-2.6,0.2c-0.3,0-0.5-0.2-0.5-0.5c0-0.3,0.2-0.5,0.5-0.5c0.9-0.1,1.7-0.1,2.6-0.2
		c0.9-0.1,1.7-0.1,2.6-0.2C95.4,165.9,95.6,166.1,95.6,166.4z M250.1,166.2c0.2-0.2,0.5-0.1,0.7,0.1c1.1,1.5,2.1,2.8,3,4
		c0.2,0.2,0.1,0.5-0.1,0.7c-0.2,0.2-0.5,0.1-0.7-0.1c-0.9-1.2-2-2.5-3-4C249.9,166.7,249.9,166.4,250.1,166.2z M85.3,167.1
		c0,0.3-0.2,0.5-0.5,0.5c-1.7,0.1-3.3,0.2-5,0.4c-0.3,0-0.5-0.2-0.5-0.5c0-0.3,0.2-0.5,0.5-0.5c1.6-0.1,3.3-0.2,5-0.4
		C85,166.6,85.2,166.8,85.3,167.1z M210.6,167.3c0-0.3,0.3-0.5,0.6-0.4c1.7,0.2,3.3,0.4,4.9,0.6c0.3,0,0.5,0.3,0.4,0.6
		c0,0.3-0.3,0.5-0.6,0.4c-1.6-0.2-3.2-0.4-4.9-0.6C210.8,167.8,210.6,167.6,210.6,167.3z M75.4,167.8c0,0.3-0.2,0.5-0.5,0.5
		c-1.7,0.1-3.3,0.2-4.9,0.4c-0.3,0-0.5-0.2-0.5-0.5c0-0.3,0.2-0.5,0.5-0.5c1.6-0.1,3.2-0.2,4.9-0.4
		C75.2,167.3,75.4,167.5,75.4,167.8z M220.6,168.5c0-0.3,0.3-0.5,0.6-0.4c1.7,0.2,3.3,0.5,4.9,0.7c0.3,0,0.5,0.3,0.4,0.6
		c0,0.3-0.3,0.5-0.6,0.4c-1.6-0.2-3.2-0.5-4.8-0.7C220.8,169.1,220.6,168.8,220.6,168.5z M65.4,168.6c0,0.3-0.2,0.5-0.5,0.5
		c-1.7,0.1-3.3,0.3-5,0.4c-0.3,0-0.5-0.2-0.5-0.5c0-0.3,0.2-0.5,0.5-0.5c1.6-0.1,3.3-0.3,5-0.4C65.1,168.1,65.3,168.3,65.4,168.6z
		 M55.6,169.4c0,0.3-0.2,0.5-0.5,0.5c-1.7,0.1-3.4,0.3-5,0.5c-0.3,0-0.5-0.2-0.5-0.5c0-0.3,0.2-0.5,0.5-0.5c1.6-0.2,3.3-0.3,5-0.5
		C55.3,168.9,55.5,169.1,55.6,169.4z M230.6,170.1c0-0.3,0.3-0.5,0.6-0.4c1.7,0.3,3.4,0.6,5,0.9c0.3,0.1,0.4,0.3,0.4,0.6
		c-0.1,0.3-0.3,0.4-0.6,0.4c-1.6-0.3-3.2-0.6-4.9-0.9C230.7,170.6,230.5,170.4,230.6,170.1z M45.5,170.4c0,0.3-0.2,0.5-0.4,0.5
		c-1.7,0.2-3.3,0.3-4.9,0.5c-0.3,0-0.5-0.2-0.5-0.4c0-0.3,0.2-0.5,0.4-0.5c1.6-0.2,3.2-0.3,4.9-0.5
		C45.2,169.9,45.4,170.1,45.5,170.4z M35.7,171.3c0,0.3-0.2,0.5-0.4,0.6c-1.7,0.2-3.5,0.4-5.1,0.6c-0.3,0-0.5-0.2-0.6-0.4
		c0-0.3,0.2-0.5,0.4-0.6c1.7-0.2,3.4-0.4,5.1-0.6C35.4,170.9,35.7,171.1,35.7,171.3z M240.4,172.1c0.1-0.3,0.3-0.4,0.6-0.4
		c1.8,0.4,3.4,0.8,4.9,1.2c0.3,0.1,0.4,0.3,0.4,0.6c-0.1,0.3-0.3,0.4-0.6,0.4c-1.5-0.4-3.1-0.8-4.9-1.2
		C240.5,172.6,240.3,172.3,240.4,172.1z M25.7,172.5c0,0.3-0.2,0.5-0.4,0.6c-1.7,0.2-3.3,0.4-4.9,0.6c-0.3,0-0.5-0.2-0.6-0.4
		c0-0.3,0.2-0.5,0.4-0.6c1.6-0.2,3.2-0.4,4.9-0.6C25.4,172,25.7,172.2,25.7,172.5z M15.8,173.8c0,0.3-0.2,0.5-0.4,0.6
		c-1.6,0.2-3.2,0.5-4.8,0.7c-0.3,0-0.5-0.1-0.6-0.4s0.1-0.5,0.4-0.6c1.5-0.2,3.1-0.5,4.8-0.7C15.5,173.3,15.7,173.5,15.8,173.8z
		 M256.4,174.1c0.2-0.2,0.5-0.2,0.7,0c1.1,1.1,1.9,2,2.5,2.5l0.1,0.1c0.3,0.3,0.5,0.5,0.7,0.7c0.1,0.1,0.1,0.2,0.2,0.3
		c0,0,0.1,0.1,0.1,0.3c0,0.1,0,0.2-0.1,0.3c-0.1,0.1-0.1,0.2-0.2,0.2c-0.2,0.1-0.5,0-0.7-0.2c0,0,0-0.1-0.1-0.1c0,0,0,0,0,0
		c-0.1-0.1-0.3-0.3-0.6-0.6l-0.1-0.1c-0.6-0.6-1.5-1.4-2.6-2.6C256.2,174.6,256.2,174.3,256.4,174.1z M250.1,174.6
		c0.1-0.3,0.4-0.4,0.6-0.3c2,0.6,3.6,1.1,4.9,1.6c0.3,0.1,0.4,0.4,0.3,0.6c-0.1,0.3-0.4,0.4-0.6,0.3c-1.3-0.5-2.9-1-4.9-1.6
		C250.2,175.1,250,174.9,250.1,174.6z M5.9,175.2c0,0.3-0.1,0.5-0.4,0.6c-1.7,0.3-3.3,0.5-4.8,0.8c-0.3,0-0.5-0.1-0.6-0.4
		c0-0.3,0.1-0.5,0.4-0.6c1.5-0.3,3.1-0.5,4.8-0.8C5.6,174.8,5.9,175,5.9,175.2z M-3.9,177c0.1,0.3-0.1,0.5-0.4,0.6
		c-1.7,0.3-3.2,0.7-4.7,1c-0.3,0.1-0.5-0.1-0.6-0.4c-0.1-0.3,0.1-0.5,0.4-0.6c1.5-0.3,3.1-0.7,4.7-1C-4.2,176.5-4,176.7-3.9,177z
		 M-13.6,179.1c0.1,0.3-0.1,0.5-0.4,0.6c-1.7,0.5-3.3,0.9-4.8,1.4c-0.3,0.1-0.5-0.1-0.6-0.3c-0.1-0.3,0.1-0.5,0.3-0.6
		c1.5-0.5,3.1-0.9,4.8-1.4C-14,178.7-13.7,178.9-13.6,179.1z M-23.1,182.1c0.1,0.3,0,0.5-0.3,0.7c-1.8,0.8-3.2,1.5-4.3,2.3
		c-0.2,0.2-0.5,0.1-0.7-0.1c-0.2-0.2-0.1-0.5,0.1-0.7c1.1-0.8,2.6-1.6,4.5-2.4C-23.5,181.7-23.2,181.9-23.1,182.1z M-30.8,187.9
		c0.3,0,0.5,0.3,0.5,0.5c-0.1,1.2,0.6,2.4,2.2,3.7c0.2,0.2,0.2,0.5,0.1,0.7c-0.2,0.2-0.5,0.2-0.7,0.1c-1.6-1.4-2.7-2.9-2.5-4.6
		C-31.3,188.1-31.1,187.9-30.8,187.9z M-24.8,195c0.1-0.2,0.4-0.3,0.7-0.2c1.3,0.7,2.9,1.4,4.5,2.1c0.3,0.1,0.4,0.4,0.3,0.7
		c-0.1,0.3-0.4,0.4-0.7,0.3c-1.7-0.7-3.2-1.4-4.6-2.1C-24.8,195.6-24.9,195.3-24.8,195z M-15.6,198.9c0.1-0.3,0.4-0.4,0.6-0.3
		c1.5,0.5,3.1,1,4.7,1.5c0.3,0.1,0.4,0.4,0.3,0.6c-0.1,0.3-0.4,0.4-0.6,0.3c-1.6-0.5-3.2-1-4.8-1.5
		C-15.5,199.5-15.6,199.2-15.6,198.9z M-6,201.9c0.1-0.3,0.3-0.4,0.6-0.3c1.6,0.4,3.2,0.9,4.8,1.3c0.3,0.1,0.4,0.3,0.4,0.6
		c-0.1,0.3-0.3,0.4-0.6,0.4c-1.6-0.4-3.2-0.8-4.8-1.3C-5.9,202.4-6.1,202.2-6,201.9z M3.7,204.4c0.1-0.3,0.3-0.4,0.6-0.4
		c1.6,0.4,3.3,0.8,4.9,1.1c0.3,0.1,0.4,0.3,0.4,0.6c-0.1,0.3-0.3,0.4-0.6,0.4c-1.6-0.4-3.2-0.7-4.9-1.1
		C3.8,204.9,3.6,204.6,3.7,204.4z M13.4,206.5c0.1-0.3,0.3-0.4,0.6-0.4c1.7,0.4,3.4,0.7,4.9,1c0.3,0.1,0.4,0.3,0.4,0.6
		c-0.1,0.3-0.3,0.4-0.6,0.4c-1.5-0.3-3.2-0.6-4.9-1C13.6,207.1,13.4,206.8,13.4,206.5z M23.2,208.5c0.1-0.3,0.3-0.5,0.6-0.4
		c2,0.4,3.7,0.7,5,0.9c0.3,0,0.5,0.3,0.4,0.6c0,0.3-0.3,0.5-0.6,0.4c-1.2-0.2-2.9-0.5-5-0.9C23.4,209,23.2,208.7,23.2,208.5z"/>
	<path class="st5" d="M266,59.4c11.7,5,17.4,18.6,12.6,30.5c-4.9,12.1-18.5,17.8-30.5,13c-11.9-4.8-17.7-18.3-13.2-30.3l22.1,9
		L266,59.4z"/>
	<path class="st2" d="M257.1,81.6l7.3-18.2c9.5,4.1,14,15.1,10.2,24.8c-3.9,9.8-15.1,14.6-24.9,10.6c-9.6-3.9-14.3-14.8-10.7-24.5
		L257.1,81.6z"/>
	<path class="st6" d="M248.6,91c0.3-0.8-0.1-1.7-0.9-2c-0.8-0.3-1.7,0.1-2,0.9s0.1,1.7,0.9,2C247.4,92.1,248.3,91.8,248.6,91z"/>
	<path class="st7" d="M242,80.2c-1-0.4-1.9,0.1-2.3,1c-0.4,1,0.1,1.9,1,2.3c0.3,0.1,0.6-0.2,1-0.7l1.6,0.7l0.6-1.4l-1.6-0.7
		C242.4,80.8,242.4,80.3,242,80.2z"/>
	<path class="st7" d="M266.8,94.2c-0.3-0.8-1.3-1.2-2.1-0.9c-0.8,0.3-1.2,1.3-0.8,2.1c0.1,0.3,0.5,0.3,1.1,0.2l0.6,1.5l1.2-0.6
		l-0.6-1.5C266.6,94.8,266.9,94.5,266.8,94.2z"/>
	<path class="st3" d="M264.2,82c-0.9-0.3-1.3-1.3-0.9-2.1c0.3-0.9,1.3-1.3,2.1-0.9c0.9,0.3,1.3,1.3,0.9,2.1
		C266,81.9,265,82.3,264.2,82z M264.4,81.4c0.6,0.2,1.1,0,1.3-0.6c0.2-0.5,0-1.1-0.6-1.3c-0.6-0.2-1.1,0-1.3,0.6
		C263.6,80.6,263.8,81.1,264.4,81.4z"/>
	<path class="st3" d="M258.6,97.2c-0.8-0.3-1.2-1.2-0.9-2c0.3-0.8,1.2-1.1,2-0.8c0.8,0.3,1.2,1.2,0.9,2
		C260.3,97.1,259.4,97.5,258.6,97.2z M258.8,96.7c0.5,0.2,1,0,1.2-0.5c0.2-0.5,0-1-0.5-1.2c-0.5-0.2-1,0-1.2,0.5
		C258.1,95.9,258.3,96.5,258.8,96.7z"/>
	<path class="st5" d="M249.6,60.7l-1.7-4c5.3-2.2,11.3-2.4,17.1-0.1l-8.3,20.8L249.6,60.7z"/>
	<path class="st2" d="M256.7,77.3l-7.1-16.6c4.2-1.7,9.1-1.8,13.7-0.1L256.7,77.3z"/>
	<path class="st7" d="M261.4,61.5c-0.3-0.9-1.3-1.4-2.2-1.1c-0.9,0.3-1.4,1.3-1.1,2.2c0.1,0.4,0.6,0.5,1.2,0.4l0.5,1.7l1.4-0.4
		l-0.5-1.7C261.1,62.2,261.5,61.8,261.4,61.5z"/>
	<path class="st3" d="M256.3,71.6c-0.9-0.3-1.3-1.3-0.9-2.1c0.3-0.9,1.3-1.3,2.1-0.9c0.9,0.3,1.3,1.3,0.9,2.1
		C258.1,71.6,257.1,72,256.3,71.6z M256.6,71.1c0.6,0.2,1.1,0,1.3-0.6c0.2-0.5-0.1-1.1-0.6-1.3c-0.5-0.2-1.1,0-1.3,0.6
		C255.8,70.2,256,70.9,256.6,71.1z"/>
	<path class="st3" d="M254,65.2c-0.9-0.3-1.3-1.3-0.9-2.1c0.3-0.9,1.3-1.3,2.1-0.9c0.9,0.3,1.3,1.3,0.9,2.1
		C255.8,65.1,254.9,65.5,254,65.2z M254.3,64.6c0.5,0.2,1.1,0,1.3-0.6c0.2-0.6-0.1-1.1-0.6-1.3c-0.6-0.2-1.1,0-1.3,0.6
		C253.6,63.9,253.8,64.4,254.3,64.6z"/>
	<path class="st6" d="M265.8,88.6c0.4-1-0.1-2.1-1.1-2.5c-1-0.4-2.1,0.1-2.5,1.1c-0.4,1,0.1,2.1,1.1,2.5
		C264.3,90.1,265.4,89.6,265.8,88.6z"/>
	<path class="st6" d="M270.3,72c0.4-1-0.1-2.1-1.1-2.5c-1-0.4-2.1,0.1-2.5,1.1c-0.4,1,0.1,2.1,1.1,2.5C268.7,73.5,269.9,73,270.3,72
		z"/>
	<path class="st5" d="M247.4,61.7l7,16.6l-20.7-8.4c2.4-5.7,6.7-9.9,12-12.2L247.4,61.7z"/>
	<path class="st2" d="M247.3,61.7l7,16.6l-16.6-6.8C239.7,67,243.1,63.6,247.3,61.7z"/>
	<path class="st3" d="M245.2,67.3c-0.9-0.3-1.3-1.3-0.9-2.1c0.3-0.9,1.3-1.3,2.1-0.9c0.9,0.3,1.3,1.3,0.9,2.1
		C247,67.2,246.1,67.6,245.2,67.3z M245.5,66.7c0.6,0.2,1.1,0,1.3-0.6c0.2-0.6,0-1.1-0.6-1.3c-0.5-0.2-1.1,0-1.3,0.6
		C244.7,65.9,244.9,66.5,245.5,66.7z"/>
	<path class="st6" d="M250.1,73.1c0.4-1-0.1-2.1-1.1-2.5c-1-0.4-2.1,0.1-2.5,1.1s0.1,2.1,1.1,2.5S249.7,74.1,250.1,73.1z"/>
	<path class="st6" d="M241.9,68.2c0.2,0.2,0.3,0.6,0.1,0.8c-0.7,0.8-0.5,2.1,0.4,2.7c0.2,0.2,0.3,0.6,0.1,0.8
		c-0.2,0.2-0.6,0.3-0.8,0.1c-1.3-1.1-1.6-3-0.6-4.3C241.2,68.1,241.6,68,241.9,68.2z"/>
	<path class="st6" d="M266.1,74.2c-0.1,0.3-0.5,0.4-0.8,0.2c-0.9-0.6-2.1-0.3-2.7,0.7c-0.1,0.3-0.5,0.4-0.8,0.2
		c-0.3-0.1-0.4-0.5-0.2-0.8c0.9-1.4,2.7-1.9,4.2-1.1C266.2,73.6,266.3,73.9,266.1,74.2z"/>
	<path class="st6" d="M260.9,81.8c0.3-0.7-0.1-1.6-0.8-1.9c-0.7-0.3-1.6,0.1-1.9,0.8c-0.3,0.7,0.1,1.6,0.8,1.9
		C259.8,82.8,260.6,82.5,260.9,81.8z"/>
	<path class="st7" d="M255,97.4c-0.4,0.8-1.4,1.1-2.2,0.5c-0.8-0.4-1.1-1.4-0.5-2.2c0.1-0.3,0.6-0.2,1.1-0.1l0.8-1.4l1.2,0.7
		l-0.8,1.4C254.9,96.7,255.2,97.2,255,97.4z"/>
	<path class="st6" d="M252.4,89.9c-0.1,0.3,0.1,0.6,0.4,0.6c0.9,0.2,1.5,1.2,1.4,2.1c-0.1,0.3,0.1,0.6,0.4,0.6
		c0.3,0.1,0.6-0.1,0.6-0.4c0.4-1.5-0.6-3-2.1-3.4C252.7,89.4,252.4,89.6,252.4,89.9z"/>
	<path class="st6" d="M249.5,79.7c0.1,0.3,0,0.6-0.4,0.7c-1,0.4-1.6,1.5-1.2,2.5c0.1,0.3,0,0.6-0.4,0.7c-0.3,0.1-0.6,0-0.7-0.4
		c-0.5-1.7,0.3-3.3,1.9-3.9C249.1,79.3,249.4,79.4,249.5,79.7z"/>
	<path class="st6" d="M256.7,83.8c0.1,0.3,0,0.6-0.4,0.7c-1,0.4-1.6,1.5-1.2,2.5c0.1,0.3,0,0.6-0.4,0.7c-0.3,0.1-0.6,0-0.7-0.4
		c-0.5-1.7,0.3-3.3,1.9-3.9C256.3,83.3,256.6,83.5,256.7,83.8z"/>
	<path class="st2" d="M200.3,111L200.3,111h-4.1c-0.4,0-0.8-0.4-0.8-0.8c0-0.4,0.3-0.8,0.8-0.8l0,0h4.1c0.4,0,0.8,0.4,0.8,0.8
		C201,110.7,200.7,111,200.3,111z"/>
	<path class="st2" d="M208.2,98.8c-0.3,0-0.5-0.2-0.7-0.4l-1.8-3.7c-0.2-0.4,0-0.8,0.3-1c0.4-0.2,0.8,0,1,0.3l1.8,3.7
		C209.1,97.9,209,98.8,208.2,98.8z"/>
	<path class="st8" d="M202.3,125.5l-2-3.6c-0.2-0.4-0.1-0.8,0.3-1c0.4-0.2,0.8-0.1,1,0.3l2,3.6c0.2,0.4,0.1,0.8-0.3,1
		C203,126,202.5,125.7,202.3,125.5z"/>
	<path class="st2" d="M196.8,121.5c0.7,0,1.3-0.6,1.3-1.3c0-0.7-0.6-1.3-1.3-1.3s-1.3,0.6-1.3,1.3
		C195.5,120.9,196.1,121.5,196.8,121.5z"/>
	<path class="st8" d="M198.8,102.1c0.7,0,1.3-0.6,1.3-1.3c0-0.7-0.6-1.3-1.3-1.3c-0.7,0-1.3,0.6-1.3,1.3
		C197.5,101.5,198.1,102.1,198.8,102.1z"/>
	<path class="st3" d="M211.9,159.1c-1-0.4-2-0.8-3-1.4l-0.4-0.2c-9.2-5.6-12.3-17.7-6.7-27c5.6-9.3,17.5-12.3,26.8-6.7l0.3,0.2
		c1,0.6,1.8,1.2,2.6,2c6.9,6.2,8.7,16.6,3.7,24.8C230.5,159,220.6,162.3,211.9,159.1z M210.4,147.4c0.7,0.9,1.6,1.7,2.5,2.3l0.3,0.2
		c5,3,11.6,1.4,14.6-3.7c3-5.1,1.4-11.6-3.7-14.7l-0.3-0.2c-1-0.6-2.1-1-3.2-1.2c-4.2-0.9-8.8,1-11.2,5
		C207.1,139.1,207.6,144,210.4,147.4z"/>
	<path class="st9" d="M220.7,130.1c1.2-1.9,3-3.3,5.2-3.8c1.3-0.3,2.5-1.2,3.2-2.3c1,0.6,1.8,1.3,2.6,2c-1.2,1.7-2.9,2.9-5,3.5
		c-1.1,0.3-2.2,0.9-2.8,1.7C222.8,130.6,221.8,130.3,220.7,130.1z"/>
	<path class="st9" d="M208.9,157.7c0.6-1.2,0.9-2.5,0.5-3.9c-0.6-2.2-0.2-4.4,0.9-6.4c0.7,0.9,1.5,1.7,2.5,2.3
		c-0.4,1.1-0.5,2.2-0.2,3.3c0.5,2.1,0.2,4.2-0.7,6.1C210.9,158.7,209.9,158.3,208.9,157.7z"/>
	<path class="st2" d="M209.5,153.8c-0.5-2.1-0.2-4.4,0.9-6.4c-2.7-3.4-3.2-8.3-0.9-12.3c2.4-4,6.9-5.8,11.2-5c1.2-1.9,3-3.3,5.2-3.8
		c1.3-0.3,2.4-1.2,3.2-2.3c-0.1-0.1-0.2-0.1-0.4-0.2c-9.3-5.6-21.3-2.6-26.8,6.7c-5.6,9.3-2.6,21.4,6.7,27c0.1,0.1,0.2,0.1,0.4,0.2
		C209.6,156.5,209.8,155.2,209.5,153.8z"/>
	<path class="st8" d="M214.2,153.9c0-0.1,0.1-0.1,0.2-0.2c0.2-0.1,0.4,0,0.3,0.2l0.4,1.8c0.1,0.2,0,0.4-0.2,0.3
		c-0.2,0.1-0.4,0-0.3-0.2l-0.4-1.8C214.1,154.1,214.1,154,214.2,153.9z"/>
	<path class="st9" d="M226.6,154.9c0.1,0,0.2,0,0.3,0.1c0.1,0.1,0.2,0.3,0,0.4l-1.1,1.5c-0.1,0.1-0.3,0.2-0.4,0
		c-0.1-0.1-0.2-0.3,0-0.4l1.1-1.5C226.4,154.9,226.5,154.9,226.6,154.9z"/>
	<path class="st2" d="M221.4,157.8c0,0.1,0,0.2-0.1,0.3c-0.1,0.1-0.3,0.2-0.4,0l-1.5-1.1c-0.1-0.1-0.2-0.3,0-0.4
		c0.1-0.1,0.3-0.2,0.4,0l1.5,1.1C221.3,157.5,221.3,157.6,221.4,157.8z"/>
	<path class="st8" d="M230.5,145.7c0,0.1-0.1,0.1-0.1,0.3c0.1,0.2,0.2,0.3,0.4,0.2l1.8-0.4c0.2-0.1,0.3-0.2,0.2-0.4
		c-0.1-0.2-0.2-0.3-0.3-0.2l-1.7,0.4C230.6,145.5,230.5,145.6,230.5,145.7z"/>
	<path class="st2" d="M229.8,151c0-0.1,0.1-0.1,0.2-0.2c0.2-0.1,0.4,0,0.3,0.2l0.4,1.8c0.1,0.2,0,0.4-0.2,0.4
		c-0.2,0.1-0.4,0-0.3-0.2l-0.4-1.8C229.8,151.2,229.7,151.1,229.8,151z"/>
	<path class="st2" d="M236.1,141.9c0.1,0,0.2,0,0.3,0.1c0.1,0.1,0.2,0.3,0,0.4l-1.1,1.5c-0.1,0.1-0.3,0.2-0.4,0
		c-0.1-0.1-0.2-0.3,0-0.4l1.1-1.5C236,142,236.1,141.9,236.1,141.9z"/>
	<path class="st9" d="M235.1,136.9c0,0.1,0,0.2-0.1,0.3c-0.1,0.1-0.3,0.2-0.4,0l-1.5-1c-0.1-0.1-0.2-0.3,0-0.4
		c0.1-0.1,0.3-0.2,0.4,0l1.5,1.1C235.1,136.8,235.1,136.9,235.1,136.9z"/>
	<path class="st8" d="M230.9,131.8c0,0.1-0.1,0.1-0.1,0.3c0.1,0.2,0.2,0.3,0.3,0.2l1.8-0.4c0.2-0.1,0.3-0.2,0.2-0.4
		c-0.1-0.2-0.2-0.3-0.4-0.2l-1.8,0.4C231,131.7,230.9,131.7,230.9,131.8z"/>
	<path class="st5" d="M229.3,128.8l0.7,0.4l1.4-2.3l-0.7-0.4c-1.1-0.7-2-1.6-2.8-2.6c-0.2-0.2-0.5-0.5-0.9-0.6
		c-0.9-0.4-1.9-0.1-2.6,0.6c-0.8,1-0.5,2.6,0.6,3.2c0.3,0.2,0.6,0.3,0.9,0.3C227,127.6,228.2,128.1,229.3,128.8z"/>
	<path class="st5" d="M227.2,132.1l0.8,0.5l1-1.7l-0.8-0.5c-0.7-0.4-1.3-1.1-1.8-1.7c-0.2-0.2-0.4-0.4-0.7-0.5
		c-0.6-0.3-1.4-0.1-1.8,0.5c-0.6,0.8-0.4,1.9,0.4,2.3c0.2,0.1,0.4,0.1,0.6,0.2C225.7,131.4,226.5,131.7,227.2,132.1z"/>
	<path class="st5" d="M212.2,158.4l0.5,0.3l0.7-1.1l-0.5-0.3c-0.5-0.3-0.9-0.7-1.3-1.2c-0.1-0.2-0.3-0.3-0.4-0.4
		c-0.5-0.2-0.9,0-1.3,0.4c-0.4,0.5-0.3,1.3,0.3,1.6c0.1,0.1,0.3,0.2,0.4,0.1C211.1,158,211.7,158.1,212.2,158.4z"/>
	<path class="st5" d="M212.4,155.8l0.7,0.4l1-1.6l-0.7-0.4c-0.7-0.4-1.3-1.1-1.8-1.6c-0.2-0.2-0.4-0.4-0.7-0.5
		c-0.6-0.3-1.4-0.1-1.8,0.4c-0.6,0.8-0.3,1.8,0.4,2.3c0.2,0.1,0.4,0.1,0.6,0.2C211,155.1,211.7,155.4,212.4,155.8z"/>
</g>
</svg>
