<?xml version="1.0" encoding="utf-8"?>
<!-- Generator: Adobe Illustrator 27.8.0, SVG Export Plug-In . SVG Version: 6.00 Build 0)  -->
<svg version="1.1" id="Layer_1" xmlns="http://www.w3.org/2000/svg" xmlns:xlink="http://www.w3.org/1999/xlink" x="0px" y="0px"
	 viewBox="0 0 301 240" style="enable-background:new 0 0 301 240;" xml:space="preserve">
<style type="text/css">
	.st0{fill-rule:evenodd;clip-rule:evenodd;fill:#8E9AEF;fill-opacity:0.12;}
	.st1{fill:#8E9AEF;}
	.st2{fill-rule:evenodd;clip-rule:evenodd;fill:#FFFFFF;}
	.st3{fill:none;stroke:#8E9AEF;stroke-width:2.5;}
	.st4{fill-rule:evenodd;clip-rule:evenodd;fill:#FFFFFF;stroke:#8E9AEF;stroke-width:2.5;}
	.st5{fill:none;stroke:#8E9AEF;stroke-width:2.5;stroke-linecap:round;}
</style>
<path class="st0" d="M76.1,160.8h109.2c0.6,0,1.2-0.1,1.8-0.2c0.6,0.1,1.2,0.2,1.8,0.2h62.4c4.6,0,8.4-3.8,8.4-8.4
	c0-4.6-3.8-8.4-8.4-8.4h-7.2c-4.6,0-8.4-3.8-8.4-8.4c0-4.6,3.8-8.4,8.4-8.4h22.8c4.6,0,8.4-3.8,8.4-8.4s-3.8-8.4-8.4-8.4h-26.4
	c4.6,0,8.4-3.8,8.4-8.4c0-4.6-3.8-8.4-8.4-8.4h-76.8c4.6,0,8.4-3.8,8.4-8.4c0-4.6-3.8-8.4-8.4-8.4H95.3c-4.6,0-8.4,3.8-8.4,8.4
	c0,4.6,3.8,8.4,8.4,8.4h-48c-4.6,0-8.4,3.8-8.4,8.4c0,4.6,3.8,8.4,8.4,8.4h30c4.6,0,8.4,3.8,8.4,8.4s-3.8,8.4-8.4,8.4h-48
	c-4.6,0-8.4,3.8-8.4,8.4c0,4.6,3.8,8.4,8.4,8.4h46.8c-4.6,0-8.4,3.8-8.4,8.4C67.7,157,71.5,160.8,76.1,160.8z M280.1,152.4
	c0,4.6-3.8,8.4-8.4,8.4c-4.6,0-8.4-3.8-8.4-8.4c0-4.6,3.8-8.4,8.4-8.4C276.3,144,280.1,147.8,280.1,152.4z"/>
<path class="st0" d="M113.7,79.2h80.4L186.9,90l9.6,7.2h-85.2l10.8-7.2L113.7,79.2z"/>
<path class="st1" d="M65.1,172.1c-1.4,0-2.5,1.1-2.5,2.5h2.5V172.1z M73.3,172.1h-8.2v2.5h8.2V172.1z M75.8,174.6
	c0-1.4-1.1-2.5-2.5-2.5v2.5H75.8z M73.3,177.1c1.4,0,2.5-1.1,2.5-2.5h-2.5V177.1z M65.1,177.1h8.2v-2.5h-8.2V177.1z M62.6,174.6
	c0,1.4,1.1,2.5,2.5,2.5v-2.5H62.6z M80.5,172.1c-1.4,0-2.5,1.1-2.5,2.5h2.5V172.1z M106.2,172.1H80.5v2.5h25.7V172.1z M108.7,174.6
	c0-1.4-1.1-2.5-2.5-2.5v2.5H108.7z M106.2,177.1c1.4,0,2.5-1.1,2.5-2.5h-2.5V177.1z M80.5,177.1h25.7v-2.5H80.5V177.1z M78,174.6
	c0,1.4,1.1,2.5,2.5,2.5v-2.5H78z M204.1,172.1c-1.4,0-2.5,1.1-2.5,2.5h2.5V172.1z M231,172.1h-26.9v2.5H231V172.1z M233.5,174.6
	c0-1.4-1.1-2.5-2.5-2.5v2.5H233.5z M231,177.1c1.4,0,2.5-1.1,2.5-2.5H231V177.1z M204.1,177.1H231v-2.5h-26.9V177.1z M201.6,174.6
	c0,1.4,1.1,2.5,2.5,2.5v-2.5H201.6z M236.7,172.1c-1.4,0-2.5,1.1-2.5,2.5h2.5V172.1z M240.1,172.1h-3.4v2.5h3.4V172.1z M242.6,174.6
	c0-1.4-1.1-2.5-2.5-2.5v2.5H242.6z M240.1,177.1c1.4,0,2.5-1.1,2.5-2.5h-2.5V177.1z M236.7,177.1h3.4v-2.5h-3.4V177.1z M234.2,174.6
	c0,1.4,1.1,2.5,2.5,2.5v-2.5H234.2z"/>
<path class="st2" d="M110.1,147.9V99.6c0-2,1.6-3.6,3.6-3.6h83.4c1.3,0,2.4,1.1,2.4,2.4V186c0,2.7-2.1,4.8-4.7,4.8h-79.9
	c-2.6,0-4.7-2.1-4.7-4.8v-17.9v-4.9 M110.1,158.3v-5.4V158.3z"/>
<path class="st1" d="M108.9,147.9c0,0.7,0.6,1.2,1.2,1.2c0.7,0,1.2-0.6,1.2-1.2H108.9z M111.4,163.2c0-0.7-0.6-1.2-1.2-1.2
	c-0.7,0-1.2,0.6-1.2,1.2H111.4z M108.9,158.3c0,0.7,0.6,1.2,1.2,1.2c0.7,0,1.2-0.6,1.2-1.2H108.9z M111.4,152.9
	c0-0.7-0.6-1.2-1.2-1.2c-0.7,0-1.2,0.6-1.2,1.2H111.4z M111.4,147.9V99.6h-2.5v48.3H111.4z M111.4,99.6c0-1.3,1.1-2.3,2.4-2.3v-2.5
	c-2.7,0-4.9,2.2-4.9,4.8H111.4z M113.8,97.2h83.4v-2.5h-83.4V97.2z M197.1,97.2c0.6,0,1.1,0.5,1.1,1.2h2.5c0-2-1.6-3.7-3.6-3.7V97.2
	z M198.2,98.4V186h2.5V98.4H198.2z M198.2,186c0,2-1.6,3.6-3.5,3.6v2.5c3.3,0,6-2.7,6-6.1H198.2z M194.8,189.6h-79.9v2.5h79.9V189.6
	z M114.9,189.6c-1.9,0-3.5-1.6-3.5-3.6h-2.5c0,3.3,2.7,6.1,6,6.1V189.6z M111.4,186v-17.9h-2.5V186H111.4z M111.4,168.1v-4.9h-2.5
	v4.9H111.4z M111.4,158.3v-5.4h-2.5v5.4H111.4z"/>
<path class="st2" d="M112.5,96V81.6c0-1.3,1-2.4,2.2-2.4h79.7c1.2,0,2.2,1.1,2.2,2.4V96"/>
<path class="st3" d="M112.5,96V81.6c0-1.3,1-2.4,2.2-2.4h79.7c1.2,0,2.2,1.1,2.2,2.4V96"/>
<path class="st4" d="M134.7,121.2c2.3,0,4.2-1.9,4.2-4.2s-1.9-4.2-4.2-4.2c-2.3,0-4.2,1.9-4.2,4.2S132.4,121.2,134.7,121.2z"/>
<path class="st4" d="M174.3,121.2c2.3,0,4.2-1.9,4.2-4.2s-1.9-4.2-4.2-4.2c-2.3,0-4.2,1.9-4.2,4.2S172,121.2,174.3,121.2z"/>
<path class="st5" d="M173.7,121.2c0,10.6-8.6,19.2-19.2,19.2s-19.2-8.6-19.2-19.2"/>
<path class="st5" d="M113.8,80.4l8.7,8.6c0.5,0.5,0.4,1.3-0.2,1.6l-9.8,5.4"/>
<path class="st5" d="M195.4,80.5l-8.3,8.5c-0.5,0.5-0.3,1.3,0.2,1.6l9.9,5.4"/>
<path class="st1" d="M184.9,48.7l-0.9-0.8l0,0L184.9,48.7z M171.6,63.7l-0.9-0.8l0,0L171.6,63.7z M171.7,65.4l-0.8,0.9l0,0
	L171.7,65.4z M173.4,65.3l-0.9-0.8l0,0L173.4,65.3z M186.8,50.4l0.9,0.8l0,0L186.8,50.4z M122.5,48.6l-0.8-0.9l0,0L122.5,48.6z
	 M124.2,48.7l0.9-0.8l0,0L124.2,48.7z M122.4,50.4l-0.9,0.8l0,0L122.4,50.4z M135.7,65.3l0.9-0.8l0,0L135.7,65.3z M137.5,65.4
	l0.8,0.9l0,0L137.5,65.4z M137.6,63.7l0.9-0.8l0,0L137.6,63.7z M157,44.4c0-1.4-1.1-2.5-2.5-2.5v2.5H157z M157,64.5V44.4h-2.5v20.1
	H157z M154.5,67c1.4,0,2.5-1.1,2.5-2.5h-2.5V67z M152,64.5c0,1.4,1.1,2.5,2.5,2.5v-2.5l0,0H152z M152,44.4v20.1h2.5V44.4H152z
	 M154.5,41.9c-1.4,0-2.5,1.1-2.5,2.5h2.5l0,0V41.9z M185.8,49.6L185.8,49.6l1.7-1.9c-1-0.9-2.6-0.8-3.5,0.2L185.8,49.6z M172.5,64.5
	l13.3-14.9l-1.9-1.7l-13.3,14.9L172.5,64.5z M172.5,64.5L172.5,64.5l-1.9-1.7c-0.9,1-0.8,2.6,0.2,3.5L172.5,64.5z M172.5,64.5
	L172.5,64.5l-1.7,1.9c1,0.9,2.6,0.8,3.5-0.2L172.5,64.5z M185.8,49.6l-13.3,14.9l1.9,1.7l13.3-14.9L185.8,49.6z M185.8,49.6
	L185.8,49.6l1.9,1.7c0.9-1,0.8-2.6-0.2-3.5L185.8,49.6z M123.3,49.6L123.3,49.6l1.9-1.7c-0.9-1-2.5-1.1-3.5-0.2L123.3,49.6z
	 M123.3,49.6L123.3,49.6l-1.7-1.9c-1,0.9-1.1,2.5-0.2,3.5L123.3,49.6z M136.6,64.5l-13.3-14.9l-1.9,1.7l13.3,14.9L136.6,64.5z
	 M136.6,64.5L136.6,64.5l-1.9,1.7c0.9,1,2.5,1.1,3.5,0.2L136.6,64.5z M136.6,64.5L136.6,64.5l1.7,1.9c1-0.9,1.1-2.5,0.2-3.5
	L136.6,64.5z M123.3,49.6l13.3,14.9l1.9-1.7l-13.3-14.9L123.3,49.6z"/>
</svg>
