<?xml version="1.0" encoding="utf-8"?>
<!-- Generator: Adobe Illustrator 27.8.0, SVG Export Plug-In . SVG Version: 6.00 Build 0)  -->
<svg version="1.1" id="Layer_1" xmlns="http://www.w3.org/2000/svg" xmlns:xlink="http://www.w3.org/1999/xlink" x="0px" y="0px"
	 viewBox="0 0 137 151" style="enable-background:new 0 0 137 151;" xml:space="preserve">
<style type="text/css">
	.st0{fill:#ECECEC;}
	.st1{fill:#FFB6B6;}
	.st2{fill:#160731;}
	.st3{fill:#FFFFFF;}
	.st4{fill:#FAFAFA;}
	.st5{opacity:0.2;fill:#ECECEC;enable-background:new    ;}
	.st6{fill:#E9ECFF;}
</style>
<path class="st0" d="M96,147.9L62.6,87.6c0-0.1-0.1-0.3-0.1-0.4c-0.1-0.1-0.2-0.2-0.3-0.3c-0.1-0.1-0.3-0.1-0.5-0.1c0,0,0,0,0,0
	c0,0,0,0,0,0c-0.2,0-0.5,0.1-0.6,0.2c-0.2,0.2-0.3,0.4-0.3,0.6l-35.4,60.2c-0.1,0.1-0.1,0.2-0.1,0.3c0,0.1,0,0.2,0,0.3
	c0,0.1,0.1,0.2,0.2,0.3c0.1,0.1,0.2,0.2,0.3,0.2c0.1,0.1,0.2,0.1,0.3,0.1c0.1,0,0.2,0,0.3,0c0.1,0,0.2-0.1,0.3-0.2
	c0.1-0.1,0.2-0.2,0.2-0.3l34.8-59.2l32.8,59.2c0.1,0.1,0.1,0.2,0.2,0.3c0.1,0.1,0.2,0.1,0.3,0.2c0.1,0,0.2,0,0.3,0
	c0.1,0,0.2-0.1,0.3-0.1c0.1-0.1,0.2-0.1,0.3-0.2c0.1-0.1,0.1-0.2,0.2-0.3c0-0.1,0-0.2,0-0.3C96.1,148.1,96,148,96,147.9z"/>
<path class="st1" d="M56.1,137.5l3.8-0.9l-1.5-15l-5.6,1.3L56.1,137.5z"/>
<path class="st2" d="M59,130.3l-5.4,1.2l-1.7-3.4l-0.1-0.1c-0.8-0.9-1.2-2.1-1.2-3.3l-4.5-11.8l-0.4-0.2c-0.3-0.1-0.5-0.3-0.7-0.6
	s-0.4-0.5-0.4-0.8c-0.1-0.3-0.1-0.6-0.1-0.9c0-0.3,0.2-0.6,0.3-0.9l-0.5-1.2l-13.3,0l0,0l-16.4-4.6l1.7-10.3l4.6,2.9
	c1.5-0.1,27.5-1.7,29.9,4.1c2.1,5.2,5.2,14.1,7.4,20.6c0.1,0.3,0.2,0.6,0.4,0.8c0.3,0.5,0.5,1.1,0.6,1.8c0,0.3,0.1,0.5,0.2,0.8
	C60.4,127.3,59,130.2,59,130.3L59,130.3z"/>
<path class="st0" d="M54.8,136.3L56,136l4.3-3l3,1.4h0c1.5-0.3,3-0.1,4.2,0.7c1.3,0.8,2.2,2.1,2.5,3.5l0,0.2l-14.1,3.2L54.8,136.3z"
	/>
<path class="st3" d="M0,141.7c0.3-2.9,1.9-5.7,4.6-6.7c-1,3-0.9,6.2,0.3,9.1c0.5,1.1,1.1,2.3,0.7,3.5c-0.2,0.7-0.8,1.3-1.5,1.6
	c-0.7,0.4-1.4,0.5-2.1,0.7L2,150C0.7,147.4-0.2,144.6,0,141.7z"/>
<path class="st3" d="M13.1,139.8c0,0-0.1,0.1-0.1,0.1c-0.6,0.4-1.1,0.8-1.6,1.3c0,0-0.1,0.1-0.1,0.1c-1.2,1.2-2.1,2.5-2.8,4.1
	c-0.3,0.6-0.5,1.2-0.7,1.9c-0.2,0.9-0.4,1.8-0.9,2.6c-0.1,0.1-0.1,0.1-0.2,0.2l-4.7,0.1c0,0,0,0,0,0l-0.2,0c0,0,0-0.1,0-0.1
	c0,0,0,0,0-0.1c0,0,0,0,0,0c0,0,0,0,0,0c0,0,0,0,0,0c0-0.2,0.1-0.4,0.1-0.6c0,0,0,0,0,0c0.3-1.5,0.8-2.9,1.5-4.3c0,0,0-0.1,0.1-0.1
	c0.3-0.6,0.7-1.2,1.1-1.7c0.2-0.3,0.5-0.6,0.7-0.9c0.6-0.7,1.4-1.3,2.2-1.8c1.6-0.9,3.6-1.3,5.4-0.9C13,139.8,13.1,139.8,13.1,139.8
	z"/>
<path class="st3" d="M95.5,135.1c-0.1,0.2-0.3,0.4-0.5,0.5c-0.2,0.1-0.4,0.2-0.7,0.2c-0.1,0-0.1,0.2,0,0.2c0.3,0,0.5-0.1,0.7-0.2
	c0.2-0.1,0.4-0.3,0.5-0.5c0,0,0,0,0-0.1c0,0,0,0,0-0.1C95.6,135.1,95.5,135.1,95.5,135.1C95.5,135.1,95.5,135.1,95.5,135.1
	L95.5,135.1z"/>
<path class="st3" d="M94.4,57.5c0.5,0,0.9-0.4,0.9-0.9s-0.4-0.9-0.9-0.9c-0.5,0-0.9,0.4-0.9,0.9S93.9,57.5,94.4,57.5z"/>
<path class="st3" d="M83.2,63.5l12.1-7.6c0.1-0.1,0.2-0.1,0.4-0.1c0.1,0,0.3,0,0.4,0c0.1,0,0.2,0.1,0.3,0.2c0.1,0.1,0.2,0.2,0.3,0.3
	c0.1,0.1,0.1,0.2,0.1,0.4c0,0.1,0,0.3,0,0.4c0,0.1-0.1,0.2-0.2,0.3c-0.1,0.1-0.2,0.2-0.3,0.2L83.5,64c-0.1,0-0.2,0-0.2,0
	c-0.1,0-0.1-0.1-0.2-0.1c0-0.1-0.1-0.2,0-0.2C83.1,63.6,83.1,63.5,83.2,63.5L83.2,63.5z"/>
<path class="st3" d="M58.9,79.8c-0.1-0.1-0.1-0.3-0.1-0.5c0-0.2,0.1-0.3,0.2-0.5c0.2-0.3,0.5-0.5,0.8-0.6c0.6-0.3,1.3-0.5,2.1-0.7
	c0.5-0.1,1.1-0.1,1.6-0.5c0.4-0.4,0.7-1,1.2-1.1c0.5-0.1,0.9,0.5,1.5,0.6c0.7,0,1.1-0.7,1.7-0.9c0.4-0.1,0.9,0.1,1.3,0.3l2.4,1.1
	l1.2,0.6c0.4,0.2,0.9,0.5,1,0.9c0.1,0.6-0.6,1.1-1.2,1.3C68.1,81.5,63.3,81.5,58.9,79.8"/>
<path class="st0" d="M62.5,91.6c17.4,0,31.4-2,31.4-4.5c0-2.5-14.1-4.5-31.4-4.5c-17.4,0-31.4,2-31.4,4.5
	C31.1,89.6,45.2,91.6,62.5,91.6z"/>
<path class="st3" d="M126.2,114.9h-21.5c-1,0-1.8,0.8-1.8,1.8c0,1,0.8,1.8,1.8,1.8h21.5c1,0,1.8-0.8,1.8-1.8
	C128,115.7,127.2,114.9,126.2,114.9z"/>
<path class="st3" d="M136.7,82.9l-7.1,33.8l1.9,8.7l3.5,16.3v7.3c0,0,0,0,0,0c0,0.2,0,0.3-0.1,0.5H132c-0.1-0.2-0.1-0.3-0.1-0.5
	c0,0,0,0,0,0v-7l-3.2-14.8l-0.6-3l-1.2-5.8l-0.4-1.7v0l0.4-1.7l0.3-1.3l6.6-31.4c0-0.2,0.1-0.4,0.2-0.5c0.1-0.2,0.3-0.3,0.4-0.4
	c0.2-0.1,0.3-0.2,0.5-0.2c0.2,0,0.4,0,0.6,0c0.2,0,0.4,0.1,0.5,0.2c0.2,0.1,0.3,0.3,0.4,0.4c0.1,0.2,0.2,0.3,0.2,0.5
	C136.7,82.5,136.7,82.7,136.7,82.9L136.7,82.9z"/>
<path class="st3" d="M110,116.5v32.3c0,0,0,0,0,0c0,0.2,0,0.3-0.1,0.5h-2.8c-0.1-0.2-0.1-0.3-0.1-0.5c0,0,0,0,0,0v-32.3
	c0-0.4,0.2-0.8,0.4-1.1c0.3-0.3,0.7-0.4,1.1-0.4c0.4,0,0.8,0.2,1.1,0.4C109.8,115.7,110,116.1,110,116.5z"/>
<path class="st3" d="M108.3,111.3h14.4c1.4,0,2.8,0.6,3.8,1.6c1,1,1.6,2.4,1.6,3.8h-25.1c0-1.4,0.6-2.8,1.6-3.8
	C105.5,111.9,106.9,111.3,108.3,111.3z"/>
<path class="st3" d="M129.8,127.2h-25.1c-0.4,0-0.8-0.2-1.1-0.4c-0.3-0.3-0.4-0.7-0.4-1.1c0-0.4,0.2-0.8,0.4-1.1
	c0.3-0.3,0.7-0.4,1.1-0.4h25.1c0.4,0,0.8,0.2,1.1,0.4c0.3,0.3,0.4,0.7,0.4,1.1c0,0.4-0.2,0.8-0.4,1.1
	C130.6,127,130.2,127.2,129.8,127.2z"/>
<path class="st3" d="M12.9,118.6h25.4c1,0,1.8-0.8,1.8-1.8v-0.5c0-1-0.8-1.8-1.8-1.8H12.9c-1,0-1.8,0.8-1.8,1.8v0.5
	C11.1,117.8,11.9,118.6,12.9,118.6z"/>
<path class="st3" d="M12.7,116.5l-0.5,1.9l-1.7,6.9l-0.7,3l-3.4,13.9v6c0,0.3-0.1,0.6-0.3,0.8c-0.1,0.2-0.3,0.4-0.5,0.5H4.2
	c-0.2-0.1-0.4-0.3-0.5-0.5c-0.2-0.2-0.3-0.5-0.3-0.8v-6.4l3.7-15.4l2.4-10l-8.2-39c0-0.2,0-0.4,0-0.6c0-0.2,0.1-0.4,0.2-0.5
	C1.7,76.2,1.8,76.1,2,76c0.2-0.1,0.3-0.2,0.5-0.2c0.2,0,0.4,0,0.6,0c0.2,0,0.4,0.1,0.5,0.2c0.2,0.1,0.3,0.2,0.4,0.4
	c0.1,0.2,0.2,0.3,0.2,0.5l7.6,36l0.3,1.7L12.7,116.5L12.7,116.5z"/>
<path class="st3" d="M39.5,116.5v31.7c0,0.3-0.1,0.6-0.3,0.8c-0.1,0.2-0.3,0.4-0.5,0.5h-1.5c-0.2-0.1-0.4-0.3-0.5-0.5
	c-0.2-0.2-0.3-0.5-0.3-0.8v-31.7c0-0.4,0.2-0.8,0.4-1.1s0.7-0.4,1.1-0.4c0.4,0,0.8,0.2,1.1,0.4C39.3,115.7,39.5,116.1,39.5,116.5z"
	/>
<path class="st3" d="M40.1,116.5H11.1v-0.8c0-0.7,0.1-1.4,0.4-2.1c0.3-0.7,0.7-1.2,1.2-1.7c0.5-0.5,1.1-0.9,1.7-1.2
	c0.7-0.3,1.4-0.4,2.1-0.4h18.2c1.4,0,2.8,0.6,3.8,1.6c1,1,1.6,2.4,1.6,3.8V116.5L40.1,116.5z"/>
<path class="st3" d="M38,128.3H9.1c-0.4,0-0.8-0.2-1.1-0.4c-0.3-0.3-0.4-0.7-0.4-1.1c0-0.4,0.2-0.8,0.4-1.1c0.3-0.3,0.7-0.4,1.1-0.4
	H38c0.4,0,0.8,0.2,1.1,0.4c0.3,0.3,0.4,0.7,0.4,1.1c0,0.4-0.2,0.8-0.4,1.1C38.8,128.2,38.4,128.3,38,128.3z"/>
<path class="st1" d="M75.2,141.4l-3.1-1.5l4.3-13.1l4.6,2.2L75.2,141.4z"/>
<path class="st1" d="M96.5,140.2l-3.4,0.8l-4.9-12.9l5-1.2L96.5,140.2z"/>
<path class="st1" d="M83.6,84.2c0.4,0.7,1.2,1.3,2,1.5c0.8,0.2,1.7,0.1,2.4-0.3c0.1-0.1,0.3-0.2,0.4-0.3l9.9,5.7l-0.4-5.9l-9.4-4.5
	c-0.5-0.5-1.2-0.8-1.9-0.9c-0.7-0.1-1.4,0.1-2.1,0.4c-0.4,0.2-0.7,0.5-0.9,0.8c-0.2,0.3-0.4,0.7-0.5,1.1c-0.1,0.4-0.1,0.8,0,1.2
	C83.2,83.5,83.3,83.9,83.6,84.2z"/>
<path class="st4" d="M94.1,88.6l1.8,1.1l7.9,4.8c0.5,0.3,1.1,0.5,1.7,0.6c0.6,0.1,1.2,0.1,1.8-0.1c0.6-0.1,1.2-0.4,1.7-0.7
	c0.5-0.4,0.9-0.8,1.2-1.3c0.6-1,0.8-2.1,0.6-3.2l-3.5-17.5c-0.1-0.7-0.4-1.3-0.8-1.9c-0.4-0.6-0.9-1-1.5-1.4c-0.6-0.4-1.3-0.6-2-0.6
	c-0.7-0.1-1.4,0-2.1,0.3c-1.1,0.4-2,1.2-2.6,2.2c-0.5,1-0.7,2.3-0.3,3.4l3.7,12.4L96,84L94.1,88.6z"/>
<path class="st2" d="M89.9,136.6l-5.4-10.9l0,0l0.5-19.9c0-0.2,0-0.4,0-0.5c0.1-0.8,0.3-1.6,0.7-2.3c0.4-0.7,0.9-1.3,1.6-1.8
	c0.6-0.5,1.3-0.8,2.1-1c0.7-0.2,1.5-0.3,2.3-0.2l15.5,2l0.5-2.2l0.1,0l14.8-5.4l0.1,0.1c1.9,3.2,3.3,9.5,3.7,11.3l0,0
	c0,0,0,0.1,0,0.1c0.8,3.2-2.4,8.4-5.5,9.2c-6.6,1.7-12.5,0.4-19.4-1.2c-2.5-0.5-5-1.1-7.8-1.6l0.1,1.6c0.1,1.3,0.3,2.5,0.8,3.7
	c0.5,1.5,0.9,2.6,0.1,5l-0.4,1.2c0.2,0.6,0.3,1.2,0.2,1.8c-0.1,0.6-0.3,1.2-0.6,1.7l-0.1,0.1l3.6,9L89.9,136.6z"/>
<path class="st2" d="M81,131.8l-6.5-0.6l2.3-7.3c0.5-4.8,1.7-9.4,3.5-13.9l3.1-7.4c0-0.2,0-0.3,0-0.5c0.1-0.8,0.3-1.6,0.7-2.3
	c0.4-0.7,0.9-1.3,1.6-1.8c0.6-0.5,1.3-0.8,2.1-1c0.7-0.2,1.5-0.3,2.3-0.2l15.5,2l0.7-5.6l14.8-2l0.1,0.1c2.6,4.2,4.2,7.5,5.2,10.4
	c0,0.1,0.1,0.3,0.1,0.4c0.8,3.2-1.2,6.4-4.3,7.2c-8,2-17.5,2-30.1-0.2L86,123.7c-0.6,1.4-1.3,2.7-2.2,3.9L81,131.8z"/>
<path class="st1" d="M103.5,58.5c4.1,0,7.5-3.4,7.5-7.6c0-4.2-3.3-7.6-7.5-7.6c-4.1,0-7.5,3.4-7.5,7.6
	C96.1,55.1,99.4,58.5,103.5,58.5z"/>
<path class="st3" d="M105.7,99.1l-1.1-3.8l-0.3-1.9l-1.5,0.1l-3-7l-1.2-1.8c-0.2-0.3-0.5-0.5-0.7-0.7c-1.2-1.4-2.2-3-2.9-4.7
	c-0.5-1.2-0.8-2.5-0.9-3.9c-0.2-3.9,1.4-8,5-12.6c-0.1-0.2-0.1-0.3-0.1-0.5c-0.1-0.6,0.1-1.1,0.4-1.6c0.3-0.4,0.9-0.7,1.4-0.8
	l3.5-0.4c0.3,0,0.5,0,0.8,0.1c0.3,0.1,0.5,0.2,0.7,0.4c0.2,0.2,0.4,0.4,0.5,0.6c0.1,0.2,0.2,0.5,0.2,0.8c0,0.4,0,0.9-0.2,1.3
	c1.8,0.2,3.4,1,4.8,2.1c1.4,1.1,2.4,2.7,2.9,4.4c2.1,3.9,3.7,8,4.9,12.2c0.2,0.8,0.1,1.7,0,2.5c-0.1,0.8-0.2,1.6,0,2.3
	c0.2,0.8,0.6,1.6,1,2.5c0.5,1,1,2,1.1,3l0,0.1L105.7,99.1z"/>
<path class="st5" d="M95.2,79.2c0.7,1.7,1.7,3.3,2.9,4.6c0.2,0.2,0.4,0.5,0.7,0.7l1.2,1.9c4.4-3.3,7.9-16.1,7.9-16.1l-4.9-1
	L95.2,79.2z"/>
<path class="st1" d="M92.2,59.2c0.4,0.7,0.6,1.6,0.3,2.4c-0.2,0.8-0.7,1.5-1.5,2c-0.1,0.1-0.3,0.2-0.5,0.2L91,75.4l-5-3.1l0.4-10.4
	c-0.2-0.7-0.2-1.4,0.1-2.1c0.3-0.7,0.7-1.3,1.3-1.6c0.4-0.2,0.8-0.4,1.2-0.4c0.4-0.1,0.8,0,1.2,0.1c0.4,0.1,0.8,0.3,1.1,0.5
	C91.7,58.6,92,58.9,92.2,59.2z"/>
<path class="st4" d="M91.4,71l-5.5,0.8l0.2,11.3c0,0.8,0.2,1.6,0.6,2.3c0.4,0.7,1,1.3,1.7,1.7c0.8,0.5,1.8,0.7,2.8,0.6
	c1-0.1,1.9-0.5,2.6-1.2l12.9-12.4c0.9-0.9,1.4-2,1.5-3.3c0.1-1.2-0.3-2.5-1.2-3.4c-0.4-0.5-0.9-0.9-1.4-1.1
	c-0.6-0.3-1.2-0.4-1.8-0.5c-0.6,0-1.2,0-1.8,0.2c-0.6,0.2-1.1,0.5-1.6,0.9c-0.1,0.1-0.2,0.2-0.4,0.4l-8.5,9.8L91.4,71z"/>
<path class="st1" d="M45.8,144.7h3.9l1.8-14.9h-5.7L45.8,144.7z"/>
<path class="st1" d="M23.8,58.7c4.3,0,7.7-3.5,7.7-7.7s-3.5-7.7-7.7-7.7s-7.7,3.5-7.7,7.7S19.5,58.7,23.8,58.7z"/>
<path class="st2" d="M50.9,140.1h-5.5l-1.4-1.9l-0.4-1.8l-0.3-0.3c-0.4-0.4-0.7-1-0.8-1.6c-0.1-0.6,0-1.2,0.4-1.8l-4-18.5
	c-1-0.1-12.8-1.1-20.9-2.6c-2.1-0.4-3.7-1.4-4.8-3c-2.8-4-1.6-10.5-1.6-10.6l0-0.1l0.1,0l19.1-2.1l0,0c0.6,0.3,15.5,7.4,18,9.8
	c1.1,1.1,3.5,7.6,4.1,14.6c0.1,1.2-0.3,2.5-0.6,3.7c-0.3,1.1-0.7,2.3-0.6,3.4c0.1,1.7,0.2,3.5,0.3,5.4c0,0.3,0.2,0.6,0.5,0.9
	c0.2,0.3,0.4,0.6,0.4,0.9C52.9,137.6,50.9,140.1,50.9,140.1L50.9,140.1z"/>
<path class="st1" d="M52.1,71.6c-0.4-0.1-0.9-0.1-1.3-0.1c-0.4,0.1-0.8,0.2-1.2,0.5c-0.4,0.2-0.6,0.6-0.9,0.9
	c-0.2,0.4-0.3,0.8-0.4,1.2l-6.4,2l0.3,4.2l9-3c0.7,0,1.4-0.2,2-0.7c0.6-0.5,0.9-1.1,1-1.8c0.1-0.7-0.1-1.4-0.5-2.1
	C53.4,72.2,52.8,71.8,52.1,71.6L52.1,71.6z"/>
<path class="st4" d="M47.9,78.6l-4.8,1.8L43,80.6c-0.3,0.6-0.8,1-1.4,1.2c-0.6,0.2-1.3,0.1-1.8-0.2L29,85.7c0,0-4.8-4.8-8.2-9.1
	l1.2-7.2c0.3-1.7,0.8-3.3,1.7-4.7c7,1.5,11.1,11.4,11.1,11.4l12.7-2.4L47.9,78.6z"/>
<path class="st2" d="M22.7,58.3c-1.9,0.5-4.1-0.2-5.6-1.5c-1.5-1.3-2.5-3.2-3-5.1c-0.4-1.4-0.6-3,0-4.3c0.6-1.3,2.3-2.2,3.6-1.6
	c-0.8-0.9-0.4-2.5,0.5-3.3c0.9-0.8,2.2-1,3.5-1.2c1.8-0.2,3.6-0.2,5.3,0.4c1.7,0.6,3.2,1.8,3.8,3.6c0.5,0.3,1.2,0.3,1.7,0.2
	c0.6-0.1,1.1-0.5,1.5-0.9c0.1,0.5,0,1.1-0.2,1.6c-0.2,0.5-0.6,0.9-1.1,1.1l2.6-0.8c0.4,0.9-0.3,2.1-1.3,2.4c-1,0.3-2.1,0-3-0.5
	c-1-0.4-1.9-1-2.9-1.2c-1-0.2-2.2,0.2-2.7,1.1c-0.3,0.5-0.3,1.1-0.4,1.6c-0.1,0.5-0.5,1.1-1.1,1.1c-0.3,0-0.7-0.2-1-0.1
	c-0.4,0-0.8,0.4-0.9,0.8c-0.1,0.4-0.1,0.9,0,1.3l0.7,5.1"/>
<path class="st3" d="M13.1,109.6C13.1,109.6,13.1,109.6,13.1,109.6L13.1,109.6L13.1,109.6c-0.3-0.8-0.6-1.6-0.9-2.3
	c-0.4-1-0.7-2.1-1-3.1c-0.2-1-0.4-2.1-0.5-3.1c-0.1-0.8-0.2-1.5-0.3-2.3c-0.1-0.3,0.2-0.7,0.4-1c0.2-0.3,0.4-0.6,0.4-0.8
	c0-0.3-0.3-0.6-0.6-0.8c-0.3-0.3-0.6-0.6-0.7-1C9.3,90.6,9,86,9.1,81.4C9.1,75,9.4,70.6,9.9,68.4c1.4-5.9,7.6-7,8.6-7.1
	c0.1-0.3,0.3-0.5,0.5-0.7s0.5-0.4,0.7-0.5c0.3-0.1,0.6-0.2,0.9-0.2c0.3,0,0.6,0.1,0.9,0.2l4.5,2c0.9,0.4,1.7,1,2.4,1.8
	c0.7,0.7,1.2,1.6,1.5,2.6l0.7,2L30.8,82L29,91.6l3.6,5.4C13.4,107.5,13.2,109.6,13.1,109.6z"/>
<path class="st0" d="M43.7,143.2h1.3l4.9-2l2.6,2h0c1.5,0,2.9,0.6,4,1.6c1.1,1.1,1.6,2.5,1.6,4v0.2H43.7L43.7,143.2z"/>
<path class="st1" d="M53.7,81.3c-0.4-0.2-0.8-0.4-1.2-0.4s-0.9,0-1.3,0.2c-0.4,0.1-0.8,0.4-1.1,0.7c-0.3,0.3-0.5,0.7-0.7,1.1
	l-6.7,0.3l-0.9,3.1l9.6,0.5c0.7,0.2,1.4,0.1,2.1-0.2c0.7-0.3,1.2-0.8,1.5-1.5s0.3-1.4,0.1-2.1C54.8,82.2,54.4,81.6,53.7,81.3z"/>
<path class="st4" d="M48.2,87l-6.9-0.1l-0.9,0l-14.1-0.2c0,0-3.8-3.6-7.1-7.4l0.5-3.4c0.5-3.3,2.1-6.3,4.6-8.5
	c4.8,3.2,7.5,9.5,7.5,9.5l4.6,2.1c3.3,0.1,6.4,1.1,9.3,2.7l1.5,0.9L48.2,87z"/>
<path class="st0" d="M99,146.6l-2.3,0.6l-0.9-2.1l-0.5,2.4l-6.1,1.5c-0.3,0.1-0.6,0-0.9-0.1c-0.3-0.1-0.5-0.3-0.7-0.6
	c-0.2-0.3-0.2-0.6-0.2-0.9c0-0.3,0.1-0.6,0.3-0.8l4-4.6l-0.5-2.2l5.2-1L99,146.6z"/>
<path class="st0" d="M74.6,147.3l-2.2-0.9l0.5-2.2l-1.8,1.7l-5.8-2.4c-0.3-0.1-0.5-0.3-0.7-0.6c-0.2-0.3-0.2-0.6-0.2-0.9
	c0-0.3,0.1-0.6,0.3-0.8c0.2-0.2,0.5-0.4,0.8-0.4l6-1.3l0.9-2.1l4.8,2.3L74.6,147.3z"/>
<path class="st2" d="M67,86.3h-1.8c-1.9,0-3.8-0.8-5.1-2.1c-1.4-1.4-2.1-3.2-2.1-5.1v-0.1h16.4V79c0,1.9-0.8,3.8-2.1,5.1
	C70.8,85.5,68.9,86.3,67,86.3z"/>
<path class="st3" d="M65.2,76.3c0,0.5-0.9,0.9-0.9,0.9s-0.9-0.4-0.9-0.9c0-0.5,0.9-0.9,0.9-0.9S65.2,75.8,65.2,76.3z"/>
<path class="st6" d="M70.6,76.3c0,0.5-0.9,0.9-0.9,0.9s-0.9-0.4-0.9-0.9c0-0.5,0.9-0.9,0.9-0.9S70.6,75.8,70.6,76.3z"/>
<path class="st3" d="M67,78.1c0,0.5-0.9,0.9-0.9,0.9s-0.9-0.4-0.9-0.9c0-0.5,0.9-0.9,0.9-0.9S67,77.6,67,78.1z"/>
<path class="st3" d="M60.7,74.4c0.5,0,0.9-0.4,0.9-0.9c0-0.5-0.4-0.9-0.9-0.9s-0.9,0.4-0.9,0.9C59.8,74,60.2,74.4,60.7,74.4z"/>
<path class="st3" d="M47.7,71.6l14.2,2c0.1,0,0.3,0.1,0.4,0.1c0.1,0.1,0.2,0.2,0.3,0.3c0.1,0.1,0.1,0.2,0.2,0.4c0,0.1,0,0.3,0,0.4
	c0,0.1-0.1,0.2-0.1,0.4c-0.1,0.1-0.2,0.2-0.3,0.3c-0.1,0.1-0.2,0.1-0.4,0.1c-0.1,0-0.3,0-0.4,0l-13.9-3.2c-0.1,0-0.1-0.1-0.2-0.1
	s-0.1-0.1,0-0.2c0-0.1,0.1-0.1,0.1-0.2C47.5,71.6,47.6,71.6,47.7,71.6z"/>
<path class="st3" d="M64.9,27V0h-1.8v27c-2.5,0.2-4.7,1.4-6.4,3.2c-1.7,1.8-2.6,4.2-2.6,6.7v2.7h6.3c0,1,0.4,1.9,1.1,2.5
	c0.7,0.7,1.6,1.1,2.5,1.1c1,0,1.9-0.4,2.5-1.1c0.7-0.7,1.1-1.6,1.1-2.5h6.3v-2.7c0-2.5-0.9-4.8-2.6-6.7C69.6,28.3,67.3,27.2,64.9,27
	z"/>
<path class="st3" d="M88,20.2V0h-1.3v20.2c-1.8,0.2-3.6,1-4.8,2.4c-1.2,1.4-1.9,3.1-1.9,5v2h4.7c0,0.7,0.3,1.4,0.8,1.9
	c0.5,0.5,1.2,0.8,1.9,0.8s1.4-0.3,1.9-0.8c0.5-0.5,0.8-1.2,0.8-1.9h4.7v-2c0-1.8-0.7-3.6-1.9-5C91.5,21.2,89.8,20.4,88,20.2z"/>
<path class="st3" d="M42.5,20.2V0h-1.3v20.2c-1.8,0.2-3.6,1-4.8,2.4c-1.2,1.4-1.9,3.1-1.9,5v2h4.7c0,0.7,0.3,1.4,0.8,1.9
	s1.2,0.8,1.9,0.8c0.7,0,1.4-0.3,1.9-0.8s0.8-1.2,0.8-1.9h4.7v-2c0-1.8-0.7-3.6-1.9-5C46,21.2,44.3,20.4,42.5,20.2z"/>
<path class="st2" d="M123.5,47.6c-1.3-1.5-1.9-3.4-2.9-5.1c-1-1.7-2.8-3.2-4.7-2.8c-1.3,0.3-2.3,1.4-2.8,2.7c-0.5,1.3-0.6,2.7-0.7,4
	c0-2.8-1.8-5.5-4.4-6.4c-2.6-0.9-5.6,0.1-7.2,2.4c-0.7-0.6-1.6-1-2.6-1c-1,0-1.9,0.3-2.6,0.9c-1.4,1.3-1.8,3.7-0.7,5.4
	c1.1,1.6,3.3,2.2,5,1.3l0.6,0.5c-0.3,1.2,0.3,2.5,1.4,3c0.9,0.4,2.1,0.3,2.5,1.2c0.2,0.6-0.2,1.3-0.7,1.8s-1,1-1.1,1.7
	c-0.1,1,1,1.8,2,2c2.3,0.5,5-0.6,6.3-2.6c0,0,0.1-0.1,0.1-0.1c0.8-1,1.3-2.1,1.6-3.3c0.3-1.2,0.4-2.4,0.2-3.7
	c-0.1-0.5,0-0.8,0.3-0.9c1.4-0.5,5.4,0.5,6.6,1.5c1.2,0.9,2.2,2.2,3.3,3.2c1.2,1,2.7,1.8,4.1,1.5c1.2-0.2,2.2-1.1,2.9-2.1
	c0.7-1,1.1-2.2,1.4-3.5C129.1,50.5,125.5,49.9,123.5,47.6z"/>
</svg>
