<?xml version="1.0" encoding="utf-8"?>
<!-- Generator: Adobe Illustrator 27.8.0, SVG Export Plug-In . SVG Version: 6.00 Build 0)  -->
<svg version="1.1" id="Layer_1" xmlns="http://www.w3.org/2000/svg" xmlns:xlink="http://www.w3.org/1999/xlink" x="0px" y="0px"
	 viewBox="0 0 585 166.5" style="enable-background:new 0 0 585 166.5;" xml:space="preserve">
<style type="text/css">
	.st0{fill:#FFFFFF;}
	.st1{fill:#8E9AEF;}
</style>
<g>
	<g>
		<path class="st0" d="M269.4,82.6c-1,0.5-2,1-3.1,1.4c-1.1,0.4-2.4,0.6-4,0.6c-3,0-5.4-0.9-7.1-2.6c-1.7-1.8-2.6-4.3-2.6-7.7
			c0-2.2,0.4-4.1,1.1-5.6c0.7-1.6,1.7-2.7,3.1-3.6c1.4-0.8,3-1.2,5-1.2c1.5,0,2.8,0.2,4,0.7c1.2,0.5,2.2,1,3.2,1.7
			c0.7-0.4,1.2-1,1.7-1.8c0.5-0.7,0.7-1.6,0.7-2.6c0-1.2-0.4-2.2-1.3-3.2c-0.9-0.9-2.2-1.6-3.8-2.2c-1.7-0.5-3.6-0.8-6-0.8
			c-3.3,0-6.3,0.7-9.1,2.2c-2.7,1.4-4.9,3.5-6.5,6.3c-1.6,2.7-2.4,6.1-2.4,10.1c0,4.3,0.8,7.8,2.5,10.5c1.7,2.7,3.9,4.7,6.7,6
			c2.8,1.3,6,2,9.4,2c1.8,0,3.3-0.2,4.6-0.5c1.3-0.3,2.2-0.6,2.9-0.9c1.1-0.5,1.9-1.1,2.4-1.8c0.5-0.7,0.7-1.5,0.7-2.4
			c0-1-0.2-1.9-0.5-2.6C270.5,83.7,270,83.1,269.4,82.6z"/>
		<path class="st0" d="M281.2,53.7c-0.9,0-1.8,0.1-2.6,0.2c-0.8,0.1-1.4,0.2-1.8,0.3v22.3v5.1v5.9c0,1.8,0.4,3,1.3,3.6
			c0.9,0.7,2.2,1,4.1,1c0.9,0,1.8-0.1,2.6-0.2c0.8-0.1,1.4-0.2,1.8-0.3v-10v-5.1V58.3c0-1.8-0.4-3-1.3-3.7
			C284.5,54,283.1,53.7,281.2,53.7z"/>
		<path class="st0" d="M298,63.6c-0.9,0-1.8,0.1-2.6,0.2c-0.8,0.1-1.4,0.2-1.8,0.3v12.4v5.1v5.9c0,1.8,0.4,3,1.3,3.6
			c0.9,0.7,2.2,1,4.1,1c0.9,0,1.8-0.1,2.6-0.2c0.8-0.1,1.4-0.2,1.8-0.3v-10v-5.1v-8.3c0-1.8-0.4-3-1.3-3.7
			C301.3,64,299.9,63.6,298,63.6z"/>
		<path class="st0" d="M298.5,50.8c-1.6,0-2.9,0.5-3.9,1.5c-1,1-1.5,2.2-1.5,3.7c0,1.4,0.5,2.6,1.5,3.7c1,1,2.3,1.5,3.9,1.5
			c1.6,0,2.9-0.5,3.9-1.5c1-1,1.5-2.2,1.5-3.7c0-1.5-0.5-2.7-1.5-3.7C301.4,51.3,300.1,50.8,298.5,50.8z"/>
		<path class="st0" d="M331.2,83.6c-0.6,0.3-1.4,0.6-2.3,0.9c-0.9,0.3-1.9,0.4-3.1,0.4c-2,0-3.7-0.6-5-1.7c-1.3-1.2-2-2.9-2-5.3
			c0-2.4,0.7-4.2,2.1-5.4c1.4-1.2,3.1-1.8,5-1.8c1.1,0,2.1,0.1,3,0.4c0.9,0.3,1.7,0.6,2.4,0.9c0.5-0.5,0.9-1,1.2-1.6
			c0.3-0.6,0.5-1.3,0.5-2c0-1.6-0.8-2.9-2.3-3.9c-1.5-1-3.6-1.5-6.4-1.5c-2.8,0-5.3,0.5-7.7,1.6c-2.3,1.1-4.2,2.7-5.6,5
			c-1.4,2.2-2.1,5-2.1,8.4c0,3.2,0.6,5.9,1.9,8.1c1.3,2.2,3.1,3.9,5.5,5c2.4,1.1,5.1,1.7,8.3,1.7c2.8,0,5-0.5,6.5-1.4
			c1.5-0.9,2.3-2.1,2.3-3.7c0-0.9-0.2-1.6-0.5-2.2C332.5,84.7,332,84.1,331.2,83.6z"/>
		<path class="st0" d="M360.3,74.6c1.7-1.5,2.9-2.6,3.7-3.5c0.8-0.9,1.2-1.9,1.2-3.1c0-1.3-0.6-2.5-1.8-3.3
			c-1.2-0.9-2.8-1.3-4.8-1.3l-9.9,10.1V58.3c0-1.8-0.4-3-1.3-3.7c-0.8-0.6-2.2-0.9-4.1-0.9c-0.9,0-1.8,0.1-2.6,0.2
			c-0.8,0.1-1.4,0.2-1.8,0.3v22.3v5.1v5.9c0,1.8,0.4,3,1.3,3.6c0.9,0.7,2.2,1,4.1,1c0.9,0,1.8-0.1,2.6-0.2c0.8-0.1,1.4-0.2,1.8-0.3
			v-10v-0.4l5.7,7.1c1.1,1.4,2.2,2.4,3.1,3c1,0.6,2.1,0.9,3.3,0.9c1.7,0,2.9-0.5,3.8-1.5c0.9-1,1.4-2.4,1.6-4.1l-9.2-9.2L360.3,74.6
			z"/>
		<path class="st0" d="M410.9,58.5c-0.2-0.7-0.5-1.2-0.7-1.7h-8.6H391h-6.1c-1.1,0-1.9,0.3-2.6,1c-0.6,0.7-1,1.7-1,3.2
			c0,0.8,0.1,1.6,0.3,2.2c0.2,0.7,0.5,1.2,0.7,1.7h8.6h0.1v22.5c0,1.8,0.4,3,1.2,3.7c0.8,0.7,2.2,1.1,4.2,1.1c0.9,0,1.8-0.1,2.7-0.2
			c0.9-0.1,1.5-0.2,2-0.3V64.9h0.4h6.1c1.1,0,1.9-0.3,2.6-1c0.6-0.7,1-1.7,1-3.1C411.2,60,411.1,59.2,410.9,58.5z"/>
		<path class="st0" d="M434.2,64.7c-2.2-1.2-4.9-1.8-7.9-1.8c-3,0-5.6,0.6-7.9,1.8c-2.3,1.2-4,2.9-5.3,5.2c-1.3,2.2-1.9,4.9-1.9,7.9
			c0,3.1,0.6,5.8,1.9,8c1.2,2.2,3,3.9,5.3,5.1c2.3,1.2,4.9,1.8,7.9,1.8c3.1,0,5.7-0.6,8-1.8s4-2.9,5.2-5.2c1.2-2.2,1.9-4.9,1.9-7.9
			c0-3-0.6-5.6-1.9-7.8C438.2,67.7,436.5,66,434.2,64.7z M430,83.1c-0.9,1.2-2.1,1.9-3.7,1.9c-1.6,0-2.9-0.6-3.7-1.8
			c-0.9-1.2-1.3-3-1.3-5.4c0-2.3,0.5-4.1,1.4-5.3c0.9-1.2,2.1-1.9,3.7-1.9c1.6,0,2.8,0.6,3.7,1.9c0.9,1.3,1.4,3,1.4,5.3
			C431.4,80.1,430.9,81.9,430,83.1z"/>
		<path class="st0" d="M484,56.8h-19.2c-1.7,0-3,0.5-3.9,1.4c-1,1-1.4,2.3-1.4,3.9v12.7v2.5v10.1c0,1.8,0.4,3,1.2,3.7
			c0.8,0.7,2.2,1.1,4.2,1.1c0.9,0,1.8-0.1,2.7-0.2c0.9-0.1,1.5-0.2,2-0.3V79.4h10.1c1.1,0,1.9-0.3,2.6-1c0.6-0.7,0.9-1.7,0.9-3.1
			c0-0.8-0.1-1.5-0.3-2.2c-0.2-0.7-0.5-1.2-0.7-1.6h-12.6v-6.5h12.1c1.1,0,1.9-0.3,2.6-1c0.6-0.7,0.9-1.7,0.9-3.1
			c0-0.8-0.1-1.6-0.3-2.2C484.5,57.8,484.3,57.3,484,56.8z"/>
		<path class="st0" d="M509.8,64.7c-2.2-1.2-4.9-1.8-7.9-1.8c-3,0-5.6,0.6-7.9,1.8c-2.3,1.2-4,2.9-5.3,5.2c-1.3,2.2-1.9,4.9-1.9,7.9
			c0,3.1,0.6,5.8,1.9,8c1.2,2.2,3,3.9,5.3,5.1c2.3,1.2,4.9,1.8,7.9,1.8c3.1,0,5.7-0.6,8-1.8c2.2-1.2,4-2.9,5.2-5.2
			c1.2-2.2,1.9-4.9,1.9-7.9c0-3-0.6-5.6-1.9-7.8C513.8,67.7,512,66,509.8,64.7z M505.6,83.1c-0.9,1.2-2.1,1.9-3.7,1.9
			s-2.9-0.6-3.7-1.8c-0.9-1.2-1.3-3-1.3-5.4c0-2.3,0.5-4.1,1.4-5.3c0.9-1.2,2.1-1.9,3.7-1.9c1.6,0,2.8,0.6,3.7,1.9
			c0.9,1.3,1.4,3,1.4,5.3C507,80.1,506.5,81.9,505.6,83.1z"/>
		<path class="st0" d="M543.5,64.7c-2.2-1.2-4.9-1.8-7.9-1.8c-3,0-5.6,0.6-7.9,1.8c-2.3,1.2-4,2.9-5.3,5.2c-1.3,2.2-1.9,4.9-1.9,7.9
			c0,3.1,0.6,5.8,1.9,8c1.2,2.2,3,3.9,5.3,5.1c2.3,1.2,4.9,1.8,7.9,1.8c3.1,0,5.7-0.6,8-1.8c2.2-1.2,4-2.9,5.2-5.2
			c1.2-2.2,1.9-4.9,1.9-7.9c0-3-0.6-5.6-1.9-7.8C547.5,67.7,545.8,66,543.5,64.7z M539.4,83.1c-0.9,1.2-2.1,1.9-3.7,1.9
			c-1.6,0-2.9-0.6-3.7-1.8c-0.9-1.2-1.3-3-1.3-5.4c0-2.3,0.5-4.1,1.4-5.3c0.9-1.2,2.1-1.9,3.7-1.9c1.6,0,2.8,0.6,3.7,1.9
			c0.9,1.3,1.4,3,1.4,5.3C540.7,80.1,540.2,81.9,539.4,83.1z"/>
		<path class="st0" d="M581.9,54.6c-0.8-0.6-2.2-0.9-4.1-0.9c-0.9,0-1.8,0.1-2.6,0.2c-0.8,0.1-1.4,0.2-1.8,0.3v9.3
			c-0.2-0.1-0.5-0.2-0.7-0.2c-1-0.3-2.2-0.4-3.5-0.4c-2.8,0-5.3,0.5-7.5,1.6c-2.2,1.1-4,2.7-5.3,5c-1.3,2.2-2,5-2,8.4
			c0,3.2,0.6,5.9,1.9,8.1c1.3,2.2,3.1,3.9,5.5,5c2.4,1.1,5.2,1.7,8.6,1.7c2.3,0,4.3-0.3,6-0.8c1.8-0.6,3.2-1.2,4.3-1.9
			c0.9-0.5,1.5-1.2,1.9-1.8c0.4-0.7,0.6-1.5,0.6-2.5V69.3v-1.8v-9.2C583.1,56.5,582.7,55.3,581.9,54.6z M572.1,84.7
			c-0.6,0.2-1.2,0.3-1.9,0.3c-1.9,0-3.3-0.6-4.4-1.7c-1.1-1.2-1.6-2.9-1.6-5.4c0-1.6,0.2-3,0.7-4.1c0.5-1.1,1.2-1.9,2.2-2.4
			c0.9-0.5,2.1-0.8,3.4-0.8c1,0,1.9,0.2,2.7,0.5c0.1,0,0.2,0.1,0.3,0.1v13C573.1,84.3,572.6,84.5,572.1,84.7z"/>
	</g>
	<path class="st1" d="M221.2,119.8c-0.4,0.6-0.8,1.1-1.4,1.4H118.5l2.8-10.5c1.8-6.5,0.4-13.3-3.7-18.6c-4-5.3-10.4-8.5-17-8.5
		c-1.9,0-3.8,0.3-5.6,0.8l-50,13.5c-8.8,2.4-15,9.8-15.8,18.7c-0.1,1.6-0.1,3.1,0,4.6H3c-1.4-0.5-2.2-1.7-2.2-3.3
		c0-2,1.4-3.5,3.6-3.6c3.4-0.1,7,0,10.4,0c0.4,0,0.7,0,1.1,0c2.9,0,2.7,0,3.1-2.9c0.6-4.8,1.2-9.7,2.3-14.4
		C28,69,44.4,48.4,69.8,35.1c10.9-5.7,22.6-8.8,34.9-9.6c26.8-1.7,50.2,6.5,69.8,24.6c13.3,12.3,22.3,27.3,26.5,44.9
		c1.3,5.2,2,10.6,2.7,16.1c0.3,2,0.2,2.6,1.2,2.8c8,0,13,0,13.2,0c0.1,0-0.2,0-0.8,0.1c0.3,0,0.6,0,0.9,0
		C221,114.4,222.7,117.3,221.2,119.8z"/>
	<path class="st0" d="M111,107.9l-3.5,13.3L97.7,158c-2.6,9.6-15.7,10.9-20,2L68.8,142c-1.1-2.2-2.8-3.8-4.9-4.9l-17.9-8.8
		c-3.2-1.6-5-4.2-5.7-7.1c-1.3-5.2,1.5-11.2,7.7-12.9l50-13.5C105.7,92.6,113,99.9,111,107.9z"/>
	<g>
		<path class="st1" d="M125.1,22.8c-1.8,0-3.3-1.5-3.3-3.3v-0.1c0-6.8-5.5-12.4-12.4-12.4c-6.8,0-12.4,5.5-12.4,12.4v0.1
			c0,1.8-1.5,3.3-3.3,3.3s-3.3-1.5-3.3-3.3v-0.1C90.6,9,99,0.5,109.5,0.5s18.9,8.5,18.9,18.9v0.1C128.4,21.3,126.9,22.8,125.1,22.8z
			"/>
	</g>
	<g>
		<path class="st1" d="M252,115.4c-0.4-1.1-0.7-2.1-1-3.1c-0.3-1-0.7-1.9-0.9-2.6c-0.1-0.3-0.3-0.5-0.7-0.7
			c-0.4-0.1-0.8-0.2-1.3-0.2c-0.4,0-0.7,0-1.1,0.1c-0.4,0.1-0.6,0.2-0.8,0.3c-0.2,0.5-0.4,1.1-0.7,1.8c-0.3,0.7-0.5,1.5-0.8,2.3
			c-0.3,0.8-0.6,1.6-0.9,2.5c-0.3,0.8-0.5,1.6-0.8,2.3c-0.2,0.7-0.4,1.3-0.6,1.7c-0.1,0.2-0.1,0.4-0.2,0.6c0,0.2-0.1,0.3-0.1,0.5
			c0,0.3,0.1,0.6,0.4,0.8c0.3,0.2,0.6,0.3,1.1,0.3c0.2,0,0.4,0,0.6-0.1c0.2,0,0.3-0.1,0.5-0.1c0.1-0.2,0.2-0.5,0.2-0.8
			c0.1-0.3,0.2-0.6,0.3-0.9c0.1-0.3,0.2-0.7,0.3-1c0-0.1,0.1-0.2,0.1-0.4h4.7l0.7,2.2c0.1,0.4,0.3,0.6,0.5,0.8s0.5,0.3,1,0.3
			c0.3,0,0.6,0,0.8-0.1c0.2-0.1,0.4-0.2,0.6-0.4c-0.3-0.8-0.5-1.7-0.9-2.8C252.7,117.5,252.4,116.4,252,115.4z M246.7,114.8
			c0.2-0.7,0.5-1.4,0.7-2c0.2-0.6,0.4-1.2,0.6-1.7h0.1c0.1,0.4,0.3,1,0.5,1.6c0.2,0.6,0.4,1.2,0.6,1.9c0.2,0.6,0.4,1.3,0.6,2h-3.7
			C246.3,115.9,246.5,115.4,246.7,114.8z"/>
		<path class="st1" d="M274.7,118.6c-0.3-0.4-0.7-0.9-1.1-1.4c-0.1-0.2-0.3-0.4-0.4-0.5c0.1,0,0.1,0,0.2-0.1
			c0.8-0.4,1.4-0.9,1.8-1.5c0.4-0.6,0.6-1.4,0.6-2.2c0-1.3-0.5-2.4-1.4-3.1c-0.9-0.8-2.3-1.1-4.1-1.1c-0.6,0-1.2,0-1.9,0.1
			c-0.6,0.1-1.1,0.2-1.6,0.3c-0.2,0.1-0.4,0.2-0.6,0.3s-0.2,0.3-0.2,0.6v6.3v0.9v3.4c0,0.4,0.1,0.8,0.3,1c0.2,0.2,0.6,0.3,1.1,0.3
			c0.3,0,0.5,0,0.7-0.1c0.2,0,0.4-0.1,0.5-0.1v-4.4h1.9c0,0,0.1,0,0.1,0l2.4,3.6c0.2,0.3,0.4,0.6,0.7,0.8c0.2,0.2,0.6,0.3,1,0.3
			c0.3,0,0.6-0.1,0.9-0.3c0.3-0.2,0.5-0.5,0.6-0.8c-0.2-0.2-0.4-0.5-0.6-0.9S275.1,119,274.7,118.6z M268.7,110.9
			c0.2,0,0.5-0.1,0.7-0.1c0.3,0,0.5,0,0.8,0c1,0,1.7,0.2,2.2,0.5c0.5,0.4,0.7,0.9,0.7,1.6c0,0.7-0.2,1.3-0.7,1.6
			c-0.5,0.4-1.1,0.5-2,0.5h-1.7V110.9z"/>
		<path class="st1" d="M287.9,111.9c-0.7-0.4-1.5-0.6-2.4-0.6c-0.7,0-1.3,0.1-1.9,0.3c-0.6,0.2-1.1,0.5-1.6,1
			c-0.5,0.4-0.8,1-1.1,1.6c-0.3,0.6-0.4,1.4-0.4,2.2c0,1.2,0.2,2.2,0.7,3c0.5,0.8,1.1,1.4,2,1.8c0.8,0.4,1.8,0.6,2.9,0.6
			c0.7,0,1.3-0.1,1.9-0.2c0.5-0.1,1-0.3,1.3-0.6c0.3-0.3,0.5-0.6,0.5-0.9c0-0.2-0.1-0.4-0.2-0.6c-0.1-0.2-0.3-0.3-0.5-0.5
			c-0.3,0.2-0.7,0.4-1.2,0.6c-0.5,0.2-1,0.3-1.6,0.3c-0.9,0-1.6-0.2-2.2-0.6c-0.5-0.3-0.8-0.8-0.9-1.5l5.8-0.8
			c0.4,0,0.6-0.2,0.9-0.3s0.3-0.5,0.3-0.9c0-0.9-0.2-1.6-0.6-2.3C289.2,112.8,288.6,112.3,287.9,111.9z M283,116
			c0-0.8,0.3-1.5,0.7-1.9c0.5-0.5,1.1-0.7,1.8-0.7c0.7,0,1.2,0.2,1.6,0.6c0.4,0.4,0.6,0.9,0.6,1.4L283,116z"/>
		<path class="st1" d="M296.5,107.8c-0.2,0-0.5,0-0.7,0.1c-0.2,0-0.4,0.1-0.5,0.1v8.1v1.3v3.1c0,0.4,0.1,0.8,0.3,0.9
			c0.2,0.2,0.6,0.3,1.1,0.3c0.3,0,0.5,0,0.7-0.1c0.2,0,0.4-0.1,0.5-0.1v-4v-1.3V109c0-0.4-0.1-0.8-0.3-0.9
			C297.4,107.9,297,107.8,296.5,107.8z"/>
		<path class="st1" d="M305,111.6c-0.3,0-0.5,0-0.7,0.1c-0.2,0-0.4,0.1-0.5,0.1v4.3v1.3v3.1c0,0.4,0.1,0.8,0.4,0.9s0.6,0.3,1.1,0.3
			c0.3,0,0.5,0,0.7-0.1c0.2,0,0.4-0.1,0.5-0.1v-4.2v-1.3v-3.3c0-0.5-0.1-0.8-0.3-1C305.8,111.7,305.5,111.6,305,111.6z"/>
		<path class="st1" d="M305.1,107.3c-0.4,0-0.8,0.1-1.1,0.4c-0.3,0.3-0.4,0.6-0.4,1c0,0.4,0.1,0.7,0.4,1c0.3,0.3,0.6,0.4,1.1,0.4
			c0.4,0,0.8-0.1,1.1-0.4c0.3-0.3,0.4-0.6,0.4-1c0-0.4-0.1-0.7-0.4-1C305.9,107.4,305.5,107.3,305.1,107.3z"/>
		<path class="st1" d="M319.2,112.3c-0.8-0.6-1.9-0.9-3.3-0.9c-0.5,0-1,0-1.6,0.1c-0.5,0.1-1,0.2-1.4,0.4c-0.6,0.2-0.8,0.6-0.8,1.1
			c0,0.2,0.1,0.4,0.2,0.6c0.1,0.2,0.2,0.3,0.4,0.5c0.4-0.2,0.9-0.4,1.4-0.5c0.5-0.1,1-0.2,1.6-0.2c0.7,0,1.2,0.1,1.6,0.4
			c0.4,0.3,0.6,0.7,0.6,1.2v0.4l-2.9,0.3c-1.1,0.1-2,0.4-2.6,0.9c-0.6,0.5-0.9,1.2-0.9,2.2c0,1.1,0.4,1.9,1.2,2.4
			c0.8,0.5,1.9,0.8,3.3,0.8c0.8,0,1.4-0.1,2-0.2c0.6-0.1,1.1-0.3,1.5-0.6c0.3-0.2,0.5-0.3,0.6-0.5c0.2-0.2,0.2-0.5,0.2-0.8V115
			C320.4,113.8,320,112.8,319.2,112.3z M317.9,119.6c-0.2,0.1-0.4,0.2-0.7,0.3c-0.3,0.1-0.7,0.1-1.1,0.1c-0.7,0-1.2-0.1-1.5-0.4
			c-0.3-0.2-0.5-0.6-0.5-1c0-0.4,0.2-0.7,0.5-0.9c0.3-0.2,0.7-0.3,1.3-0.4l2.1-0.2V119.6z"/>
		<path class="st1" d="M333.4,112c-0.7-0.4-1.5-0.6-2.4-0.6c-0.6,0-1.2,0.1-1.7,0.3c-0.2,0.1-0.5,0.2-0.7,0.3v-3
			c0-0.4-0.1-0.8-0.3-0.9c-0.2-0.2-0.6-0.3-1.1-0.3c-0.3,0-0.5,0-0.7,0.1c-0.2,0-0.4,0.1-0.5,0.1v4.8v0.6v6.2c0,0.3,0.1,0.6,0.2,0.8
			c0.1,0.2,0.3,0.4,0.6,0.6c0.4,0.3,0.9,0.5,1.5,0.7c0.6,0.2,1.3,0.3,2.1,0.3c1,0,2-0.2,2.8-0.6c0.8-0.4,1.4-1,1.8-1.8
			c0.4-0.8,0.7-1.8,0.7-2.9c0-1.2-0.2-2.1-0.6-2.9C334.7,112.9,334.1,112.3,333.4,112z M332.3,119c-0.5,0.5-1.1,0.8-1.9,0.8
			c-0.4,0-0.8-0.1-1.1-0.2c-0.3-0.1-0.6-0.2-0.7-0.3v-5.3c0.2-0.1,0.4-0.2,0.6-0.3c0.4-0.2,0.8-0.3,1.3-0.3c0.8,0,1.4,0.3,1.9,0.8
			c0.5,0.5,0.7,1.3,0.7,2.4C333.1,117.7,332.8,118.5,332.3,119z"/>
		<path class="st1" d="M342.1,107.8c-0.2,0-0.5,0-0.7,0.1c-0.2,0-0.4,0.1-0.5,0.1v8.1v1.3v3.1c0,0.4,0.1,0.8,0.3,0.9
			c0.2,0.2,0.6,0.3,1.1,0.3c0.3,0,0.5,0,0.7-0.1c0.2,0,0.4-0.1,0.5-0.1v-4v-1.3V109c0-0.4-0.1-0.8-0.3-0.9
			C343,107.9,342.6,107.8,342.1,107.8z"/>
		<path class="st1" d="M356.2,111.9c-0.7-0.4-1.5-0.6-2.4-0.6c-0.7,0-1.3,0.1-1.9,0.3c-0.6,0.2-1.1,0.5-1.6,1
			c-0.5,0.4-0.8,1-1.1,1.6c-0.3,0.6-0.4,1.4-0.4,2.2c0,1.2,0.2,2.2,0.7,3c0.5,0.8,1.1,1.4,2,1.8c0.8,0.4,1.8,0.6,2.9,0.6
			c0.7,0,1.3-0.1,1.9-0.2c0.5-0.1,1-0.3,1.3-0.6c0.3-0.3,0.5-0.6,0.5-0.9c0-0.2-0.1-0.4-0.2-0.6c-0.1-0.2-0.3-0.3-0.5-0.5
			c-0.3,0.2-0.7,0.4-1.2,0.6c-0.5,0.2-1,0.3-1.6,0.3c-0.9,0-1.6-0.2-2.2-0.6c-0.5-0.3-0.8-0.8-0.9-1.5l5.8-0.8
			c0.4,0,0.6-0.2,0.9-0.3s0.3-0.5,0.3-0.9c0-0.9-0.2-1.6-0.6-2.3C357.4,112.8,356.9,112.3,356.2,111.9z M351.3,116
			c0-0.8,0.3-1.5,0.7-1.9c0.5-0.5,1.1-0.7,1.8-0.7c0.7,0,1.2,0.2,1.6,0.6c0.4,0.4,0.6,0.9,0.6,1.4L351.3,116z"/>
		<path class="st1" d="M379.8,109.3c-1-0.5-2-0.8-3.2-0.8c-1.2,0-2.2,0.3-3.2,0.8c-1,0.5-1.7,1.3-2.3,2.3c-0.6,1-0.9,2.2-0.9,3.7
			c0,1.5,0.3,2.7,0.8,3.7c0.6,1,1.3,1.7,2.3,2.3c1,0.5,2,0.8,3.2,0.8c1.2,0,2.3-0.3,3.3-0.8c1-0.5,1.7-1.3,2.3-2.3
			c0.6-1,0.8-2.2,0.8-3.7c0-1.5-0.3-2.7-0.8-3.7C381.5,110.6,380.7,109.8,379.8,109.3z M379.2,118.6c-0.7,0.8-1.5,1.2-2.6,1.2
			s-2-0.4-2.6-1.2c-0.7-0.8-1-1.9-1-3.4c0-1.5,0.3-2.6,1-3.4c0.7-0.8,1.5-1.2,2.6-1.2c1.1,0,2,0.4,2.7,1.2c0.7,0.8,1,1.9,1,3.4
			C380.2,116.7,379.8,117.8,379.2,118.6z"/>
		<path class="st1" d="M392.8,111.4c-0.7,0-1.4,0.1-2.1,0.3s-1.2,0.4-1.6,0.6c-0.3,0.2-0.5,0.4-0.7,0.7c-0.2,0.2-0.3,0.5-0.3,0.9
			v2.2v0.9v3.6c0,0.4,0.1,0.8,0.3,0.9c0.2,0.2,0.6,0.3,1.1,0.3c0.3,0,0.5,0,0.7-0.1c0.2,0,0.4-0.1,0.5-0.1v-4.6v-0.7v-2.1
			c0.3-0.2,0.7-0.3,1.1-0.4c0.4-0.1,0.9-0.2,1.4-0.2c0.2,0,0.5,0,0.7,0c0.2,0,0.4,0,0.5,0.1c0.1-0.1,0.2-0.3,0.2-0.4
			c0.1-0.2,0.1-0.3,0.1-0.5C394.7,111.8,394.1,111.4,392.8,111.4z"/>
		<path class="st1" d="M406.8,107.8c-0.2,0-0.5,0-0.7,0.1c-0.2,0-0.4,0.1-0.5,0.1v3.8c-0.2-0.1-0.4-0.1-0.6-0.2
			c-0.4-0.1-0.9-0.2-1.4-0.2c-0.9,0-1.8,0.2-2.6,0.6c-0.8,0.4-1.4,0.9-1.8,1.7c-0.5,0.8-0.7,1.8-0.7,3c0,1.2,0.2,2.2,0.7,2.9
			s1.1,1.4,1.9,1.7c0.8,0.4,1.8,0.6,2.9,0.6c0.7,0,1.4-0.1,2-0.3c0.6-0.2,1-0.4,1.4-0.6c0.3-0.2,0.5-0.4,0.6-0.6
			c0.1-0.2,0.2-0.5,0.2-0.8v-6.3v-0.5V109c0-0.4-0.1-0.8-0.3-0.9C407.7,107.9,407.3,107.8,406.8,107.8z M405,119.7
			c-0.3,0.1-0.6,0.1-1,0.1c-0.9,0-1.5-0.3-2-0.8c-0.5-0.5-0.8-1.3-0.8-2.4c0-0.8,0.1-1.4,0.4-1.9c0.2-0.5,0.6-0.8,1-1
			c0.4-0.2,0.9-0.3,1.4-0.3c0.5,0,0.9,0.1,1.3,0.2c0.2,0.1,0.3,0.1,0.4,0.2v5.5C405.5,119.5,405.2,119.6,405,119.7z"/>
		<path class="st1" d="M420.8,111.9c-0.7-0.4-1.5-0.6-2.4-0.6c-0.7,0-1.3,0.1-1.9,0.3c-0.6,0.2-1.1,0.5-1.6,1
			c-0.5,0.4-0.8,1-1.1,1.6c-0.3,0.6-0.4,1.4-0.4,2.2c0,1.2,0.2,2.2,0.7,3c0.5,0.8,1.1,1.4,2,1.8c0.8,0.4,1.8,0.6,2.9,0.6
			c0.7,0,1.3-0.1,1.9-0.2c0.5-0.1,1-0.3,1.3-0.6c0.3-0.3,0.5-0.6,0.5-0.9c0-0.2-0.1-0.4-0.2-0.6c-0.1-0.2-0.3-0.3-0.5-0.5
			c-0.3,0.2-0.7,0.4-1.2,0.6c-0.5,0.2-1,0.3-1.6,0.3c-0.9,0-1.6-0.2-2.2-0.6c-0.5-0.3-0.8-0.8-0.9-1.5l5.8-0.8
			c0.4,0,0.6-0.2,0.9-0.3s0.3-0.5,0.3-0.9c0-0.9-0.2-1.6-0.6-2.3C422,112.8,421.4,112.3,420.8,111.9z M415.8,116
			c0-0.8,0.3-1.5,0.7-1.9c0.5-0.5,1.1-0.7,1.8-0.7c0.7,0,1.2,0.2,1.6,0.6c0.4,0.4,0.6,0.9,0.6,1.4L415.8,116z"/>
		<path class="st1" d="M432.6,111.4c-0.7,0-1.4,0.1-2.1,0.3c-0.6,0.2-1.2,0.4-1.6,0.6c-0.3,0.2-0.5,0.4-0.7,0.7
			c-0.2,0.2-0.3,0.5-0.3,0.9v2.2v0.9v3.6c0,0.4,0.1,0.8,0.3,0.9c0.2,0.2,0.6,0.3,1.1,0.3c0.3,0,0.5,0,0.7-0.1c0.2,0,0.4-0.1,0.5-0.1
			v-4.6v-0.7v-2.1c0.3-0.2,0.7-0.3,1.1-0.4c0.4-0.1,0.9-0.2,1.4-0.2c0.2,0,0.5,0,0.7,0c0.2,0,0.4,0,0.5,0.1c0.1-0.1,0.2-0.3,0.2-0.4
			c0.1-0.2,0.1-0.3,0.1-0.5C434.6,111.8,434,111.4,432.6,111.4z"/>
		<path class="st1" d="M440.5,111.6c-0.3,0-0.5,0-0.7,0.1c-0.2,0-0.4,0.1-0.5,0.1v4.3v1.3v3.1c0,0.4,0.1,0.8,0.4,0.9
			c0.2,0.2,0.6,0.3,1.1,0.3c0.3,0,0.5,0,0.7-0.1c0.2,0,0.4-0.1,0.5-0.1v-4.2v-1.3v-3.3c0-0.5-0.1-0.8-0.3-1
			C441.4,111.7,441,111.6,440.5,111.6z"/>
		<path class="st1" d="M440.6,107.3c-0.4,0-0.8,0.1-1.1,0.4c-0.3,0.3-0.4,0.6-0.4,1c0,0.4,0.1,0.7,0.4,1c0.3,0.3,0.6,0.4,1.1,0.4
			c0.4,0,0.8-0.1,1.1-0.4c0.3-0.3,0.4-0.6,0.4-1c0-0.4-0.1-0.7-0.4-1C441.4,107.4,441.1,107.3,440.6,107.3z"/>
		<path class="st1" d="M452.3,111.4c-0.8,0-1.5,0.1-2.2,0.3c-0.7,0.2-1.2,0.4-1.6,0.7c-0.3,0.2-0.5,0.4-0.6,0.6
			c-0.1,0.2-0.2,0.5-0.2,0.8v2.3v1v3.4c0,0.4,0.1,0.8,0.3,0.9c0.2,0.2,0.6,0.3,1.1,0.3c0.3,0,0.5,0,0.7-0.1c0.2,0,0.4-0.1,0.5-0.1
			v-4.4v-1V114c0.3-0.1,0.6-0.3,0.9-0.4c0.3-0.1,0.7-0.2,1.2-0.2c0.6,0,1.1,0.1,1.4,0.4c0.4,0.3,0.5,0.7,0.5,1.4v0.9v1v3.4
			c0,0.4,0.1,0.8,0.3,0.9c0.2,0.2,0.6,0.3,1.1,0.3c0.2,0,0.5,0,0.7-0.1c0.2,0,0.4-0.1,0.5-0.1v-4.4v-1v-1c0-1.2-0.4-2.2-1.2-2.8
			C454.9,111.7,453.8,111.4,452.3,111.4z"/>
		<path class="st1" d="M470.6,112.3c-0.4-0.2-0.9-0.4-1.5-0.6c-0.6-0.2-1.3-0.3-2-0.3c-1,0-1.9,0.2-2.7,0.6
			c-0.8,0.4-1.4,0.9-1.8,1.7c-0.4,0.7-0.6,1.6-0.6,2.7c0,1.2,0.2,2.1,0.6,2.9c0.4,0.7,1,1.2,1.7,1.6c0.7,0.3,1.5,0.5,2.3,0.5
			c0.6,0,1.1-0.1,1.6-0.2c0.3-0.1,0.5-0.2,0.7-0.3v1c0,0.7-0.2,1.2-0.7,1.6c-0.5,0.3-1.1,0.5-2,0.5c-0.6,0-1.1-0.1-1.7-0.3
			c-0.5-0.2-1-0.4-1.3-0.6c-0.2,0.1-0.3,0.2-0.4,0.4c-0.1,0.2-0.2,0.4-0.2,0.7c0,0.5,0.2,0.9,0.7,1.2c0.3,0.2,0.6,0.3,1.2,0.4
			c0.5,0.1,1.2,0.2,1.9,0.2c0.9,0,1.8-0.1,2.5-0.4c0.7-0.3,1.3-0.7,1.8-1.3c0.4-0.6,0.7-1.4,0.7-2.3v-1.6v-0.6v-6
			c0-0.3-0.1-0.6-0.2-0.8C471,112.6,470.8,112.4,470.6,112.3z M467,119.3c-0.7,0-1.3-0.2-1.7-0.7c-0.5-0.4-0.7-1.2-0.7-2.3
			c0-1,0.2-1.7,0.7-2.2c0.5-0.5,1.1-0.7,1.9-0.7c0.4,0,0.7,0,1,0.1c0.3,0.1,0.5,0.2,0.7,0.3v4.8c-0.2,0.1-0.3,0.2-0.5,0.3
			C468,119.2,467.5,119.3,467,119.3z"/>
		<path class="st1" d="M488.5,108.6c-0.5,0-1.1,0-1.7,0.1c-0.6,0.1-1.1,0.2-1.6,0.3c-0.2,0.1-0.4,0.2-0.6,0.3s-0.2,0.3-0.2,0.6v6.2
			v1.2v3.1c0,0.4,0.1,0.8,0.3,1c0.2,0.2,0.6,0.3,1.1,0.3c0.3,0,0.5,0,0.7-0.1c0.2,0,0.4-0.1,0.5-0.1v-4.2h1.7c1.1,0,2.1-0.2,2.9-0.5
			c0.8-0.4,1.4-0.9,1.8-1.5c0.4-0.7,0.6-1.4,0.6-2.3c0-1.3-0.5-2.4-1.4-3.2S490.3,108.6,488.5,108.6z M490.6,114.7
			c-0.5,0.4-1.2,0.6-2,0.6H487v-4.4c0.2,0,0.5-0.1,0.7-0.1c0.3,0,0.6,0,0.9,0c0.9,0,1.5,0.2,2,0.5c0.5,0.4,0.7,0.9,0.7,1.7
			C491.3,113.7,491.1,114.3,490.6,114.7z"/>
		<path class="st1" d="M500.4,107.8c-0.2,0-0.5,0-0.7,0.1c-0.2,0-0.4,0.1-0.5,0.1v8.1v1.3v3.1c0,0.4,0.1,0.8,0.3,0.9
			c0.2,0.2,0.6,0.3,1.1,0.3c0.3,0,0.5,0,0.7-0.1c0.2,0,0.4-0.1,0.5-0.1v-4v-1.3V109c0-0.4-0.1-0.8-0.3-0.9
			C501.2,107.9,500.9,107.8,500.4,107.8z"/>
		<path class="st1" d="M514.6,112.3c-0.8-0.6-1.9-0.9-3.3-0.9c-0.5,0-1,0-1.6,0.1c-0.5,0.1-1,0.2-1.4,0.4c-0.6,0.2-0.8,0.6-0.8,1.1
			c0,0.2,0.1,0.4,0.2,0.6c0.1,0.2,0.2,0.3,0.4,0.5c0.4-0.2,0.9-0.4,1.4-0.5c0.5-0.1,1-0.2,1.6-0.2c0.7,0,1.2,0.1,1.6,0.4
			c0.4,0.3,0.6,0.7,0.6,1.2v0.4l-2.9,0.3c-1.1,0.1-2,0.4-2.6,0.9c-0.6,0.5-0.9,1.2-0.9,2.2c0,1.1,0.4,1.9,1.2,2.4
			c0.8,0.5,1.9,0.8,3.3,0.8c0.8,0,1.4-0.1,2-0.2c0.6-0.1,1.1-0.3,1.5-0.6c0.3-0.2,0.5-0.3,0.6-0.5c0.2-0.2,0.2-0.5,0.2-0.8V115
			C515.8,113.8,515.4,112.8,514.6,112.3z M513.3,119.6c-0.2,0.1-0.4,0.2-0.7,0.3c-0.3,0.1-0.7,0.1-1.1,0.1c-0.7,0-1.2-0.1-1.5-0.4
			c-0.3-0.2-0.5-0.6-0.5-1c0-0.4,0.2-0.7,0.5-0.9c0.3-0.2,0.7-0.3,1.3-0.4l2.1-0.2V119.6z"/>
		<path class="st1" d="M524,116.1v-2.1h2.5c0.3,0,0.5-0.1,0.7-0.3c0.2-0.2,0.3-0.4,0.3-0.8c0-0.2,0-0.4-0.1-0.6
			c-0.1-0.2-0.1-0.3-0.2-0.4H524v-1.8c0-0.4-0.1-0.8-0.3-0.9c-0.2-0.2-0.6-0.3-1.1-0.3c-0.2,0-0.5,0-0.7,0.1c-0.2,0-0.4,0.1-0.5,0.1
			v7v0.6v2.1c0,1.1,0.3,1.9,1,2.4c0.6,0.5,1.5,0.7,2.6,0.7c0.8,0,1.4-0.1,1.8-0.4c0.4-0.3,0.6-0.6,0.6-1c0-0.2,0-0.4-0.1-0.6
			c-0.1-0.2-0.2-0.3-0.3-0.4c-0.2,0.1-0.4,0.2-0.7,0.2c-0.3,0.1-0.5,0.1-0.7,0.1c-0.5,0-0.9-0.1-1.2-0.3c-0.3-0.2-0.4-0.5-0.4-1
			v-1.9V116.1z"/>
		<path class="st1" d="M538.7,107.8c-0.5-0.2-1.2-0.4-2.1-0.4c-0.8,0-1.5,0.1-2.2,0.4s-1.1,0.7-1.5,1.2c-0.4,0.6-0.5,1.3-0.5,2.2
			v2.1v0.7v6.5c0,0.4,0.1,0.8,0.3,0.9c0.2,0.2,0.6,0.3,1.1,0.3c0.3,0,0.5,0,0.7-0.1c0.2,0,0.4-0.1,0.5-0.1v-7.2h3.1
			c0.3,0,0.5-0.1,0.7-0.2c0.2-0.2,0.2-0.4,0.2-0.8c0-0.2,0-0.4-0.1-0.6c-0.1-0.2-0.1-0.3-0.2-0.4h-3.8v-1c0-0.6,0.2-1.1,0.5-1.4
			c0.3-0.3,0.9-0.4,1.6-0.4c0.4,0,0.7,0,1,0.1c0.3,0.1,0.6,0.2,0.9,0.3c0.1-0.1,0.2-0.3,0.3-0.4c0.1-0.2,0.1-0.4,0.1-0.6
			C539.4,108.4,539.2,108.1,538.7,107.8z"/>
		<path class="st1" d="M550.8,112c-0.8-0.4-1.7-0.6-2.7-0.6c-1,0-1.9,0.2-2.7,0.6c-0.8,0.4-1.4,1-1.8,1.8c-0.4,0.8-0.7,1.7-0.7,2.8
			c0,1.1,0.2,2,0.6,2.8c0.4,0.8,1,1.4,1.8,1.8c0.8,0.4,1.7,0.6,2.7,0.6s1.9-0.2,2.7-0.6c0.8-0.4,1.4-1,1.8-1.8
			c0.4-0.8,0.6-1.7,0.6-2.8c0-1.1-0.2-2-0.6-2.8C552.2,113.1,551.6,112.5,550.8,112z M549.9,119c-0.4,0.6-1,0.8-1.8,0.8
			c-0.8,0-1.4-0.3-1.8-0.8c-0.4-0.6-0.7-1.3-0.7-2.4c0-1,0.2-1.8,0.7-2.4c0.4-0.6,1-0.8,1.8-0.8c0.8,0,1.4,0.3,1.8,0.8
			s0.7,1.3,0.7,2.3C550.6,117.7,550.4,118.4,549.9,119z"/>
		<path class="st1" d="M563,111.4c-0.7,0-1.4,0.1-2.1,0.3s-1.2,0.4-1.6,0.6c-0.3,0.2-0.5,0.4-0.7,0.7c-0.2,0.2-0.3,0.5-0.3,0.9v2.2
			v0.9v3.6c0,0.4,0.1,0.8,0.3,0.9c0.2,0.2,0.6,0.3,1.1,0.3c0.3,0,0.5,0,0.7-0.1c0.2,0,0.4-0.1,0.5-0.1v-4.6v-0.7v-2.1
			c0.3-0.2,0.7-0.3,1.1-0.4c0.4-0.1,0.9-0.2,1.4-0.2c0.2,0,0.5,0,0.7,0c0.2,0,0.4,0,0.5,0.1c0.1-0.1,0.2-0.3,0.2-0.4
			c0.1-0.2,0.1-0.3,0.1-0.5C565,111.8,564.3,111.4,563,111.4z"/>
		<path class="st1" d="M583.7,112.9c-0.3-0.5-0.8-0.9-1.4-1.2c-0.6-0.2-1.3-0.4-2-0.4c-0.8,0-1.5,0.1-2.1,0.4
			c-0.4,0.2-0.8,0.4-1.2,0.7c-0.3-0.3-0.7-0.6-1.2-0.7c-0.6-0.2-1.2-0.3-1.9-0.3s-1.3,0.1-2,0.3c-0.6,0.2-1.2,0.4-1.6,0.7
			c-0.3,0.2-0.5,0.4-0.6,0.6c-0.1,0.2-0.2,0.5-0.2,0.8v2.3v1v3.4c0,0.4,0.1,0.8,0.3,0.9s0.6,0.3,1.1,0.3c0.3,0,0.5,0,0.7-0.1
			c0.2,0,0.4-0.1,0.5-0.1v-4.4v-1V114c0.2-0.1,0.5-0.3,0.8-0.4c0.3-0.1,0.6-0.2,1-0.2c0.5,0,0.9,0.1,1.2,0.4
			c0.3,0.3,0.5,0.7,0.5,1.2v1.1v1v3.4c0,0.4,0.1,0.8,0.3,0.9c0.2,0.2,0.6,0.3,1.1,0.3c0.2,0,0.5,0,0.7-0.1c0.2,0,0.4-0.1,0.5-0.1
			v-4.4v-1v-1.4c0-0.2,0-0.4-0.1-0.6c0.2-0.2,0.5-0.4,0.8-0.5c0.4-0.2,0.7-0.2,1.1-0.2c0.5,0,0.9,0.1,1.2,0.4
			c0.3,0.3,0.5,0.7,0.5,1.2v1.1v1v3.4c0,0.4,0.1,0.8,0.3,0.9s0.6,0.3,1.1,0.3c0.2,0,0.5,0,0.7-0.1c0.2,0,0.4-0.1,0.5-0.1v-4.4v-1
			V115C584.2,114.1,584,113.4,583.7,112.9z"/>
	</g>
</g>
</svg>
