<?xml version="1.0" encoding="utf-8"?>
<!-- Generator: Adobe Illustrator 27.8.0, SVG Export Plug-In . SVG Version: 6.00 Build 0)  -->
<svg version="1.1" id="Layer_1" xmlns="http://www.w3.org/2000/svg" xmlns:xlink="http://www.w3.org/1999/xlink" x="0px" y="0px"
	 viewBox="0 0 373.8 81" style="enable-background:new 0 0 373.8 81;" xml:space="preserve">
<style type="text/css">
	.st0{fill:#1D2587;}
	.st1{fill:#8E9AEF;}
</style>
<g>
	<g>
		<path class="st0" d="M22.9,59.8c-11.6,0-21.1,8.8-22.3,20.1c0,0.3,0.2,0.6,0.6,0.6h1.7c0.3,0,0.5-0.2,0.6-0.5
			c1.1-9.7,9.4-17.4,19.4-17.4S41.3,70.2,42.3,80c0,0.3,0.3,0.5,0.6,0.5h1.7c0.3,0,0.6-0.3,0.6-0.6C44.1,68.6,34.5,59.8,22.9,59.8z"
			/>
		<path class="st1" d="M37.2,80.5H8.6c-0.3,0-0.5-0.3-0.5-0.5c1.1-7.2,7.3-12.7,14.8-12.7S36.6,72.8,37.7,80
			C37.7,80.2,37.5,80.5,37.2,80.5z"/>
		<path class="st0" d="M77.5,55.1l-6.6-9.4c-0.8-1.2-2.3-1.9-3.8-1.7c-0.2,0-0.4,0.1-0.5,0.1c-1.3,0.4-2.2,1.4-2.6,2.5L62.7,45
			c-0.6-0.9-1.5-1.5-2.6-1.6c-1.1-0.2-2.1,0-3,0.7c-0.7,0.5-1.2,1.2-1.5,1.9l-0.2-0.3c-1.3-1.8-3.8-2.3-5.6-1
			c-0.7,0.5-1.2,1.2-1.5,1.9l-3.3-4.6c-1.3-1.8-3.8-2.3-5.6-1c-1.8,1.3-2.3,3.8-1,5.6l6.9,9.9c-1,0-1.9,0.3-2.7,1.1
			c-0.6,0.5-0.9,1.2-1.1,1.9c-0.1,0.2,0,0.4,0.1,0.6l9.7,13.8c2.5,3.5,6.1,5.8,10.3,6.6c0.9,0.2,1.9,0.2,2.8,0.2
			c3.3,0,6.4-1,9.1-2.9c3.5-2.4,5.8-6,6.6-10.2C81,63.1,80,58.7,77.5,55.1z M78.5,67.1c-0.8,4.1-3.2,7.6-6.9,9.8
			c-2.5,1.5-5.5,2.1-8.4,1.9c-4.3-0.4-8-2.6-10.4-6l-9.3-13.2c0-0.1,0-0.1,0-0.2c0.2-0.3,0.4-0.5,0.7-0.7c1-0.7,2.5-0.5,3.2,0.6l0,0
			l6.1,8.7c0.2,0.2,0.4,0.4,0.7,0.4c0.2,0,0.3-0.1,0.5-0.2c0.4-0.3,0.5-0.8,0.2-1.2L40,45.5c-0.7-1-0.5-2.5,0.6-3.2
			c1-0.7,2.5-0.5,3.2,0.6l5.1,7.3c0,0,0,0,0,0c0,0,0,0,0,0l5.4,7.7c0.3,0.4,0.8,0.5,1.2,0.2c0.4-0.3,0.5-0.8,0.2-1.2l-5.4-7.7
			c-0.7-1-0.5-2.5,0.6-3.2c1-0.7,2.5-0.5,3.2,0.6l2.1,3c0,0,0,0,0,0c0,0,0,0,0,0l4,5.7c0.2,0.2,0.4,0.4,0.7,0.4
			c0.2,0,0.3-0.1,0.5-0.2c0.4-0.3,0.5-0.8,0.2-1.2l-4-5.7c-0.7-1-0.5-2.5,0.6-3.2c1-0.7,2.5-0.5,3.2,0.6l3.1,4.4c0,0,0,0,0,0l0,0
			l1.4,2c0.2,0.2,0.4,0.4,0.7,0.4c0.2,0,0.3-0.1,0.5-0.2c0.4-0.3,0.5-0.8,0.2-1.2l-1.4-2c-0.7-1-0.5-2.5,0.6-3.2
			c1-0.7,2.5-0.5,3.2,0.6l6.6,9.4C78.3,59.3,79.3,63.3,78.5,67.1z"/>
		<path class="st0" d="M27,0.5C12.4,0.7,0.5,12.6,0.5,27.3c0,14.8,12,26.8,26.8,26.8c0,0,0,0,0,0c3.8,0,7.4-0.8,10.7-2.2
			c0.3-0.1,0.4-0.5,0.2-0.8l-1-1.4c-0.2-0.2-0.4-0.3-0.7-0.2c-2.9,1.2-6,1.9-9.3,1.9c-13.2,0-23.9-10.7-24-23.9
			c0-13.2,10.7-24,24-24c13.2,0,24,10.7,24,24c0,4.5-1.3,8.9-3.6,12.6c-0.1,0.2-0.1,0.4,0,0.6l1.1,1.5c0.2,0.3,0.7,0.3,0.9,0
			c3-4.5,4.6-9.9,4.4-15.5C53.7,12,41.6,0.4,27,0.5z"/>
		<path class="st1" d="M45.5,26.5c0.2,3.9-0.9,7.5-2.8,10.5c-0.1,0.2-0.4,0.4-0.7,0.4c-0.1,0-0.2,0-0.2,0c-1.4,0-2.8,0.4-3.9,1.2
			c-1.5,1-2.5,2.6-2.8,4.4c0,0.1,0,0.3-0.1,0.4c0,0.3-0.2,0.5-0.5,0.6c-2.2,1-4.7,1.5-7.3,1.5c-10,0-18.2-8.2-18.2-18.2
			c0-10,8-18.1,17.9-18.2C36.8,8.9,45.1,16.7,45.5,26.5z"/>
		<path class="st0" d="M80.5,2.8V1.1c0-0.3-0.3-0.6-0.6-0.6c-0.1,0-0.2,0-0.3,0c-11.2,0.4-20.2,9.7-20.2,21c0,11.4,9.2,20.8,20.6,21
			c0,0,0,0,0,0c0.3,0,0.6-0.2,0.6-0.6v-1.7c0-0.3-0.2-0.6-0.6-0.6c0,0,0,0,0,0c-9.8-0.3-17.7-8.3-17.7-18.2
			c0-9.8,7.8-17.8,17.5-18.2c0.1,0,0.1,0,0.2,0C80.3,3.4,80.5,3.1,80.5,2.8z"/>
		<path class="st1" d="M80.5,8.1V35c0,0.3-0.2,0.5-0.5,0.5c0,0,0,0,0,0c-3.6-0.1-6.9-1.5-9.4-4.1c-2.6-2.6-4.1-6.1-4.1-9.8
			c0-7.5,6-13.7,13.5-13.9c0,0,0,0,0,0C80.3,7.7,80.5,7.9,80.5,8.1z"/>
	</g>
	<g>
		<g>
			<path class="st0" d="M128.2,16.7c0,0.7-0.2,1.4-0.6,1.9c-0.4,0.5-0.8,1-1.3,1.3c-0.8-0.5-1.7-1-2.7-1.4c-1-0.4-2.2-0.6-3.6-0.6
				c-1.7,0-3.2,0.4-4.4,1.1c-1.2,0.7-2.2,1.8-2.9,3.2c-0.7,1.4-1,3.1-1,5.1c0,3.1,0.8,5.4,2.3,7c1.5,1.6,3.6,2.4,6.3,2.4
				c1.4,0,2.6-0.2,3.6-0.6c1-0.4,1.9-0.8,2.7-1.3c0.5,0.4,0.9,0.8,1.2,1.4c0.3,0.6,0.5,1.2,0.5,1.9c0,0.6-0.2,1.2-0.5,1.8
				c-0.3,0.5-0.9,1-1.7,1.4c-0.6,0.3-1.5,0.6-2.6,0.9c-1.1,0.3-2.5,0.4-4.1,0.4c-2.8,0-5.4-0.6-7.7-1.7c-2.3-1.1-4.2-2.8-5.5-5
				c-1.3-2.3-2-5.1-2-8.7c0-3.3,0.7-6.1,2-8.4c1.3-2.3,3.1-4,5.4-5.2c2.2-1.2,4.7-1.8,7.4-1.8c1.9,0,3.5,0.2,4.9,0.6
				c1.4,0.4,2.4,1,3.2,1.7C127.8,15,128.2,15.8,128.2,16.7z"/>
			<path class="st0" d="M138.6,10.9c-0.6-0.5-1.6-0.7-3-0.7c-0.7,0-1.3,0-1.9,0.1c-0.6,0.1-1,0.2-1.3,0.3v18.6v3.7v6
				c0,1.2,0.3,2.1,1,2.6c0.6,0.5,1.6,0.7,3,0.7c0.7,0,1.3,0,1.9-0.1c0.6-0.1,1-0.2,1.3-0.3V33v-3.7V13.5
				C139.5,12.2,139.2,11.4,138.6,10.9z"/>
			<g>
				<path class="st0" d="M148.5,16.3c1.2,0,2.1-0.4,2.9-1.2c0.7-0.8,1.1-1.7,1.1-2.7c0-1.1-0.4-2-1.1-2.7c-0.7-0.7-1.7-1.1-2.9-1.1
					c-1.2,0-2.1,0.4-2.9,1.1c-0.8,0.7-1.1,1.6-1.1,2.7c0,1.1,0.4,2,1.1,2.7C146.4,15.9,147.4,16.3,148.5,16.3z"/>
				<path class="st0" d="M151.1,19.3c-0.6-0.5-1.6-0.7-3-0.7c-0.7,0-1.3,0-1.9,0.1c-0.6,0.1-1,0.2-1.3,0.3v10.1v3.7v6
					c0,1.2,0.3,2.1,0.9,2.6c0.6,0.5,1.6,0.7,3,0.7c0.7,0,1.3,0,1.9-0.1c0.6-0.1,1-0.2,1.3-0.3v-8.9v-3.7V22
					C152.1,20.7,151.8,19.8,151.1,19.3z"/>
			</g>
			<path class="st0" d="M169.7,23.7c-1.7,0-3.2,0.6-4.4,1.7c-1.2,1.1-1.8,2.8-1.8,5c0,2.1,0.6,3.8,1.8,4.8c1.2,1.1,2.7,1.6,4.5,1.6
				c1.1,0,2-0.1,2.8-0.4c0.8-0.3,1.5-0.6,2-0.9c0.5,0.4,1,0.8,1.2,1.3c0.3,0.5,0.4,1,0.4,1.7c0,1.2-0.6,2.1-1.9,2.9
				c-1.3,0.7-3.1,1.1-5.3,1.1c-2.5,0-4.8-0.5-6.7-1.4c-1.9-0.9-3.4-2.3-4.5-4.1c-1.1-1.8-1.6-4-1.6-6.7c0-2.8,0.6-5.1,1.7-6.9
				c1.2-1.8,2.7-3.2,4.6-4.1c1.9-0.9,4-1.4,6.2-1.4c2.2,0,3.9,0.4,5.2,1.2c1.3,0.8,1.9,1.8,1.9,3c0,0.6-0.1,1.1-0.4,1.6
				c-0.3,0.5-0.6,0.9-0.9,1.2c-0.6-0.3-1.3-0.6-2.1-0.9C171.6,23.9,170.7,23.7,169.7,23.7z"/>
			<path class="st0" d="M193.3,30l4-3.4c1.2-1,2.1-1.9,2.6-2.5c0.6-0.7,0.9-1.4,0.9-2.2c0-1-0.4-1.8-1.3-2.4c-0.9-0.6-2-1-3.5-1
				l-8.8,8.9V13.5c0-1.3-0.3-2.2-0.9-2.6c-0.6-0.5-1.6-0.7-3-0.7c-0.7,0-1.3,0-1.9,0.1c-0.6,0.1-1,0.2-1.3,0.3v18.5v3.7v6
				c0,1.2,0.3,2.1,0.9,2.6c0.6,0.5,1.6,0.7,3,0.7c0.7,0,1.3,0,1.9-0.1c0.6-0.1,1-0.2,1.3-0.3V33v-0.5l6,7c0.8,1,1.6,1.7,2.3,2.1
				c0.7,0.4,1.5,0.6,2.4,0.6c1.2,0,2.1-0.4,2.7-1.1c0.6-0.7,1-1.7,1.2-3L193.3,30z"/>
			<path class="st0" d="M236.6,13.9c-0.2-0.5-0.3-0.9-0.5-1.2h-8h-6.8H215c-0.8,0-1.4,0.2-1.8,0.7c-0.5,0.5-0.7,1.2-0.7,2.3
				c0,0.6,0.1,1.1,0.2,1.6c0.1,0.5,0.3,0.9,0.6,1.2h7.6v20.1c0,1.3,0.3,2.2,0.9,2.7c0.6,0.5,1.6,0.8,3,0.8c0.7,0,1.3,0,2-0.1
				c0.6-0.1,1.1-0.2,1.4-0.3V18.6h6c0.8,0,1.4-0.2,1.9-0.7c0.5-0.5,0.7-1.3,0.7-2.3C236.8,15,236.7,14.5,236.6,13.9z"/>
			<path class="st0" d="M260.4,30.3c0,2.5-0.5,4.7-1.5,6.5c-1,1.8-2.4,3.3-4.2,4.2c-1.8,1-4,1.5-6.4,1.5c-2.4,0-4.6-0.5-6.4-1.5
				c-1.8-1-3.3-2.4-4.3-4.2c-1-1.8-1.5-4-1.5-6.6c0-2.5,0.5-4.7,1.5-6.5c1-1.8,2.5-3.2,4.3-4.2c1.8-1,4-1.5,6.4-1.5
				c2.4,0,4.6,0.5,6.4,1.5c1.8,1,3.2,2.4,4.3,4.3C259.9,25.7,260.4,27.9,260.4,30.3z M248.2,23.7c-1.5,0-2.7,0.6-3.6,1.7
				c-0.9,1.2-1.3,2.8-1.3,4.9c0,2.1,0.4,3.8,1.3,4.9c0.9,1.1,2.1,1.7,3.6,1.7c1.5,0,2.7-0.6,3.6-1.7c0.9-1.2,1.3-2.8,1.3-4.9
				c0-2.1-0.4-3.7-1.3-4.9C250.9,24.3,249.7,23.7,248.2,23.7z"/>
			<path class="st0" d="M292,18.6c0.8,0,1.4-0.2,1.9-0.7c0.5-0.5,0.7-1.3,0.7-2.3c0-0.6-0.1-1.1-0.2-1.6c-0.2-0.5-0.3-0.9-0.5-1.2
				h-16c-1.2,0-2.1,0.3-2.8,1c-0.7,0.7-1.1,1.6-1.1,2.9v10.4v2.8v8.9c0,1.2,0.3,2.1,0.9,2.6c0.6,0.5,1.6,0.8,3,0.8
				c0.7,0,1.3,0,2-0.1c0.6-0.1,1.1-0.2,1.4-0.3V31h9.1c0.8,0,1.4-0.2,1.9-0.7c0.5-0.5,0.7-1.3,0.7-2.3c0-0.6-0.1-1.1-0.2-1.6
				c-0.2-0.5-0.3-0.9-0.5-1.2h-11v-6.5H292z"/>
			<path class="st0" d="M320.2,30.3c0,2.5-0.5,4.7-1.5,6.5c-1,1.8-2.4,3.3-4.2,4.2c-1.8,1-4,1.5-6.4,1.5c-2.4,0-4.6-0.5-6.4-1.5
				c-1.8-1-3.3-2.4-4.3-4.2c-1-1.8-1.5-4-1.5-6.6c0-2.5,0.5-4.7,1.5-6.5c1-1.8,2.5-3.2,4.3-4.2c1.8-1,4-1.5,6.4-1.5
				c2.4,0,4.6,0.5,6.4,1.5c1.8,1,3.2,2.4,4.3,4.3C319.7,25.7,320.2,27.9,320.2,30.3z M308,23.7c-1.5,0-2.7,0.6-3.6,1.7
				c-0.9,1.2-1.3,2.8-1.3,4.9c0,2.1,0.4,3.8,1.3,4.9c0.9,1.1,2.1,1.7,3.6,1.7c1.5,0,2.7-0.6,3.6-1.7c0.9-1.2,1.3-2.8,1.3-4.9
				c0-2.1-0.4-3.7-1.3-4.9C310.7,24.3,309.5,23.7,308,23.7z"/>
			<path class="st0" d="M347.4,30.3c0,2.5-0.5,4.7-1.5,6.5c-1,1.8-2.4,3.3-4.2,4.2c-1.8,1-4,1.5-6.4,1.5c-2.4,0-4.6-0.5-6.4-1.5
				c-1.8-1-3.3-2.4-4.3-4.2c-1-1.8-1.5-4-1.5-6.6c0-2.5,0.5-4.7,1.5-6.5c1-1.8,2.5-3.2,4.3-4.2c1.8-1,4-1.5,6.4-1.5
				c2.4,0,4.6,0.5,6.4,1.5c1.8,1,3.2,2.4,4.3,4.3C346.9,25.7,347.4,27.9,347.4,30.3z M335.2,23.7c-1.5,0-2.7,0.6-3.6,1.7
				c-0.9,1.2-1.3,2.8-1.3,4.9c0,2.1,0.4,3.8,1.3,4.9c0.9,1.1,2.1,1.7,3.6,1.7c1.5,0,2.7-0.6,3.6-1.7c0.9-1.2,1.3-2.8,1.3-4.9
				c0-2.1-0.4-3.7-1.3-4.9C337.9,24.3,336.7,23.7,335.2,23.7z"/>
			<path class="st0" d="M372.4,10.9c-0.6-0.5-1.6-0.7-3-0.7c-0.7,0-1.3,0-1.9,0.1c-0.6,0.1-1,0.2-1.3,0.3v8.2
				c-0.3-0.1-0.6-0.2-1-0.3c-0.9-0.3-1.9-0.4-3.1-0.4c-2.2,0-4.2,0.4-6,1.3c-1.8,0.9-3.3,2.2-4.3,4.1c-1.1,1.8-1.6,4.1-1.6,6.9
				c0,2.7,0.5,4.9,1.6,6.7c1,1.8,2.5,3.2,4.5,4.1c1.9,0.9,4.2,1.3,6.9,1.3c1.8,0,3.4-0.2,4.8-0.6c1.4-0.4,2.5-0.9,3.4-1.5
				c0.7-0.4,1.2-0.9,1.5-1.4c0.3-0.5,0.5-1.2,0.5-1.9v-14v-1.4v-8.2C373.3,12.2,373,11.4,372.4,10.9z M364.9,36.7
				c-0.5,0.2-1.2,0.3-1.9,0.3c-1.7,0-3.1-0.5-4.1-1.6c-1-1.1-1.5-2.7-1.5-4.9c0-1.5,0.2-2.8,0.7-3.8c0.5-1,1.2-1.7,2-2.2
				c0.9-0.5,1.9-0.7,3-0.7c1,0,1.8,0.2,2.5,0.5c0.2,0.1,0.4,0.2,0.5,0.2v11.7C365.9,36.3,365.4,36.5,364.9,36.7z"/>
		</g>
		<g>
			<path class="st1" d="M113.5,62.5c-0.3-1-0.7-2-1-2.9c-0.3-0.9-0.6-1.8-0.9-2.5c-0.1-0.3-0.3-0.5-0.7-0.6
				c-0.4-0.1-0.8-0.2-1.2-0.2c-0.3,0-0.7,0-1,0.1c-0.3,0.1-0.6,0.2-0.7,0.3c-0.2,0.5-0.4,1-0.7,1.7c-0.3,0.7-0.5,1.4-0.8,2.2
				c-0.3,0.8-0.6,1.5-0.8,2.3c-0.3,0.8-0.5,1.5-0.7,2.1c-0.2,0.7-0.4,1.2-0.5,1.6c-0.1,0.2-0.1,0.4-0.1,0.5c0,0.2-0.1,0.3-0.1,0.5
				c0,0.3,0.1,0.6,0.4,0.7c0.2,0.2,0.6,0.2,1,0.2c0.2,0,0.4,0,0.5,0c0.2,0,0.3-0.1,0.4-0.1c0.1-0.2,0.1-0.5,0.2-0.7
				c0.1-0.3,0.2-0.6,0.3-0.9c0.1-0.3,0.2-0.6,0.3-0.9c0-0.1,0.1-0.2,0.1-0.4h4.5l0.6,2c0.1,0.3,0.3,0.6,0.4,0.8
				c0.2,0.2,0.5,0.2,0.9,0.2c0.3,0,0.6,0,0.8-0.1c0.2-0.1,0.4-0.2,0.5-0.4c-0.2-0.8-0.5-1.6-0.8-2.6
				C114.2,64.6,113.9,63.6,113.5,62.5z M108.5,62c0.2-0.7,0.4-1.3,0.6-1.9c0.2-0.6,0.4-1.1,0.6-1.6h0.1c0.1,0.4,0.3,0.9,0.5,1.5
				c0.2,0.6,0.4,1.2,0.6,1.8c0.2,0.6,0.4,1.2,0.6,1.8H108C108.1,63.1,108.3,62.5,108.5,62z"/>
			<path class="st1" d="M131,65.6c-0.3-0.4-0.7-0.8-1-1.3c-0.1-0.2-0.3-0.3-0.4-0.5c0.1,0,0.1,0,0.2-0.1c0.7-0.3,1.3-0.8,1.7-1.4
				c0.4-0.6,0.6-1.3,0.6-2.1c0-1.3-0.4-2.2-1.3-3c-0.9-0.7-2.2-1.1-3.9-1.1c-0.6,0-1.2,0-1.8,0.1c-0.6,0.1-1.1,0.2-1.5,0.3
				c-0.2,0.1-0.4,0.2-0.5,0.3c-0.1,0.1-0.2,0.3-0.2,0.6v5.9v0.9v3.2c0,0.4,0.1,0.7,0.3,0.9c0.2,0.2,0.6,0.3,1,0.3c0.2,0,0.5,0,0.7,0
				c0.2,0,0.4-0.1,0.5-0.1v-4.2h1.8c0,0,0.1,0,0.1,0l2.3,3.4c0.2,0.3,0.4,0.5,0.6,0.7c0.2,0.2,0.5,0.3,0.9,0.3
				c0.3,0,0.6-0.1,0.8-0.3c0.3-0.2,0.4-0.4,0.5-0.8c-0.1-0.2-0.3-0.5-0.6-0.9C131.6,66.4,131.3,66,131,65.6z M125.3,58.3
				c0.2,0,0.4-0.1,0.7-0.1c0.3,0,0.5,0,0.8,0c0.9,0,1.6,0.2,2,0.5c0.5,0.3,0.7,0.8,0.7,1.5c0,0.7-0.2,1.2-0.7,1.5
				c-0.5,0.3-1.1,0.5-1.9,0.5h-1.6V58.3z"/>
			<path class="st1" d="M141.5,59.3c-0.7-0.3-1.4-0.5-2.3-0.5c-0.6,0-1.2,0.1-1.8,0.3c-0.6,0.2-1.1,0.5-1.5,0.9
				c-0.4,0.4-0.8,0.9-1,1.5c-0.3,0.6-0.4,1.3-0.4,2.1c0,1.1,0.2,2.1,0.7,2.8c0.4,0.8,1.1,1.3,1.8,1.7c0.8,0.4,1.7,0.6,2.7,0.6
				c0.7,0,1.2-0.1,1.8-0.2c0.5-0.1,0.9-0.3,1.2-0.6c0.3-0.2,0.5-0.5,0.5-0.9c0-0.2-0.1-0.4-0.2-0.6c-0.1-0.2-0.3-0.3-0.4-0.4
				c-0.3,0.2-0.7,0.4-1.1,0.5c-0.5,0.2-1,0.2-1.5,0.2c-0.8,0-1.5-0.2-2-0.6c-0.4-0.3-0.7-0.8-0.9-1.4l5.5-0.8c0.3,0,0.6-0.1,0.8-0.3
				c0.2-0.2,0.3-0.5,0.3-0.8c0-0.8-0.2-1.5-0.6-2.1C142.6,60.2,142.1,59.7,141.5,59.3z M136.8,63.2c0-0.8,0.3-1.4,0.7-1.8
				c0.4-0.5,1-0.7,1.7-0.7c0.7,0,1.2,0.2,1.5,0.6c0.3,0.4,0.5,0.8,0.6,1.3L136.8,63.2z"/>
			<path class="st1" d="M147.5,55.4c-0.2,0-0.4,0-0.6,0.1c-0.2,0-0.4,0.1-0.4,0.1v7.6v1.2v3c0,0.4,0.1,0.7,0.3,0.9
				c0.2,0.2,0.6,0.2,1,0.2c0.2,0,0.5,0,0.7,0c0.2,0,0.3-0.1,0.5-0.1v-3.8v-1.2v-6.8c0-0.4-0.1-0.7-0.3-0.9
				C148.4,55.5,148,55.4,147.5,55.4z"/>
			<path class="st1" d="M153.5,59c-0.2,0-0.5,0-0.7,0c-0.2,0-0.4,0.1-0.5,0.1v4.1v1.2v3c0,0.4,0.1,0.7,0.3,0.9
				c0.2,0.2,0.6,0.2,1,0.2c0.2,0,0.5,0,0.7,0c0.2,0,0.3-0.1,0.5-0.1v-3.9v-1.2v-3.1c0-0.4-0.1-0.7-0.3-0.9
				C154.3,59.1,154,59,153.5,59z"/>
			<path class="st1" d="M153.6,54.9c-0.4,0-0.7,0.1-1,0.4c-0.3,0.3-0.4,0.6-0.4,1c0,0.4,0.1,0.7,0.4,1c0.3,0.3,0.6,0.4,1,0.4
				c0.4,0,0.8-0.1,1-0.4c0.3-0.3,0.4-0.6,0.4-1c0-0.4-0.1-0.7-0.4-1C154.4,55.1,154.1,54.9,153.6,54.9z"/>
			<path class="st1" d="M165,59.6c-0.8-0.5-1.8-0.8-3.1-0.8c-0.5,0-1,0-1.5,0.1c-0.5,0.1-0.9,0.2-1.3,0.4c-0.5,0.2-0.8,0.6-0.8,1
				c0,0.2,0.1,0.4,0.2,0.6c0.1,0.2,0.2,0.3,0.4,0.4c0.4-0.2,0.8-0.3,1.3-0.5c0.5-0.1,1-0.2,1.5-0.2c0.7,0,1.2,0.1,1.5,0.4
				c0.4,0.2,0.5,0.6,0.5,1.1v0.4l-2.7,0.3c-1.1,0.1-1.9,0.4-2.4,0.9c-0.6,0.5-0.8,1.1-0.8,2c0,1,0.4,1.8,1.1,2.3
				c0.8,0.5,1.8,0.8,3.1,0.8c0.7,0,1.4-0.1,1.9-0.2c0.6-0.1,1-0.3,1.4-0.5c0.2-0.1,0.4-0.3,0.6-0.5c0.2-0.2,0.2-0.4,0.2-0.8v-4.5
				C166.1,61,165.7,60.2,165,59.6z M163.7,66.5c-0.1,0.1-0.4,0.2-0.7,0.3c-0.3,0.1-0.7,0.1-1.1,0.1c-0.6,0-1.1-0.1-1.4-0.3
				c-0.3-0.2-0.5-0.5-0.5-0.9c0-0.4,0.1-0.6,0.4-0.8c0.3-0.2,0.7-0.3,1.2-0.3l2-0.2V66.5z"/>
			<path class="st1" d="M176.4,59.4c-0.7-0.4-1.4-0.5-2.3-0.5c-0.6,0-1.1,0.1-1.6,0.3c-0.2,0.1-0.4,0.2-0.6,0.3v-2.8
				c0-0.4-0.1-0.7-0.3-0.9c-0.2-0.2-0.5-0.2-1-0.2c-0.2,0-0.5,0-0.7,0.1c-0.2,0-0.3,0.1-0.5,0.1v4.5v0.6v5.8c0,0.3,0.1,0.6,0.2,0.8
				c0.1,0.2,0.3,0.4,0.6,0.6c0.4,0.2,0.9,0.4,1.4,0.6c0.6,0.2,1.2,0.3,2,0.3c1,0,1.9-0.2,2.6-0.6c0.7-0.4,1.3-0.9,1.7-1.7
				c0.4-0.7,0.6-1.7,0.6-2.8c0-1.1-0.2-2-0.6-2.7C177.6,60.3,177,59.7,176.4,59.4z M175.4,66c-0.5,0.5-1.1,0.8-1.8,0.8
				c-0.4,0-0.7,0-1-0.1c-0.3-0.1-0.5-0.2-0.7-0.3v-5c0.2-0.1,0.4-0.2,0.6-0.3c0.4-0.2,0.8-0.3,1.2-0.3c0.7,0,1.3,0.2,1.8,0.7
				c0.4,0.5,0.7,1.2,0.7,2.3C176.1,64.8,175.9,65.5,175.4,66z"/>
			<path class="st1" d="M182.7,55.4c-0.2,0-0.4,0-0.6,0.1c-0.2,0-0.4,0.1-0.4,0.1v7.6v1.2v3c0,0.4,0.1,0.7,0.3,0.9
				c0.2,0.2,0.6,0.2,1,0.2c0.2,0,0.5,0,0.7,0c0.2,0,0.3-0.1,0.5-0.1v-3.8v-1.2v-6.8c0-0.4-0.1-0.7-0.3-0.9
				C183.5,55.5,183.1,55.4,182.7,55.4z"/>
			<path class="st1" d="M193.9,59.3c-0.7-0.3-1.4-0.5-2.3-0.5c-0.6,0-1.2,0.1-1.8,0.3c-0.6,0.2-1.1,0.5-1.5,0.9
				c-0.4,0.4-0.8,0.9-1,1.5c-0.3,0.6-0.4,1.3-0.4,2.1c0,1.1,0.2,2.1,0.7,2.8c0.4,0.8,1.1,1.3,1.8,1.7c0.8,0.4,1.7,0.6,2.7,0.6
				c0.7,0,1.2-0.1,1.8-0.2c0.5-0.1,0.9-0.3,1.2-0.6c0.3-0.2,0.5-0.5,0.5-0.9c0-0.2-0.1-0.4-0.2-0.6c-0.1-0.2-0.3-0.3-0.4-0.4
				c-0.3,0.2-0.7,0.4-1.1,0.5c-0.5,0.2-1,0.2-1.5,0.2c-0.8,0-1.5-0.2-2-0.6c-0.4-0.3-0.7-0.8-0.9-1.4l5.5-0.8c0.3,0,0.6-0.1,0.8-0.3
				c0.2-0.2,0.3-0.5,0.3-0.8c0-0.8-0.2-1.5-0.6-2.1C195.1,60.2,194.6,59.7,193.9,59.3z M189.3,63.2c0-0.8,0.3-1.4,0.7-1.8
				c0.4-0.5,1-0.7,1.7-0.7c0.7,0,1.2,0.2,1.5,0.6c0.3,0.4,0.5,0.8,0.6,1.3L189.3,63.2z"/>
			<path class="st1" d="M212.2,56.8c-0.9-0.5-1.9-0.7-3.1-0.7c-1.1,0-2.1,0.2-3,0.7c-0.9,0.5-1.6,1.2-2.2,2.1
				c-0.5,0.9-0.8,2.1-0.8,3.5c0,1.4,0.3,2.5,0.8,3.5c0.5,0.9,1.2,1.6,2.1,2.1c0.9,0.5,1.9,0.7,3.1,0.7c1.1,0,2.2-0.2,3.1-0.7
				c0.9-0.5,1.6-1.2,2.1-2.1c0.5-0.9,0.8-2.1,0.8-3.5c0-1.4-0.3-2.5-0.8-3.5C213.8,58,213.1,57.3,212.2,56.8z M211.6,65.6
				c-0.6,0.7-1.5,1.1-2.5,1.1c-1,0-1.9-0.4-2.5-1.1c-0.6-0.7-0.9-1.8-0.9-3.2c0-1.4,0.3-2.4,0.9-3.2c0.6-0.7,1.4-1.1,2.5-1.1
				c1,0,1.9,0.4,2.5,1.1c0.6,0.7,0.9,1.8,0.9,3.2C212.6,63.8,212.3,64.9,211.6,65.6z"/>
			<path class="st1" d="M222.5,58.8c-0.7,0-1.4,0.1-2,0.2c-0.6,0.2-1.1,0.4-1.5,0.6c-0.3,0.2-0.5,0.4-0.7,0.6
				c-0.2,0.2-0.2,0.5-0.2,0.8v2.1V64v3.4c0,0.4,0.1,0.7,0.3,0.9c0.2,0.2,0.6,0.2,1,0.2c0.2,0,0.5,0,0.7,0c0.2,0,0.3-0.1,0.5-0.1V64
				v-0.7v-2c0.3-0.2,0.6-0.3,1.1-0.4c0.4-0.1,0.9-0.1,1.3-0.1c0.2,0,0.4,0,0.6,0c0.2,0,0.4,0,0.5,0.1c0.1-0.1,0.1-0.3,0.2-0.4
				c0.1-0.2,0.1-0.3,0.1-0.5C224.3,59.2,223.7,58.8,222.5,58.8z"/>
			<path class="st1" d="M233.7,55.4c-0.2,0-0.4,0-0.6,0.1c-0.2,0-0.4,0.1-0.4,0.1v3.6c-0.2-0.1-0.3-0.1-0.5-0.2
				c-0.4-0.1-0.8-0.2-1.3-0.2c-0.9,0-1.7,0.2-2.4,0.5c-0.7,0.3-1.3,0.9-1.7,1.6c-0.4,0.7-0.6,1.7-0.6,2.8c0,1.1,0.2,2,0.6,2.8
				c0.4,0.7,1,1.3,1.8,1.6c0.8,0.3,1.7,0.5,2.7,0.5c0.7,0,1.3-0.1,1.9-0.2c0.5-0.2,1-0.4,1.3-0.6c0.3-0.2,0.5-0.4,0.6-0.5
				c0.1-0.2,0.2-0.4,0.2-0.7v-6v-0.5v-3.6c0-0.4-0.1-0.7-0.3-0.9C234.5,55.5,234.2,55.4,233.7,55.4z M232,66.7
				c-0.3,0.1-0.6,0.1-0.9,0.1c-0.8,0-1.4-0.2-1.9-0.7c-0.5-0.5-0.7-1.2-0.7-2.3c0-0.7,0.1-1.3,0.3-1.8c0.2-0.5,0.5-0.8,0.9-1
				c0.4-0.2,0.8-0.3,1.3-0.3c0.4,0,0.8,0.1,1.2,0.2c0.1,0.1,0.3,0.1,0.4,0.2v5.2C232.5,66.5,232.3,66.6,232,66.7z"/>
			<path class="st1" d="M244.9,59.3c-0.7-0.3-1.4-0.5-2.3-0.5c-0.6,0-1.2,0.1-1.8,0.3c-0.6,0.2-1.1,0.5-1.5,0.9
				c-0.4,0.4-0.8,0.9-1,1.5c-0.3,0.6-0.4,1.3-0.4,2.1c0,1.1,0.2,2.1,0.7,2.8c0.4,0.8,1.1,1.3,1.8,1.7c0.8,0.4,1.7,0.6,2.7,0.6
				c0.7,0,1.2-0.1,1.8-0.2c0.5-0.1,0.9-0.3,1.2-0.6c0.3-0.2,0.5-0.5,0.5-0.9c0-0.2-0.1-0.4-0.2-0.6c-0.1-0.2-0.3-0.3-0.4-0.4
				c-0.3,0.2-0.7,0.4-1.1,0.5c-0.5,0.2-1,0.2-1.5,0.2c-0.8,0-1.5-0.2-2-0.6c-0.4-0.3-0.7-0.8-0.9-1.4l5.5-0.8c0.3,0,0.6-0.1,0.8-0.3
				c0.2-0.2,0.3-0.5,0.3-0.8c0-0.8-0.2-1.5-0.6-2.1C246.1,60.2,245.6,59.7,244.9,59.3z M240.3,63.2c0-0.8,0.3-1.4,0.7-1.8
				c0.4-0.5,1-0.7,1.7-0.7c0.7,0,1.2,0.2,1.5,0.6c0.3,0.4,0.5,0.8,0.6,1.3L240.3,63.2z"/>
			<path class="st1" d="M254.1,58.8c-0.7,0-1.4,0.1-2,0.2c-0.6,0.2-1.1,0.4-1.5,0.6c-0.3,0.2-0.5,0.4-0.7,0.6
				c-0.2,0.2-0.2,0.5-0.2,0.8v2.1V64v3.4c0,0.4,0.1,0.7,0.3,0.9c0.2,0.2,0.6,0.2,1,0.2c0.2,0,0.5,0,0.7,0c0.2,0,0.3-0.1,0.5-0.1V64
				v-0.7v-2c0.3-0.2,0.6-0.3,1.1-0.4c0.4-0.1,0.9-0.1,1.3-0.1c0.2,0,0.4,0,0.6,0c0.2,0,0.4,0,0.5,0.1c0.1-0.1,0.1-0.3,0.2-0.4
				c0.1-0.2,0.1-0.3,0.1-0.5C256,59.2,255.4,58.8,254.1,58.8z"/>
			<path class="st1" d="M259.6,59c-0.2,0-0.5,0-0.7,0c-0.2,0-0.4,0.1-0.5,0.1v4.1v1.2v3c0,0.4,0.1,0.7,0.3,0.9
				c0.2,0.2,0.6,0.2,1,0.2c0.2,0,0.5,0,0.7,0c0.2,0,0.3-0.1,0.5-0.1v-3.9v-1.2v-3.1c0-0.4-0.1-0.7-0.3-0.9
				C260.4,59.1,260.1,59,259.6,59z"/>
			<path class="st1" d="M259.7,54.9c-0.4,0-0.7,0.1-1,0.4c-0.3,0.3-0.4,0.6-0.4,1c0,0.4,0.1,0.7,0.4,1c0.3,0.3,0.6,0.4,1,0.4
				c0.4,0,0.8-0.1,1-0.4c0.3-0.3,0.4-0.6,0.4-1c0-0.4-0.1-0.7-0.4-1C260.5,55.1,260.1,54.9,259.7,54.9z"/>
			<path class="st1" d="M271.9,59.7c-0.7-0.6-1.8-0.9-3.1-0.9c-0.8,0-1.5,0.1-2.1,0.3c-0.6,0.2-1.1,0.4-1.5,0.7
				c-0.3,0.2-0.5,0.4-0.6,0.6c-0.1,0.2-0.2,0.5-0.2,0.8v2.2v1v3.2c0,0.4,0.1,0.7,0.3,0.9c0.2,0.2,0.6,0.2,1,0.2c0.2,0,0.5,0,0.7,0
				c0.2,0,0.3-0.1,0.5-0.1v-4.2v-1v-2c0.3-0.1,0.5-0.2,0.9-0.3c0.3-0.1,0.7-0.1,1.1-0.1c0.6,0,1,0.1,1.3,0.4
				c0.3,0.3,0.5,0.7,0.5,1.3v0.9v1v3.2c0,0.4,0.1,0.7,0.3,0.9c0.2,0.2,0.6,0.2,1,0.2c0.2,0,0.4,0,0.6,0c0.2,0,0.4-0.1,0.4-0.1v-4.2
				v-1v-0.9C273,61.2,272.6,60.3,271.9,59.7z"/>
			<path class="st1" d="M284,59.7c-0.3-0.2-0.8-0.4-1.4-0.6c-0.6-0.2-1.2-0.3-1.9-0.3c-0.9,0-1.8,0.2-2.5,0.5
				c-0.7,0.3-1.3,0.9-1.7,1.6c-0.4,0.7-0.6,1.6-0.6,2.6c0,1.1,0.2,2,0.6,2.7c0.4,0.7,0.9,1.2,1.6,1.5c0.7,0.3,1.4,0.4,2.2,0.4
				c0.6,0,1.1-0.1,1.5-0.2c0.3-0.1,0.5-0.2,0.7-0.3v0.9c0,0.7-0.2,1.2-0.7,1.5c-0.4,0.3-1.1,0.5-1.9,0.5c-0.6,0-1.1-0.1-1.6-0.2
				c-0.5-0.2-0.9-0.3-1.2-0.6c-0.1,0.1-0.3,0.2-0.4,0.4c-0.1,0.2-0.2,0.4-0.2,0.6c0,0.5,0.2,0.8,0.7,1.1c0.2,0.1,0.6,0.3,1.1,0.4
				c0.5,0.1,1.1,0.2,1.8,0.2c0.9,0,1.7-0.1,2.4-0.4c0.7-0.3,1.3-0.7,1.7-1.2c0.4-0.6,0.6-1.3,0.6-2.2v-1.5v-0.5v-5.6
				c0-0.3-0.1-0.5-0.2-0.7C284.4,60,284.2,59.8,284,59.7z M280.6,66.2c-0.6,0-1.2-0.2-1.6-0.6c-0.4-0.4-0.7-1.1-0.7-2.1
				c0-0.9,0.2-1.6,0.7-2.1c0.5-0.4,1-0.7,1.8-0.7c0.4,0,0.7,0,0.9,0.1c0.3,0.1,0.5,0.2,0.6,0.3v4.5c-0.2,0.1-0.3,0.2-0.5,0.3
				C281.5,66.1,281.1,66.2,280.6,66.2z"/>
			<path class="st1" d="M300.8,57.3c-0.9-0.7-2.2-1.1-3.9-1.1c-0.5,0-1,0-1.6,0.1c-0.6,0.1-1.1,0.2-1.5,0.3
				c-0.2,0.1-0.4,0.2-0.5,0.3c-0.1,0.1-0.2,0.3-0.2,0.6v5.9v1.1v3c0,0.4,0.1,0.7,0.3,0.9c0.2,0.2,0.6,0.3,1,0.3c0.2,0,0.5,0,0.7,0
				c0.2,0,0.4-0.1,0.5-0.1v-4h1.6c1.1,0,2-0.2,2.7-0.5c0.7-0.3,1.3-0.8,1.7-1.4c0.4-0.6,0.6-1.4,0.6-2.2
				C302.1,59,301.7,58,300.8,57.3z M298.9,61.9c-0.5,0.4-1.1,0.5-1.9,0.5h-1.5v-4.1c0.2,0,0.4-0.1,0.7-0.1c0.3,0,0.5,0,0.8,0
				c0.8,0,1.4,0.2,1.9,0.5c0.4,0.3,0.7,0.9,0.7,1.6C299.6,61,299.3,61.5,298.9,61.9z"/>
			<path class="st1" d="M306.1,55.4c-0.2,0-0.4,0-0.6,0.1c-0.2,0-0.4,0.1-0.4,0.1v7.6v1.2v3c0,0.4,0.1,0.7,0.3,0.9
				c0.2,0.2,0.6,0.2,1,0.2c0.2,0,0.5,0,0.7,0c0.2,0,0.3-0.1,0.5-0.1v-3.8v-1.2v-6.8c0-0.4-0.1-0.7-0.3-0.9
				C306.9,55.5,306.6,55.4,306.1,55.4z"/>
			<path class="st1" d="M317.6,59.6c-0.8-0.5-1.8-0.8-3.1-0.8c-0.5,0-1,0-1.5,0.1c-0.5,0.1-0.9,0.2-1.3,0.4c-0.5,0.2-0.8,0.6-0.8,1
				c0,0.2,0.1,0.4,0.2,0.6c0.1,0.2,0.2,0.3,0.4,0.4c0.4-0.2,0.8-0.3,1.3-0.5c0.5-0.1,1-0.2,1.5-0.2c0.7,0,1.2,0.1,1.5,0.4
				c0.4,0.2,0.5,0.6,0.5,1.1v0.4l-2.7,0.3c-1.1,0.1-1.9,0.4-2.4,0.9c-0.6,0.5-0.8,1.1-0.8,2c0,1,0.4,1.8,1.1,2.3
				c0.8,0.5,1.8,0.8,3.1,0.8c0.7,0,1.4-0.1,1.9-0.2c0.6-0.1,1-0.3,1.4-0.5c0.2-0.1,0.4-0.3,0.6-0.5c0.2-0.2,0.2-0.4,0.2-0.8v-4.5
				C318.7,61,318.3,60.2,317.6,59.6z M316.4,66.5c-0.1,0.1-0.4,0.2-0.7,0.3c-0.3,0.1-0.7,0.1-1.1,0.1c-0.6,0-1.1-0.1-1.4-0.3
				c-0.3-0.2-0.5-0.5-0.5-0.9c0-0.4,0.1-0.6,0.4-0.8c0.3-0.2,0.7-0.3,1.2-0.3l2-0.2V66.5z"/>
			<path class="st1" d="M324.5,63.2v-2h2.3c0.3,0,0.5-0.1,0.6-0.2c0.2-0.2,0.2-0.4,0.2-0.7c0-0.2,0-0.4-0.1-0.5
				c-0.1-0.2-0.1-0.3-0.2-0.4h-2.9v-1.7c0-0.4-0.1-0.7-0.3-0.9c-0.2-0.2-0.5-0.2-1-0.2c-0.2,0-0.4,0-0.6,0.1c-0.2,0-0.4,0.1-0.5,0.1
				v6.6v0.5v2c0,1.1,0.3,1.8,0.9,2.3c0.6,0.5,1.4,0.7,2.5,0.7c0.8,0,1.3-0.1,1.7-0.4c0.4-0.3,0.5-0.6,0.5-0.9c0-0.2,0-0.4-0.1-0.5
				c-0.1-0.1-0.2-0.3-0.3-0.4c-0.2,0.1-0.4,0.1-0.6,0.2c-0.2,0.1-0.5,0.1-0.7,0.1c-0.5,0-0.8-0.1-1.1-0.3c-0.3-0.2-0.4-0.5-0.4-0.9
				v-1.8V63.2z"/>
			<path class="st1" d="M336.4,55.4c-0.4-0.2-1.1-0.3-2-0.3c-0.8,0-1.4,0.1-2,0.4c-0.6,0.2-1.1,0.6-1.4,1.1c-0.3,0.5-0.5,1.2-0.5,2
				v2v0.7v6.1c0,0.4,0.1,0.7,0.3,0.9c0.2,0.2,0.6,0.2,1,0.2c0.2,0,0.5,0,0.7,0c0.2,0,0.3-0.1,0.5-0.1v-6.8h2.9
				c0.3,0,0.5-0.1,0.6-0.2c0.2-0.2,0.2-0.4,0.2-0.7c0-0.2,0-0.4-0.1-0.6c-0.1-0.2-0.1-0.3-0.2-0.4h-3.6v-0.9c0-0.6,0.2-1,0.5-1.3
				c0.3-0.3,0.8-0.4,1.5-0.4c0.3,0,0.7,0,1,0.1c0.3,0.1,0.6,0.2,0.8,0.3c0.1-0.1,0.2-0.2,0.3-0.4c0.1-0.2,0.1-0.3,0.1-0.5
				C337,56,336.8,55.7,336.4,55.4z"/>
			<path class="st1" d="M345.8,59.4c-0.7-0.4-1.6-0.6-2.5-0.6c-1,0-1.8,0.2-2.5,0.6c-0.7,0.4-1.3,1-1.7,1.7
				c-0.4,0.7-0.6,1.6-0.6,2.6c0,1,0.2,1.9,0.6,2.7c0.4,0.7,1,1.3,1.7,1.7c0.7,0.4,1.6,0.6,2.6,0.6c1,0,1.8-0.2,2.5-0.6
				c0.7-0.4,1.3-1,1.7-1.7c0.4-0.7,0.6-1.6,0.6-2.6c0-1-0.2-1.9-0.6-2.6C347,60.4,346.5,59.8,345.8,59.4z M344.9,66
				c-0.4,0.5-1,0.8-1.7,0.8c-0.7,0-1.3-0.3-1.7-0.8c-0.4-0.5-0.6-1.3-0.6-2.2c0-0.9,0.2-1.7,0.6-2.2c0.4-0.5,1-0.8,1.7-0.8
				c0.7,0,1.3,0.3,1.7,0.8c0.4,0.5,0.6,1.3,0.6,2.2C345.6,64.7,345.3,65.5,344.9,66z"/>
			<path class="st1" d="M355.3,58.8c-0.7,0-1.4,0.1-2,0.2c-0.6,0.2-1.1,0.4-1.5,0.6c-0.3,0.2-0.5,0.4-0.7,0.6
				c-0.2,0.2-0.2,0.5-0.2,0.8v2.1V64v3.4c0,0.4,0.1,0.7,0.3,0.9c0.2,0.2,0.6,0.2,1,0.2c0.2,0,0.5,0,0.7,0c0.2,0,0.3-0.1,0.5-0.1V64
				v-0.7v-2c0.3-0.2,0.6-0.3,1.1-0.4c0.4-0.1,0.9-0.1,1.3-0.1c0.2,0,0.4,0,0.6,0c0.2,0,0.4,0,0.5,0.1c0.1-0.1,0.1-0.3,0.2-0.4
				c0.1-0.2,0.1-0.3,0.1-0.5C357.1,59.2,356.5,58.8,355.3,58.8z"/>
			<path class="st1" d="M372.8,60.2c-0.3-0.5-0.8-0.9-1.3-1.1c-0.6-0.2-1.2-0.3-1.9-0.3c-0.8,0-1.4,0.1-2,0.4
				c-0.4,0.2-0.8,0.4-1.1,0.6c-0.3-0.3-0.7-0.5-1.1-0.7c-0.5-0.2-1.1-0.3-1.8-0.3c-0.6,0-1.3,0.1-1.9,0.3c-0.6,0.2-1.1,0.4-1.5,0.7
				c-0.3,0.2-0.5,0.4-0.6,0.6c-0.1,0.2-0.2,0.5-0.2,0.8v2.2v0.9v3.2c0,0.4,0.1,0.7,0.3,0.9c0.2,0.2,0.6,0.2,1,0.2c0.2,0,0.5,0,0.7,0
				c0.2,0,0.3-0.1,0.5-0.1v-4.2v-0.9v-2c0.2-0.1,0.4-0.2,0.7-0.3c0.3-0.1,0.6-0.1,0.9-0.1c0.5,0,0.9,0.1,1.2,0.4
				c0.3,0.2,0.5,0.6,0.5,1.1v1v0.9v3.2c0,0.4,0.1,0.7,0.3,0.9c0.2,0.2,0.5,0.2,1,0.2c0.2,0,0.4,0,0.6,0c0.2,0,0.4-0.1,0.5-0.1v-4.2
				v-0.9V62c0-0.2,0-0.4-0.1-0.6c0.2-0.2,0.4-0.3,0.7-0.5c0.3-0.1,0.7-0.2,1-0.2c0.5,0,0.9,0.1,1.2,0.4c0.3,0.2,0.4,0.6,0.4,1.1v1
				v0.9v3.2c0,0.4,0.1,0.7,0.3,0.9c0.2,0.2,0.6,0.2,1,0.2c0.2,0,0.4,0,0.6,0c0.2,0,0.4-0.1,0.4-0.1v-4.2v-0.9v-1.1
				C373.3,61.4,373.1,60.7,372.8,60.2z"/>
		</g>
	</g>
</g>
</svg>
