<?xml version="1.0" encoding="utf-8"?>
<!-- Generator: Adobe Illustrator 27.8.0, SVG Export Plug-In . SVG Version: 6.00 Build 0)  -->
<svg version="1.1" id="Layer_1" xmlns="http://www.w3.org/2000/svg" xmlns:xlink="http://www.w3.org/1999/xlink" x="0px" y="0px"
	 viewBox="0 0 584.99 169.28" style="enable-background:new 0 0 584.99 169.28;" xml:space="preserve">
<style type="text/css">
	.st0{fill:#EF5C00;}
	.st1{fill:#8E9AEF;}
	.st2{fill:#1D2587;}
</style>
<g>
	<path class="st0" d="M111.9,109.69l-3.6,13.5H40c-1.3-5.3,1.5-11.4,7.8-13.1l50.7-13.7C106.6,94.09,114,101.49,111.9,109.69z"/>
	<path class="st1" d="M223.8,121.69c-0.4,0.6-0.8,1.1-1.4,1.4H119.6l2.8-10.7c1.8-6.6,0.4-13.5-3.8-18.9c-4.1-5.4-10.6-8.6-17.3-8.6
		c-1.9,0-3.9,0.3-5.7,0.8l-50.7,13.7c-8.9,2.4-15.2,9.9-16,19c-0.1,1.6-0.1,3.1,0,4.7H2.3c-1.4-0.5-2.2-1.7-2.2-3.3
		c0-2,1.4-3.6,3.7-3.7c3.5-0.1,7.1,0,10.6,0c0.4,0,0.7,0,1.1,0c2.9,0,2.7,0,3.1-2.9c0.6-4.9,1.2-9.8,2.3-14.6
		c6.8-28.4,23.4-49.3,49.2-62.8c11.1-5.8,22.9-8.9,35.4-9.7c27.2-1.7,50.9,6.6,70.8,25c13.5,12.5,22.6,27.7,26.9,45.6
		c1.3,5.3,2,10.8,2.7,16.3c0.3,2,0.2,2.6,1.2,2.8c8.1,0,13.2,0,13.4,0c0.1,0-0.2,0-0.8,0.1c0.3,0,0.6,0,0.9,0
		C223.6,116.19,225.3,119.19,223.8,121.69z"/>
	<path class="st0" d="M111.9,109.69l-3.6,13.5l-9.9,37.3c-2.6,9.7-15.9,11.1-20.3,2l-9-18.2c-1.1-2.2-2.8-3.9-5-5l-18.2-8.9
		c-3.2-1.6-5.1-4.3-5.8-7.2c-1.3-5.3,1.5-11.4,7.8-13.1l50.7-13.7C106.6,94.09,114,101.49,111.9,109.69z"/>
	<path class="st2" d="M111.9,109.69l-3.6,13.5l-9.9,37.3c-2.6,9.7-15.9,11.1-20.3,2l-9-18.2c-1.1-2.2-2.8-3.9-5-5l-18.2-8.9
		c-3.2-1.6-5.1-4.3-5.8-7.2c-1.3-5.3,1.5-11.4,7.8-13.1l50.7-13.7C106.6,94.09,114,101.49,111.9,109.69z"/>
	<g>
		<path class="st1" d="M126.3,23.29c-1.8,0-3.3-1.5-3.3-3.3v-0.1c0-6.9-5.6-12.6-12.6-12.6c-6.9,0-12.6,5.6-12.6,12.6v0.1
			c0,1.8-1.5,3.3-3.3,3.3s-3.3-1.5-3.3-3.3v-0.1c0-10.6,8.6-19.2,19.2-19.2s19.2,8.6,19.2,19.2v0.1
			C129.6,21.79,128.1,23.29,126.3,23.29z"/>
	</g>
	<g>
		<path class="st2" d="M265.1,65.39c-3.1,0-5.5,0.9-7.2,2.7s-2.5,4.4-2.5,7.7s0.9,5.9,2.8,7.7c1.8,1.8,4.3,2.7,7.4,2.7
			c1.7,0,3.1-0.2,4.2-0.6c1.2-0.4,2.3-0.9,3.3-1.4c0.7,0.5,1.2,1.2,1.6,1.9s0.6,1.6,0.6,2.6c0,1.6-0.9,2.9-2.8,4
			c-1.8,1.1-4.6,1.6-8.4,1.6c-2.7,0-5.3-0.4-7.6-1.1c-2.4-0.7-4.5-1.9-6.3-3.4s-3.2-3.4-4.2-5.8c-1-2.3-1.5-5.1-1.5-8.3
			c0-3,0.5-5.6,1.5-7.9s2.3-4.2,4.1-5.8c1.7-1.6,3.7-2.8,6-3.6s4.8-1.2,7.4-1.2c3.7,0,6.6,0.6,8.6,1.7c2,1.2,3.1,2.6,3.1,4.4
			c0,1-0.3,1.9-0.8,2.6s-1.1,1.3-1.8,1.7c-1.1-0.7-2.2-1.2-3.4-1.7C268,65.59,266.6,65.39,265.1,65.39z"/>
		<path class="st2" d="M290.4,93.19c-0.4,0.1-1.1,0.2-2,0.3s-1.8,0.2-2.6,0.2s-1.7-0.1-2.4-0.2c-0.7-0.1-1.3-0.3-1.8-0.7
			c-0.5-0.3-0.9-0.8-1.1-1.4c-0.2-0.6-0.4-1.4-0.4-2.3v-33.4c0.4-0.1,1.1-0.2,2-0.3s1.7-0.2,2.6-0.2s1.7,0.1,2.4,0.2
			c0.7,0.1,1.3,0.3,1.8,0.7c0.5,0.3,0.9,0.8,1.1,1.4c0.2,0.6,0.4,1.4,0.4,2.3V93.19z"/>
		<path class="st2" d="M296.4,57.49c0-1.5,0.5-2.7,1.5-3.7s2.4-1.5,4.1-1.5c1.7,0,3.1,0.5,4.1,1.5s1.5,2.2,1.5,3.7s-0.5,2.7-1.5,3.7
			s-2.4,1.5-4.1,1.5s-3.1-0.5-4.1-1.5C297,60.19,296.4,58.99,296.4,57.49z M307.2,93.19c-0.4,0.1-1.1,0.2-2,0.3s-1.8,0.2-2.6,0.2
			c-0.9,0-1.7-0.1-2.4-0.2c-0.7-0.1-1.3-0.3-1.8-0.7c-0.5-0.3-0.9-0.8-1.1-1.4c-0.2-0.6-0.4-1.4-0.4-2.3v-23.4
			c0.4-0.1,1.1-0.2,2-0.3s1.7-0.2,2.6-0.2c0.9,0,1.7,0.1,2.4,0.2c0.7,0.1,1.3,0.3,1.8,0.7c0.5,0.3,0.9,0.8,1.1,1.4
			c0.3,0.6,0.4,1.4,0.4,2.3L307.2,93.19L307.2,93.19z"/>
		<path class="st2" d="M330.2,72.09c-1,0-2,0.2-2.9,0.5s-1.7,0.8-2.4,1.4c-0.7,0.6-1.2,1.3-1.6,2.2c-0.4,0.9-0.6,1.9-0.6,3.1
			c0,2.4,0.7,4.2,2.2,5.4s3.2,1.8,5.2,1.8c1.2,0,2.3-0.1,3.2-0.4s1.7-0.6,2.4-0.9c0.8,0.5,1.4,1.1,1.8,1.8c0.4,0.6,0.6,1.4,0.6,2.3
			c0,1.6-0.8,2.8-2.4,3.7c-1.6,0.9-3.8,1.3-6.6,1.3c-2.5,0-4.9-0.4-6.9-1.1c-2.1-0.7-3.8-1.7-5.3-3s-2.6-2.8-3.4-4.6
			c-0.8-1.8-1.2-3.8-1.2-6c0-2.5,0.4-4.8,1.3-6.7c0.9-1.9,2.1-3.5,3.5-4.7s3.2-2.1,5.2-2.8c2-0.6,4-0.9,6.2-0.9
			c2.9,0,5.2,0.5,6.7,1.5s2.4,2.3,2.4,3.9c0,0.7-0.2,1.4-0.5,2c-0.4,0.6-0.8,1.2-1.3,1.6c-0.7-0.3-1.5-0.6-2.5-0.9
			C332.4,72.29,331.3,72.09,330.2,72.09z"/>
		<path class="st2" d="M371.8,88.19c-0.2,1.8-0.8,3.2-1.7,4.1c-0.9,1-2.2,1.4-4,1.4c-1.3,0-2.4-0.3-3.5-0.9c-1-0.6-2.1-1.6-3.3-3
			l-6-7.1v10.5c-0.4,0.1-1.1,0.2-2,0.3s-1.8,0.2-2.6,0.2s-1.7-0.1-2.4-0.2c-0.7-0.1-1.3-0.3-1.8-0.7c-0.5-0.3-0.9-0.8-1.1-1.4
			c-0.2-0.6-0.4-1.4-0.4-2.3v-33.3c0.4-0.1,1.1-0.2,2-0.4c0.9-0.1,1.7-0.2,2.6-0.2c0.9,0,1.7,0.1,2.4,0.2c0.7,0.1,1.3,0.3,1.8,0.7
			c0.5,0.3,0.9,0.8,1.1,1.4c0.3,0.6,0.4,1.4,0.4,2.3v15.2l10.4-10.1c2.1,0,3.8,0.4,5.1,1.3c1.3,0.9,1.9,2,1.9,3.3
			c0,0.6-0.1,1.1-0.3,1.6s-0.5,1-0.9,1.5s-1,1-1.6,1.6c-0.7,0.6-1.4,1.2-2.3,1.9l-3.5,2.9L371.8,88.19z"/>
		<path class="st2" d="M398.6,83.59c0,1,0.3,1.7,1,2.1c0.7,0.4,1.6,0.6,2.8,0.6c0.6,0,1.2,0,1.9-0.1c0.6-0.1,1.2-0.2,1.7-0.4
			c0.4,0.4,0.7,0.9,0.9,1.4c0.3,0.5,0.4,1.1,0.4,1.9c0,1.5-0.6,2.7-1.7,3.6c-1.2,0.9-3.2,1.4-6.1,1.4c-3.6,0-6.3-0.8-8.2-2.3
			s-2.9-4-2.9-7.5v-24.6c0.4-0.1,1.1-0.2,1.9-0.4c0.8-0.1,1.7-0.2,2.6-0.2c1.8,0,3.2,0.3,4.2,0.9c1,0.6,1.5,1.9,1.5,3.8v3.7h7.9
			c0.2,0.4,0.5,0.9,0.7,1.6c0.2,0.6,0.3,1.3,0.3,2.1c0,1.3-0.3,2.3-0.9,2.9c-0.6,0.6-1.5,0.9-2.5,0.9h-5.5L398.6,83.59L398.6,83.59z
			"/>
		<path class="st2" d="M442.5,79.29c0,2.4-0.4,4.5-1.2,6.4s-1.9,3.4-3.2,4.7c-1.4,1.3-3.1,2.2-5,2.9s-4.1,1-6.5,1s-4.6-0.3-6.5-1
			s-3.6-1.7-5-3s-2.5-2.8-3.2-4.7s-1.2-3.9-1.2-6.2s0.4-4.3,1.2-6.2s1.9-3.4,3.2-4.7c1.4-1.3,3.1-2.3,5-3s4.1-1,6.5-1
			s4.6,0.4,6.5,1.1s3.6,1.7,5,3s2.5,2.8,3.2,4.7C442.1,74.99,442.5,76.99,442.5,79.29z M421.3,79.29c0,2.3,0.5,4.1,1.4,5.4
			c0.9,1.2,2.3,1.9,4,1.9s3-0.6,3.9-1.9s1.4-3.1,1.4-5.4s-0.5-4.1-1.4-5.3s-2.2-1.9-3.9-1.9s-3,0.6-3.9,1.9
			C421.7,75.19,421.3,76.99,421.3,79.29z"/>
		<path class="st2" d="M459.3,65.29c0-2,0.4-3.6,1.1-5c0.7-1.4,1.7-2.6,2.9-3.5s2.6-1.6,4.3-2s3.4-0.6,5.2-0.6c3,0,5.2,0.4,6.6,1.1
			c1.4,0.7,2.1,2,2.1,3.8c0,0.8-0.2,1.5-0.5,2.1s-0.7,1.1-1.1,1.4c-0.8-0.2-1.6-0.4-2.4-0.5c-0.8-0.1-1.8-0.2-2.9-0.2
			c-1.7,0-3.1,0.3-4.1,0.8c-1,0.6-1.5,1.5-1.5,2.9v1.8h10c0.2,0.4,0.5,0.9,0.7,1.6c0.2,0.6,0.3,1.3,0.3,2.1c0,1.3-0.3,2.3-0.9,2.9
			c-0.6,0.6-1.5,0.9-2.5,0.9h-7v18.3c-0.4,0.1-1,0.2-1.9,0.3s-1.8,0.2-2.7,0.2s-1.7-0.1-2.4-0.2c-0.7-0.1-1.3-0.3-1.8-0.7
			c-0.5-0.3-0.9-0.8-1.1-1.4c-0.3-0.6-0.4-1.4-0.4-2.3L459.3,65.29L459.3,65.29z"/>
		<path class="st2" d="M514.2,79.29c0,2.4-0.4,4.5-1.2,6.4s-1.9,3.4-3.2,4.7c-1.4,1.3-3.1,2.2-5,2.9s-4.1,1-6.5,1s-4.6-0.3-6.5-1
			s-3.6-1.7-5-3s-2.5-2.8-3.2-4.7s-1.2-3.9-1.2-6.2s0.4-4.3,1.2-6.2s1.9-3.4,3.2-4.7c1.4-1.3,3.1-2.3,5-3s4.1-1,6.5-1
			s4.6,0.4,6.5,1.1s3.6,1.7,5,3s2.5,2.8,3.2,4.7C513.9,74.99,514.2,76.99,514.2,79.29z M493,79.29c0,2.3,0.5,4.1,1.4,5.4
			c0.9,1.2,2.3,1.9,4,1.9s3-0.6,3.9-1.9s1.4-3.1,1.4-5.4s-0.5-4.1-1.4-5.3s-2.2-1.9-3.9-1.9s-3,0.6-3.9,1.9
			C493.5,75.19,493,76.99,493,79.29z"/>
		<path class="st2" d="M549.6,79.29c0,2.4-0.4,4.5-1.2,6.4s-1.9,3.4-3.2,4.7c-1.4,1.3-3.1,2.2-5,2.9s-4.1,1-6.5,1s-4.6-0.3-6.5-1
			s-3.6-1.7-5-3s-2.5-2.8-3.2-4.7c-0.8-1.8-1.2-3.9-1.2-6.2s0.4-4.3,1.2-6.2c0.8-1.8,1.9-3.4,3.2-4.7c1.4-1.3,3.1-2.3,5-3
			s4.1-1,6.5-1s4.6,0.4,6.5,1.1s3.6,1.7,5,3s2.5,2.8,3.2,4.7C549.2,74.99,549.6,76.99,549.6,79.29z M528.3,79.29
			c0,2.3,0.5,4.1,1.4,5.4c0.9,1.2,2.3,1.9,4,1.9s3-0.6,3.9-1.9s1.4-3.1,1.4-5.4s-0.5-4.1-1.4-5.3s-2.2-1.9-3.9-1.9s-3,0.6-3.9,1.9
			C528.8,75.19,528.3,76.99,528.3,79.29z"/>
		<path class="st2" d="M553.1,79.29c0-2.5,0.4-4.7,1.2-6.6c0.8-1.9,1.9-3.4,3.4-4.6c1.4-1.2,3.1-2.1,5-2.7c1.9-0.6,4-0.9,6.2-0.9
			c0.8,0,1.6,0.1,2.4,0.2c0.8,0.1,1.4,0.3,1.9,0.5v-9.3c0.4-0.1,1.1-0.2,1.9-0.4c0.9-0.1,1.8-0.2,2.7-0.2s1.7,0.1,2.4,0.2
			c0.7,0.1,1.3,0.3,1.8,0.7c0.5,0.3,0.8,0.8,1.1,1.4c0.3,0.6,0.4,1.4,0.4,2.3v27.3c0,1.8-0.9,3.2-2.7,4.3c-1.2,0.7-2.7,1.4-4.6,1.9
			c-1.9,0.6-4,0.8-6.4,0.8c-2.6,0-5-0.3-7.1-1s-3.8-1.7-5.3-3s-2.5-2.9-3.3-4.7C553.5,83.59,553.1,81.59,553.1,79.29z M570.3,72.09
			c-2.2,0-3.9,0.6-5,1.8c-1.2,1.2-1.8,3-1.8,5.4s0.5,4.2,1.6,5.4s2.7,1.8,4.7,1.8c0.7,0,1.4-0.1,2-0.3s1-0.5,1.4-0.7v-12.7
			C572.4,72.29,571.4,72.09,570.3,72.09z"/>
	</g>
	<g>
		<path class="st1" d="M250.6,111.29c0.7,0,1.4,0.1,1.9,0.2c0.6,0.1,1.1,0.3,1.5,0.6s0.7,0.7,1,1.1c0.2,0.4,0.3,1,0.3,1.6v4.4
			c0,0.3-0.1,0.6-0.3,0.8c-0.2,0.2-0.4,0.4-0.7,0.5c-0.4,0.2-0.9,0.4-1.6,0.6c-0.6,0.1-1.3,0.2-2.1,0.2c-1.4,0-2.5-0.3-3.4-0.8
			c-0.8-0.5-1.3-1.3-1.3-2.3c0-0.9,0.3-1.6,0.8-2c0.6-0.5,1.4-0.8,2.6-0.9l2.7-0.3v-0.2c0-0.4-0.2-0.7-0.5-0.9
			c-0.4-0.2-0.9-0.3-1.5-0.3c-0.5,0-1,0.1-1.5,0.2c-0.5,0.1-0.9,0.3-1.3,0.4c-0.2-0.1-0.3-0.3-0.4-0.5s-0.2-0.4-0.2-0.7
			c0-0.6,0.3-1,0.9-1.2c0.4-0.1,0.9-0.2,1.4-0.3C249.6,111.29,250.1,111.29,250.6,111.29z M250.7,118.99c0.3,0,0.6,0,0.9-0.1
			s0.5-0.1,0.7-0.2v-1.8l-1.7,0.1c-0.4,0-0.8,0.1-1.1,0.3c-0.3,0.1-0.4,0.4-0.4,0.7s0.1,0.6,0.4,0.7
			C249.7,118.89,250.1,118.99,250.7,118.99z"/>
		<path class="st1" d="M272.5,120.89c-0.1,0-0.3,0.1-0.6,0.1c-0.2,0-0.5,0-0.8,0c-0.6,0-1.1-0.1-1.3-0.3c-0.3-0.2-0.4-0.6-0.4-1.1
			v-5.9c0-0.4,0.1-0.7,0.3-0.9c0.2-0.3,0.5-0.5,0.8-0.7c0.5-0.3,1-0.5,1.6-0.6s1.3-0.2,2-0.2c1.4,0,2.1,0.5,2.1,1.4
			c0,0.2,0,0.4-0.1,0.6c-0.1,0.2-0.1,0.3-0.2,0.5c-0.3-0.1-0.7-0.1-1.2-0.1c-0.4,0-0.8,0-1.2,0.1c-0.4,0.1-0.7,0.2-1,0.4
			L272.5,120.89L272.5,120.89z"/>
		<path class="st1" d="M283.8,117.49c0.2,0.5,0.5,0.9,1,1.2c0.5,0.2,1,0.3,1.7,0.3c0.6,0,1.1-0.1,1.6-0.2c0.5-0.1,0.9-0.3,1.2-0.5
			c0.2,0.1,0.4,0.3,0.5,0.5s0.2,0.4,0.2,0.7s-0.1,0.6-0.3,0.8s-0.5,0.4-0.8,0.6c-0.3,0.1-0.7,0.3-1.2,0.3c-0.5,0.1-1,0.1-1.5,0.1
			c-0.8,0-1.6-0.1-2.2-0.3c-0.7-0.2-1.3-0.5-1.8-1c-0.5-0.4-0.9-0.9-1.2-1.6c-0.3-0.6-0.4-1.4-0.4-2.2s0.1-1.5,0.4-2.2
			c0.3-0.6,0.7-1.1,1.1-1.5c0.5-0.4,1-0.7,1.6-0.9s1.2-0.3,1.9-0.3c0.7,0,1.3,0.1,1.9,0.3s1.1,0.5,1.5,0.8c0.4,0.4,0.7,0.8,1,1.3
			c0.2,0.5,0.3,1.1,0.3,1.7c0,0.4-0.1,0.7-0.3,0.9s-0.6,0.3-1,0.4L283.8,117.49z M285.8,113.49c-0.6,0-1.1,0.2-1.5,0.5
			s-0.6,0.8-0.7,1.5l3.9-0.6c0-0.3-0.2-0.7-0.5-1C286.8,113.59,286.4,113.49,285.8,113.49z"/>
		<path class="st1" d="M298,120.99c-0.6,0-1.1-0.1-1.3-0.3c-0.3-0.2-0.4-0.6-0.4-1.1v-11.4c0.1,0,0.3-0.1,0.6-0.1
			c0.3,0,0.5-0.1,0.8-0.1c0.6,0,1,0.1,1.3,0.3s0.4,0.6,0.4,1.1v11.4c-0.1,0-0.3,0.1-0.6,0.1C298.6,120.99,298.3,120.99,298,120.99z"
			/>
		<path class="st1" d="M305.6,108.89c0-0.4,0.2-0.8,0.5-1.1s0.7-0.5,1.3-0.5s0.9,0.2,1.3,0.5c0.3,0.3,0.5,0.7,0.5,1.1
			c0,0.5-0.2,0.8-0.5,1.1s-0.7,0.5-1.3,0.5s-0.9-0.2-1.3-0.5S305.6,109.29,305.6,108.89z M308.9,120.89c-0.1,0-0.3,0.1-0.6,0.1
			c-0.2,0-0.5,0-0.8,0c-0.6,0-1.1-0.1-1.3-0.3s-0.4-0.6-0.4-1.1v-8c0.1,0,0.3-0.1,0.6-0.1c0.2,0,0.5-0.1,0.8-0.1
			c0.6,0,1.1,0.1,1.3,0.3c0.3,0.2,0.4,0.6,0.4,1.1V120.89z"/>
		<path class="st1" d="M319.1,111.29c0.7,0,1.4,0.1,1.9,0.2c0.6,0.1,1.1,0.3,1.5,0.6s0.7,0.7,1,1.1c0.2,0.4,0.3,1,0.3,1.6v4.4
			c0,0.3-0.1,0.6-0.3,0.8s-0.4,0.4-0.7,0.5c-0.4,0.2-0.9,0.4-1.6,0.6c-0.6,0.1-1.3,0.2-2.1,0.2c-1.4,0-2.5-0.3-3.4-0.8
			c-0.8-0.5-1.3-1.3-1.3-2.3c0-0.9,0.3-1.6,0.8-2s1.4-0.8,2.6-0.9l2.7-0.3v-0.2c0-0.4-0.2-0.7-0.5-0.9c-0.4-0.2-0.9-0.3-1.5-0.3
			c-0.5,0-1,0.1-1.5,0.2c-0.5,0.1-0.9,0.3-1.3,0.4c-0.2-0.1-0.3-0.3-0.4-0.5c-0.1-0.2-0.2-0.4-0.2-0.7c0-0.6,0.3-1,0.9-1.2
			c0.4-0.1,0.9-0.2,1.4-0.3C318.1,111.29,318.6,111.29,319.1,111.29z M319.2,118.99c0.3,0,0.6,0,0.9-0.1c0.3-0.1,0.5-0.1,0.7-0.2
			v-1.8l-1.7,0.1c-0.4,0-0.8,0.1-1.1,0.3c-0.3,0.1-0.4,0.4-0.4,0.7s0.1,0.6,0.4,0.7C318.3,118.89,318.7,118.99,319.2,118.99z"/>
		<path class="st1" d="M335.2,111.29c0.7,0,1.3,0.1,1.9,0.3c0.6,0.2,1.1,0.5,1.5,0.9s0.8,0.9,1,1.5s0.4,1.3,0.4,2.1
			s-0.1,1.5-0.4,2.2c-0.3,0.6-0.6,1.1-1.1,1.6c-0.5,0.4-1,0.7-1.7,1c-0.7,0.2-1.4,0.3-2.2,0.3c-0.9,0-1.6-0.1-2.2-0.3
			c-0.6-0.2-1.1-0.4-1.5-0.7c-0.6-0.4-0.9-0.9-0.9-1.5v-10.5c0.1,0,0.3-0.1,0.6-0.1c0.2,0,0.5-0.1,0.8-0.1c0.6,0,1.1,0.1,1.3,0.3
			c0.3,0.2,0.4,0.6,0.4,1.1v2.2c0.3-0.1,0.6-0.2,0.9-0.3S334.8,111.29,335.2,111.29z M334.7,113.59c-0.3,0-0.6,0-0.8,0.1
			c-0.3,0.1-0.5,0.2-0.7,0.3v4.5c0.2,0.1,0.4,0.2,0.6,0.3c0.2,0.1,0.5,0.1,0.9,0.1c0.7,0,1.2-0.2,1.6-0.7c0.4-0.4,0.6-1.1,0.6-2
			s-0.2-1.6-0.6-2C335.8,113.79,335.3,113.59,334.7,113.59z"/>
		<path class="st1" d="M347.6,120.99c-0.6,0-1.1-0.1-1.3-0.3s-0.4-0.6-0.4-1.1v-11.4c0.1,0,0.3-0.1,0.6-0.1s0.5-0.1,0.8-0.1
			c0.6,0,1,0.1,1.3,0.3s0.4,0.6,0.4,1.1v11.4c-0.1,0-0.3,0.1-0.6,0.1C348.1,120.99,347.9,120.99,347.6,120.99z"/>
		<path class="st1" d="M357.9,117.49c0.2,0.5,0.5,0.9,1,1.2c0.5,0.2,1,0.3,1.7,0.3c0.6,0,1.1-0.1,1.6-0.2c0.5-0.1,0.9-0.3,1.2-0.5
			c0.2,0.1,0.4,0.3,0.5,0.5s0.2,0.4,0.2,0.7s-0.1,0.6-0.3,0.8s-0.5,0.4-0.8,0.6c-0.3,0.1-0.7,0.3-1.2,0.3c-0.5,0.1-1,0.1-1.5,0.1
			c-0.8,0-1.6-0.1-2.2-0.3c-0.7-0.2-1.3-0.5-1.8-1s-0.9-0.9-1.2-1.6c-0.3-0.6-0.4-1.4-0.4-2.2s0.1-1.5,0.4-2.2
			c0.3-0.6,0.7-1.1,1.1-1.5c0.5-0.4,1-0.7,1.6-0.9s1.2-0.3,1.9-0.3s1.3,0.1,1.9,0.3c0.6,0.2,1.1,0.5,1.5,0.8s0.7,0.8,1,1.3
			c0.2,0.5,0.3,1.1,0.3,1.7c0,0.4-0.1,0.7-0.3,0.9s-0.6,0.3-1,0.4L357.9,117.49z M359.9,113.49c-0.6,0-1.1,0.2-1.5,0.5
			s-0.6,0.8-0.7,1.5l3.9-0.6c0-0.3-0.2-0.7-0.5-1C360.9,113.59,360.4,113.49,359.9,113.49z"/>
		<path class="st1" d="M382.9,111.29c0.3,0,0.6,0,0.9,0.1c0.3,0,0.5,0.1,0.8,0.2v-3.3c0.1,0,0.3-0.1,0.6-0.1c0.2,0,0.5-0.1,0.8-0.1
			c0.6,0,1.1,0.1,1.3,0.3c0.3,0.2,0.4,0.6,0.4,1.1v9.5c0,0.3-0.1,0.6-0.2,0.8c-0.1,0.2-0.4,0.4-0.7,0.6c-0.4,0.2-0.9,0.4-1.5,0.6
			c-0.6,0.2-1.3,0.3-2.1,0.3c-1.7,0-3.1-0.4-4.1-1.2s-1.5-2.1-1.5-3.7c0-0.9,0.1-1.6,0.4-2.2c0.3-0.6,0.6-1.1,1.1-1.6
			c0.5-0.4,1-0.7,1.6-0.9C381.5,111.39,382.2,111.29,382.9,111.29z M384.6,113.89c-0.2-0.1-0.4-0.1-0.6-0.2
			c-0.2-0.1-0.4-0.1-0.7-0.1c-0.7,0-1.3,0.2-1.8,0.6c-0.4,0.4-0.7,1.1-0.7,2s0.2,1.5,0.6,2s1,0.6,1.7,0.6c0.3,0,0.5,0,0.8-0.1
			c0.2-0.1,0.4-0.1,0.5-0.2L384.6,113.89L384.6,113.89z"/>
		<path class="st1" d="M396.6,117.49c0.2,0.5,0.5,0.9,1,1.2c0.5,0.2,1,0.3,1.7,0.3c0.6,0,1.1-0.1,1.6-0.2c0.5-0.1,0.9-0.3,1.2-0.5
			c0.2,0.1,0.4,0.3,0.5,0.5s0.2,0.4,0.2,0.7s-0.1,0.6-0.3,0.8s-0.5,0.4-0.8,0.6c-0.3,0.1-0.7,0.3-1.2,0.3c-0.5,0.1-1,0.1-1.5,0.1
			c-0.8,0-1.6-0.1-2.2-0.3c-0.7-0.2-1.3-0.5-1.8-1s-0.9-0.9-1.2-1.6c-0.3-0.6-0.4-1.4-0.4-2.2s0.1-1.5,0.4-2.2
			c0.3-0.6,0.7-1.1,1.1-1.5c0.5-0.4,1-0.7,1.6-0.9s1.2-0.3,1.9-0.3s1.3,0.1,1.9,0.3c0.6,0.2,1.1,0.5,1.5,0.8s0.7,0.8,1,1.3
			c0.2,0.5,0.3,1.1,0.3,1.7c0,0.4-0.1,0.7-0.3,0.9s-0.6,0.3-1,0.4L396.6,117.49z M398.5,113.49c-0.6,0-1.1,0.2-1.5,0.5
			s-0.6,0.8-0.7,1.5l3.9-0.6c0-0.3-0.2-0.7-0.5-1C399.5,113.59,399.1,113.49,398.5,113.49z"/>
		<path class="st1" d="M410.7,120.99c-0.6,0-1.1-0.1-1.3-0.3c-0.3-0.2-0.4-0.6-0.4-1.1v-11.4c0.1,0,0.3-0.1,0.6-0.1s0.5-0.1,0.8-0.1
			c0.6,0,1,0.1,1.3,0.3s0.4,0.6,0.4,1.1v11.4c-0.1,0-0.3,0.1-0.6,0.1C411.3,120.99,411,120.99,410.7,120.99z"/>
		<path class="st1" d="M418.3,108.89c0-0.4,0.2-0.8,0.5-1.1s0.7-0.5,1.3-0.5s0.9,0.2,1.3,0.5c0.3,0.3,0.5,0.7,0.5,1.1
			c0,0.5-0.2,0.8-0.5,1.1s-0.7,0.5-1.3,0.5s-0.9-0.2-1.3-0.5C418.5,109.69,418.3,109.29,418.3,108.89z M421.6,120.89
			c-0.1,0-0.3,0.1-0.6,0.1c-0.2,0-0.5,0-0.8,0c-0.6,0-1.1-0.1-1.3-0.3c-0.3-0.2-0.4-0.6-0.4-1.1v-8c0.1,0,0.3-0.1,0.6-0.1
			c0.2,0,0.5-0.1,0.8-0.1c0.6,0,1.1,0.1,1.3,0.3c0.3,0.2,0.4,0.6,0.4,1.1V120.89z"/>
		<path class="st1" d="M435.6,111.29c0.4,0,0.8,0.1,1.1,0.3s0.4,0.5,0.4,0.9c0,0.2,0,0.5-0.2,0.9c-0.1,0.4-0.2,0.8-0.4,1.3
			s-0.4,1-0.6,1.6c-0.2,0.6-0.4,1.1-0.7,1.7c-0.2,0.5-0.4,1-0.7,1.5s-0.4,0.9-0.6,1.2c-0.2,0.1-0.4,0.2-0.7,0.3s-0.7,0.1-1.1,0.1
			c-0.5,0-0.9-0.1-1.2-0.2c-0.3-0.1-0.6-0.3-0.7-0.6c-0.1-0.2-0.3-0.5-0.4-0.9c-0.2-0.4-0.4-0.8-0.6-1.3c-0.2-0.5-0.4-1-0.6-1.6
			c-0.2-0.6-0.4-1.1-0.6-1.7c-0.2-0.6-0.4-1.1-0.5-1.6c-0.2-0.5-0.3-1-0.4-1.4c0.2-0.2,0.4-0.3,0.7-0.4c0.3-0.1,0.6-0.2,1-0.2
			s0.8,0.1,1.1,0.3s0.5,0.5,0.6,1l0.9,3.1c0.2,0.5,0.3,1.1,0.5,1.6s0.3,0.9,0.4,1.2h0.1c0.3-1,0.6-2.1,0.9-3.3
			c0.3-1.2,0.6-2.4,0.9-3.5C434.6,111.49,435.1,111.29,435.6,111.29z"/>
		<path class="st1" d="M445.2,117.49c0.2,0.5,0.5,0.9,1,1.2c0.5,0.2,1,0.3,1.7,0.3c0.6,0,1.1-0.1,1.6-0.2c0.5-0.1,0.9-0.3,1.2-0.5
			c0.2,0.1,0.4,0.3,0.5,0.5s0.2,0.4,0.2,0.7s-0.1,0.6-0.3,0.8s-0.5,0.4-0.8,0.6c-0.3,0.1-0.7,0.3-1.2,0.3c-0.5,0.1-1,0.1-1.5,0.1
			c-0.8,0-1.6-0.1-2.2-0.3c-0.7-0.2-1.3-0.5-1.8-1c-0.5-0.4-0.9-0.9-1.2-1.6c-0.3-0.6-0.4-1.4-0.4-2.2s0.1-1.5,0.4-2.2
			c0.3-0.6,0.7-1.1,1.1-1.5c0.5-0.4,1-0.7,1.6-0.9s1.2-0.3,1.9-0.3s1.3,0.1,1.9,0.3c0.6,0.2,1.1,0.5,1.5,0.8s0.7,0.8,1,1.3
			c0.2,0.5,0.3,1.1,0.3,1.7c0,0.4-0.1,0.7-0.3,0.9s-0.6,0.3-1,0.4L445.2,117.49z M447.2,113.49c-0.6,0-1.1,0.2-1.5,0.5
			s-0.6,0.8-0.7,1.5l3.9-0.6c0-0.3-0.2-0.7-0.5-1C448.2,113.59,447.7,113.49,447.2,113.49z"/>
		<path class="st1" d="M460.7,120.89c-0.1,0-0.3,0.1-0.6,0.1c-0.2,0-0.5,0-0.8,0c-0.6,0-1.1-0.1-1.3-0.3s-0.4-0.6-0.4-1.1v-5.9
			c0-0.4,0.1-0.7,0.3-0.9c0.2-0.3,0.5-0.5,0.8-0.7c0.5-0.3,1-0.5,1.6-0.6s1.3-0.2,2-0.2c1.4,0,2.1,0.5,2.1,1.4c0,0.2,0,0.4-0.1,0.6
			c-0.1,0.2-0.1,0.3-0.2,0.5c-0.3-0.1-0.7-0.1-1.2-0.1c-0.4,0-0.8,0-1.2,0.1s-0.7,0.2-1,0.4L460.7,120.89L460.7,120.89z"/>
		<path class="st1" d="M471.6,118.59c-0.3-0.7-0.7-1.5-1.1-2.5c-0.4-1-0.8-2.4-1.3-4.1c0.2-0.2,0.4-0.3,0.7-0.4
			c0.3-0.1,0.6-0.2,1-0.2s0.8,0.1,1.1,0.3s0.5,0.5,0.6,1c0.3,0.9,0.6,1.9,0.9,2.8c0.3,0.9,0.6,1.9,0.9,2.8h0.1
			c0.2-0.4,0.3-0.9,0.5-1.4s0.3-1.1,0.5-1.6c0.2-0.6,0.3-1.1,0.5-1.7c0.1-0.6,0.3-1.1,0.4-1.7c0.4-0.2,0.9-0.3,1.3-0.3
			c0.4,0,0.8,0.1,1.1,0.3s0.5,0.5,0.5,0.9c0,0.5-0.1,1.1-0.3,1.8s-0.4,1.5-0.7,2.3s-0.6,1.6-0.9,2.3c-0.3,0.8-0.7,1.4-1.1,2
			c-0.8,1.2-1.5,2.1-2.1,2.8c-0.6,0.6-1.2,0.9-1.9,0.9c-0.5,0-0.9-0.1-1.3-0.4c-0.3-0.3-0.5-0.7-0.6-1.1c0.4-0.4,0.9-0.8,1.4-1.3
			s0.9-1,1.2-1.5c-0.2-0.1-0.5-0.2-0.7-0.4C472.2,119.59,471.9,119.19,471.6,118.59z"/>
		<path class="st1" d="M497.8,121.19c-0.4,0-0.7,0-1-0.1s-0.6-0.1-0.8-0.2v3.5c-0.1,0-0.3,0.1-0.6,0.1c-0.2,0-0.5,0.1-0.8,0.1
			c-0.6,0-1.1-0.1-1.3-0.3c-0.3-0.2-0.4-0.6-0.4-1.1v-9.6c0-0.3,0.1-0.6,0.2-0.8c0.1-0.2,0.4-0.4,0.6-0.6c0.4-0.2,0.9-0.5,1.6-0.6
			s1.4-0.2,2.1-0.2c0.8,0,1.5,0.1,2.2,0.3s1.2,0.5,1.7,0.9s0.8,0.9,1.1,1.5s0.4,1.4,0.4,2.2s-0.1,1.5-0.4,2.2
			c-0.3,0.6-0.6,1.2-1.1,1.6c-0.5,0.4-1,0.7-1.6,1C499.2,121.09,498.5,121.19,497.8,121.19z M497.3,118.79c0.7,0,1.3-0.2,1.7-0.7
			c0.4-0.4,0.6-1.1,0.6-2s-0.2-1.6-0.6-2c-0.4-0.4-0.9-0.6-1.6-0.6c-0.3,0-0.6,0-0.8,0.1s-0.4,0.2-0.6,0.2v4.6
			c0.2,0.1,0.4,0.2,0.6,0.2C496.8,118.79,497,118.79,497.3,118.79z"/>
		<path class="st1" d="M512.6,111.29c0.7,0,1.4,0.1,1.9,0.2c0.6,0.1,1.1,0.3,1.5,0.6s0.7,0.7,1,1.1c0.2,0.4,0.3,1,0.3,1.6v4.4
			c0,0.3-0.1,0.6-0.3,0.8s-0.4,0.4-0.7,0.5c-0.4,0.2-0.9,0.4-1.6,0.6c-0.6,0.1-1.3,0.2-2.1,0.2c-1.4,0-2.5-0.3-3.4-0.8
			c-0.8-0.5-1.3-1.3-1.3-2.3c0-0.9,0.3-1.6,0.8-2c0.6-0.5,1.4-0.8,2.6-0.9l2.7-0.3v-0.2c0-0.4-0.2-0.7-0.5-0.9
			c-0.4-0.2-0.9-0.3-1.5-0.3c-0.5,0-1,0.1-1.5,0.2c-0.5,0.1-0.9,0.3-1.3,0.4c-0.2-0.1-0.3-0.3-0.4-0.5c-0.1-0.2-0.2-0.4-0.2-0.7
			c0-0.6,0.3-1,0.9-1.2c0.4-0.1,0.9-0.2,1.4-0.3C511.5,111.29,512.1,111.29,512.6,111.29z M512.7,118.99c0.3,0,0.6,0,0.9-0.1
			c0.3-0.1,0.5-0.1,0.7-0.2v-1.8l-1.7,0.1c-0.4,0-0.8,0.1-1.1,0.3s-0.4,0.4-0.4,0.7s0.1,0.6,0.4,0.7
			C511.7,118.89,512.1,118.99,512.7,118.99z"/>
		<path class="st1" d="M526.5,120.89c-0.1,0-0.3,0.1-0.6,0.1c-0.2,0-0.5,0-0.8,0c-0.6,0-1.1-0.1-1.3-0.3c-0.3-0.2-0.4-0.6-0.4-1.1
			v-5.9c0-0.4,0.1-0.7,0.3-0.9c0.2-0.3,0.5-0.5,0.8-0.7c0.5-0.3,1-0.5,1.6-0.6s1.3-0.2,2-0.2c1.4,0,2.1,0.5,2.1,1.4
			c0,0.2,0,0.4-0.1,0.6c-0.1,0.2-0.1,0.3-0.2,0.5c-0.3-0.1-0.7-0.1-1.2-0.1c-0.4,0-0.8,0-1.2,0.1s-0.7,0.2-1,0.4L526.5,120.89
			L526.5,120.89z"/>
		<path class="st1" d="M539.1,118.59c0.2,0.2,0.6,0.2,1,0.2c0.2,0,0.4,0,0.7-0.1s0.4-0.1,0.6-0.2c0.1,0.1,0.2,0.3,0.3,0.4
			c0.1,0.2,0.1,0.4,0.1,0.6c0,0.5-0.2,0.8-0.6,1.1c-0.4,0.3-1,0.4-2,0.4c-1.2,0-2-0.2-2.7-0.7c-0.6-0.5-1-1.3-1-2.4v-8.7
			c0.1,0,0.3-0.1,0.6-0.1c0.2,0,0.5-0.1,0.8-0.1c0.6,0,1,0.1,1.3,0.3s0.4,0.6,0.4,1.1v1.3h2.8c0.1,0.1,0.1,0.3,0.2,0.5
			c0.1,0.2,0.1,0.4,0.1,0.6c0,0.4-0.1,0.7-0.3,0.9s-0.5,0.3-0.8,0.3h-2.1v3.8C538.7,118.19,538.8,118.39,539.1,118.59z"/>
		<path class="st1" d="M553.4,113.89c-0.3-0.2-0.7-0.3-1.1-0.3c-0.3,0-0.6,0-0.9,0.1c-0.3,0.1-0.5,0.2-0.8,0.3v6.9
			c-0.1,0-0.3,0.1-0.6,0.1c-0.2,0-0.5,0-0.8,0c-0.6,0-1.1-0.1-1.3-0.3c-0.3-0.2-0.4-0.6-0.4-1.1v-6c0-0.3,0.1-0.6,0.2-0.8
			c0.1-0.2,0.4-0.4,0.6-0.6c0.4-0.3,1-0.5,1.7-0.7s1.5-0.3,2.3-0.3c1.5,0,2.6,0.3,3.5,0.9c0.8,0.6,1.2,1.5,1.2,2.7v6
			c-0.1,0-0.3,0.1-0.6,0.1c-0.2,0-0.5,0-0.8,0c-0.6,0-1.1-0.1-1.3-0.3s-0.4-0.6-0.4-1.1v-4.7
			C553.8,114.49,553.7,114.09,553.4,113.89z"/>
		<path class="st1" d="M565.8,117.49c0.2,0.5,0.5,0.9,1,1.2c0.5,0.2,1,0.3,1.7,0.3c0.6,0,1.1-0.1,1.6-0.2c0.5-0.1,0.9-0.3,1.2-0.5
			c0.2,0.1,0.4,0.3,0.5,0.5s0.2,0.4,0.2,0.7s-0.1,0.6-0.3,0.8s-0.5,0.4-0.8,0.6c-0.3,0.1-0.7,0.3-1.2,0.3c-0.5,0.1-1,0.1-1.5,0.1
			c-0.8,0-1.6-0.1-2.2-0.3c-0.7-0.2-1.3-0.5-1.8-1c-0.5-0.4-0.9-0.9-1.2-1.6c-0.3-0.6-0.4-1.4-0.4-2.2s0.1-1.5,0.4-2.2
			c0.3-0.6,0.7-1.1,1.1-1.5c0.5-0.4,1-0.7,1.6-0.9s1.2-0.3,1.9-0.3s1.3,0.1,1.9,0.3c0.6,0.2,1.1,0.5,1.5,0.8c0.4,0.4,0.7,0.8,1,1.3
			s0.3,1.1,0.3,1.7c0,0.4-0.1,0.7-0.3,0.9s-0.6,0.3-1,0.4L565.8,117.49z M567.7,113.49c-0.6,0-1.1,0.2-1.5,0.5s-0.6,0.8-0.7,1.5
			l3.9-0.6c0-0.3-0.2-0.7-0.5-1C568.7,113.59,568.3,113.49,567.7,113.49z"/>
		<path class="st1" d="M581.2,120.89c-0.1,0-0.3,0.1-0.6,0.1c-0.2,0-0.5,0-0.8,0c-0.6,0-1.1-0.1-1.3-0.3c-0.3-0.2-0.4-0.6-0.4-1.1
			v-5.9c0-0.4,0.1-0.7,0.3-0.9c0.2-0.3,0.5-0.5,0.8-0.7c0.5-0.3,1-0.5,1.6-0.6s1.3-0.2,2-0.2c1.4,0,2.1,0.5,2.1,1.4
			c0,0.2,0,0.4-0.1,0.6c-0.1,0.2-0.1,0.3-0.2,0.5c-0.3-0.1-0.7-0.1-1.2-0.1c-0.4,0-0.8,0-1.2,0.1s-0.7,0.2-1,0.4L581.2,120.89
			L581.2,120.89z"/>
	</g>
</g>
</svg>
