<?xml version="1.0" encoding="utf-8"?>
<!-- Generator: Adobe Illustrator 27.8.0, SVG Export Plug-In . SVG Version: 6.00 Build 0)  -->
<svg version="1.1" id="Layer_1" xmlns="http://www.w3.org/2000/svg" xmlns:xlink="http://www.w3.org/1999/xlink" x="0px" y="0px"
	 viewBox="0 0 100 100" style="enable-background:new 0 0 100 100;" xml:space="preserve">
<style type="text/css">
	.st0{fill:#1D2587;}
</style>
<path class="st0" d="M25.5,81.8l-2.3,3.4c-0.8,1.3-2,2.2-3.5,2.6c-1.5,0.4-3,0.2-4.4-0.6c-0.7-0.4-1.2-0.8-1.7-1.4
	c-0.5-0.6-0.8-1.2-1-1.9s-0.2-1.4-0.1-2.1s0.3-1.4,0.7-2l1.4-2c0.6-0.8,1.9-2.1,4.6-1.8c0,0,6.4,0.7,6.8,3.8
	C26.2,79.8,26.3,80.8,25.5,81.8z M89.3,59.7H75.7c-0.9-0.1-1.3-0.4-1.5-0.6l0,0l-13-20.3c-1.4-2.1-3.7,3.2-3.7,3.2
	C54.9,48,57.9,54.8,59,56.8l17.7,28.4c0.8,1.3,2,2.2,3.5,2.6c1.5,0.4,3,0.2,4.4-0.6c0.7-0.4,1.2-0.8,1.7-1.4c0.5-0.6,0.8-1.2,1-1.9
	c0.2-0.7,0.2-1.4,0.1-2.1s-0.3-1.4-0.7-2l-5-8.3c-0.1-0.2-0.3-0.7,0.8-0.8h6.8c3.2,0,5.7-2.5,5.7-5.5C95,62.1,92.4,59.7,89.3,59.7z
	 M56.6,67.1c0,0,0.7,3.5-2.1,3.5H10.7c-3.2,0-5.7-2.5-5.7-5.5c0-3,2.6-5.5,5.7-5.5h12.9c2.1-0.1,2.6-1.3,2.6-1.3l0,0L43,30.6
	c0.1-0.2,0.1-0.4,0.1-0.6c0-0.2,0-0.4-0.1-0.6l-5.6-9.2c-0.4-0.6-0.6-1.3-0.7-2c-0.1-0.7,0-1.4,0.1-2.1c0.2-0.7,0.5-1.4,1-1.9
	c0.5-0.6,1-1,1.7-1.4c1.3-0.7,2.9-0.9,4.4-0.6c1.5,0.4,2.7,1.3,3.5,2.6L50,19l2.6-4.3c0.8-1.3,2-2.2,3.5-2.6c1.5-0.4,3-0.2,4.4,0.6
	c0.7,0.4,1.2,0.8,1.7,1.4c0.5,0.6,0.8,1.2,1,1.9c0.2,0.7,0.2,1.4,0.1,2.1c-0.1,0.7-0.3,1.4-0.7,2L39.1,59c-0.1,0.2-0.1,0.6,0.6,0.7
	h7.7C47.4,59.7,55.5,59.9,56.6,67.1z"/>
</svg>
