<?xml version="1.0" encoding="utf-8"?>
<!-- Generator: Adobe Illustrator 27.8.0, SVG Export Plug-In . SVG Version: 6.00 Build 0)  -->
<svg version="1.1" id="Layer_1" xmlns="http://www.w3.org/2000/svg" xmlns:xlink="http://www.w3.org/1999/xlink" x="0px" y="0px"
	 viewBox="0 0 48 48" style="enable-background:new 0 0 48 48;" xml:space="preserve">
<style type="text/css">
	.st0{fill-rule:evenodd;clip-rule:evenodd;fill:#1D2587;}
</style>
<path class="st0" d="M16.8,6.5c0.6-1.2,1.8-2,3.2-2h8c1.4,0,2.6,0.8,3.2,2c1.4,0,2.4,0.1,3.4,0.4c1.1,0.4,2.1,1.2,2.9,2.2
	c0.7,1,1.1,2.3,1.6,4l1.5,5.4l0.6,1.7l0,0.1c1.8,2.3,0.9,5.7-0.8,12.6c-1.1,4.4-1.6,6.5-3.3,7.8C35.4,42,33.1,42,28.6,42h-9.3
	c-4.5,0-6.8,0-8.4-1.3c-1.6-1.3-2.2-3.5-3.3-7.8C6,26,5.2,22.6,7,20.3l0-0.1l0.6-1.7L9,13.1c0.5-1.7,0.8-3,1.6-4
	c0.7-1,1.7-1.7,2.9-2.2C14.4,6.6,15.5,6.5,16.8,6.5z M16.8,9.5c-1.3,0-1.9,0.1-2.3,0.2c-0.6,0.2-1.1,0.6-1.5,1.2
	c-0.4,0.5-0.6,1.1-1.1,3.3l-1.1,4.2c2-0.4,4.8-0.4,8.6-0.4h9.3c3.8,0,6.6,0,8.6,0.4l-1.1-4.2c-0.6-2.1-0.8-2.8-1.1-3.3
	c-0.4-0.5-0.9-0.9-1.5-1.2c-0.4-0.2-1-0.2-2.3-0.2c-0.3,0.6-0.7,1.1-1.3,1.5c-0.6,0.4-1.2,0.5-1.9,0.5h-8c-0.7,0-1.3-0.2-1.9-0.5
	C17.6,10.6,17.1,10.1,16.8,9.5z"/>
</svg>
