<?xml version="1.0" encoding="utf-8"?>
<!-- Generator: Adobe Illustrator 27.8.0, SVG Export Plug-In . SVG Version: 6.00 Build 0)  -->
<svg version="1.1" id="Layer_1" xmlns="http://www.w3.org/2000/svg" xmlns:xlink="http://www.w3.org/1999/xlink" x="0px" y="0px"
	 viewBox="0 0 24 24" style="enable-background:new 0 0 24 24;" xml:space="preserve">
<style type="text/css">
	.st0{fill:#1D2587;}
</style>
<path class="st0" d="M16.3,19.4c0.2,0.2,0.4,0.2,0.6,0l2.7-2.7l-0.7-0.7l-2.2,2.2c-0.1,0.1-0.2,0.1-0.2,0l-0.9-0.9L14.9,18
	L16.3,19.4z M5.4,8h11V7h-11L5.4,8z M17.3,22.1c-1.2,0-2.2-0.4-3-1.2c-0.8-0.8-1.2-1.8-1.2-3c0-1.2,0.4-2.2,1.2-3
	c0.8-0.8,1.8-1.2,3-1.2c1.2,0,2.2,0.4,3,1.2c0.8,0.8,1.2,1.8,1.2,3c0,1.2-0.4,2.2-1.2,3C19.4,21.7,18.4,22.1,17.3,22.1z M2.5,20.7
	V4.8c0-0.5,0.2-0.9,0.5-1.2c0.3-0.3,0.7-0.5,1.2-0.5h13.4c0.5,0,0.9,0.2,1.2,0.5c0.3,0.3,0.5,0.7,0.5,1.2V11
	c-0.2-0.1-0.3-0.1-0.5-0.2c-0.2,0-0.3-0.1-0.5-0.1v-6c0-0.2-0.1-0.3-0.2-0.4c-0.1-0.1-0.3-0.2-0.4-0.2H4.2c-0.2,0-0.3,0.1-0.4,0.2
	C3.7,4.4,3.6,4.6,3.6,4.8v14.1h6.7c0,0.3,0.1,0.6,0.2,0.8c0.1,0.3,0.2,0.5,0.3,0.8l0,0l-1.2-0.9l-1.4,1l-1.4-1l-1.4,1l-1.4-1
	L2.5,20.7z M5.4,16h5c0-0.2,0.1-0.4,0.1-0.5c0.1-0.2,0.1-0.3,0.2-0.5H5.4V16z M5.4,12h7.7c0.3-0.3,0.7-0.5,1.1-0.7
	c0.4-0.2,0.8-0.3,1.3-0.4H5.4L5.4,12z"/>
</svg>
