<?xml version="1.0" encoding="utf-8"?>
<!-- Generator: Adobe Illustrator 27.8.0, SVG Export Plug-In . SVG Version: 6.00 Build 0)  -->
<svg version="1.1" id="Layer_1" xmlns="http://www.w3.org/2000/svg" xmlns:xlink="http://www.w3.org/1999/xlink" x="0px" y="0px"
	 viewBox="0 0 48 48" style="enable-background:new 0 0 48 48;" xml:space="preserve">
<style type="text/css">
	.st0{fill:#8E9AEF;}
</style>
<path class="st0" d="M38,14c0-2.2-1.8-4-4-4h-4c-1.1,0-2,0.9-2,2s0.9,2,2,2h4v5.3L27,28h-7v-8c0-1.1-0.9-2-2-2h-6c-4.4,0-8,3.6-8,8
	v4c0,1.1,0.9,2,2,2h2c0,3.3,2.7,6,6,6s6-2.7,6-6h7c1.2,0,2.4-0.6,3.1-1.5l7-8.7c0.6-0.7,0.9-1.6,0.9-2.5V14z M14,34
	c-1.1,0-2-0.9-2-2h4C16,33.1,15.1,34,14,34z"/>
<path class="st0" d="M12,12h6c1.1,0,2,0.9,2,2s-0.9,2-2,2h-6c-1.1,0-2-0.9-2-2S10.9,12,12,12z M38,26c-3.3,0-6,2.7-6,6s2.7,6,6,6
	s6-2.7,6-6S41.3,26,38,26z M38,34c-1.1,0-2-0.9-2-2c0-1.1,0.9-2,2-2s2,0.9,2,2C40,33.1,39.1,34,38,34z"/>
</svg>
