<?xml version="1.0" encoding="utf-8"?>
<!-- Generator: Adobe Illustrator 27.8.0, SVG Export Plug-In . SVG Version: 6.00 Build 0)  -->
<svg version="1.1" id="Layer_1" xmlns="http://www.w3.org/2000/svg" xmlns:xlink="http://www.w3.org/1999/xlink" x="0px" y="0px"
	 viewBox="0 0 48 48" style="enable-background:new 0 0 48 48;" xml:space="preserve">
<style type="text/css">
	.st0{fill:#FFFFFF;}
</style>
<path class="st0" d="M48,11.4v25.2C48,42.9,42.9,48,36.6,48h-8.8V30.9h5.6l1.1-6.9h-6.7v-4.5c0-1.9,0.9-3.8,3.9-3.8h3V9.8
	c0,0-2.8-0.5-5.4-0.5c-5.5,0-9.1,3.3-9.1,9.3V24h-6.1v6.9h6.1V48h-8.8C5.1,48,0,42.9,0,36.6V11.4C0,5.1,5.1,0,11.4,0h25.2
	C42.9,0,48,5.1,48,11.4z"/>
</svg>
