<?xml version="1.0" encoding="utf-8"?>
<!-- Generator: Adobe Illustrator 27.8.0, SVG Export Plug-In . SVG Version: 6.00 Build 0)  -->
<svg version="1.1" id="Layer_1" xmlns="http://www.w3.org/2000/svg" xmlns:xlink="http://www.w3.org/1999/xlink" x="0px" y="0px"
	 viewBox="0 0 300 300" style="enable-background:new 0 0 300 300;" xml:space="preserve">
<style type="text/css">
	.st0{fill:#1D2587;}
</style>
<path class="st0" d="M37.5,103.3v-0.2c0-16.7,4.9-33,14.2-46.8c9.3-13.9,22.4-24.7,37.8-31.1s32.3-8.1,48.7-4.9s31.4,11.2,43.2,23
	c9.3-4.6,19.7-6.5,30-5.6c10.3,0.9,20.2,4.7,28.5,10.9c8.3,6.2,14.8,14.6,18.6,24.2c3.9,9.6,5,20.1,3.2,30.4c2.6,0.2,5.1,1,7.3,2.2
	c2.3,1.2,4.2,2.9,5.8,5c1.6,2,2.7,4.4,3.3,6.9c0.6,2.5,0.7,5.1,0.3,7.6c-8.5,51-29.4,83.2-62.9,96.8v12.6c0,7.5-3,14.6-8.2,19.9
	c-5.3,5.3-12.4,8.2-19.9,8.2h-75c-7.5,0-14.6-3-19.9-8.2c-5.3-5.3-8.2-12.4-8.2-19.9v-12.6C51,208.2,30,175.9,21.5,124.9
	c-0.4-2.5-0.3-5,0.3-7.4c0.6-2.4,1.7-4.7,3.1-6.8c1.5-2,3.4-3.7,5.5-5C32.6,104.5,35,103.7,37.5,103.3L37.5,103.3z M56.2,103.1H75
	c0-12.4,4.9-24.4,13.7-33.1s20.7-13.7,33.1-13.7c12.4,0,24.4,4.9,33.1,13.7s13.7,20.7,13.7,33.1h18.8c0-17.4-6.9-34.1-19.2-46.4
	c-12.3-12.3-29-19.2-46.4-19.2c-17.4,0-34.1,6.9-46.4,19.2C63.2,69,56.2,85.7,56.2,103.1z M93.7,103.1H150c0-7.5-3-14.6-8.2-19.9
	c-5.3-5.3-12.4-8.2-19.9-8.2c-7.5,0-14.6,3-19.9,8.2C96.7,88.5,93.7,95.7,93.7,103.1z M222.5,103.1h20.1c1.4-5.5,1.5-11.3,0.4-16.9
	c-1.2-5.6-3.6-10.9-7.1-15.4c-3.5-4.5-8-8.2-13.1-10.7c-5.1-2.5-10.8-3.8-16.5-3.9c-4.5,0-8.8,0.8-12.8,2.2
	c3.3,5.3,6.1,11.1,8.2,17.1c3.6-0.9,7.3-0.7,10.8,0.5c3.5,1.2,6.5,3.4,8.7,6.4c2.2,2.9,3.5,6.5,3.8,10.1
	C225.2,96.3,224.3,99.9,222.5,103.1z M196.9,225h-93.8v9.4c0,2.5,1,4.9,2.7,6.6c1.8,1.8,4.1,2.7,6.6,2.7h75c2.5,0,4.9-1,6.6-2.7
	c1.8-1.8,2.7-4.1,2.7-6.6V225z M96.5,206.2h107c29.7-9.6,48.6-36.6,56.5-84.4H40C48,169.6,66.8,196.7,96.5,206.2z"/>
</svg>
