<?xml version="1.0" encoding="utf-8"?>
<!-- Generator: Adobe Illustrator 27.8.0, SVG Export Plug-In . SVG Version: 6.00 Build 0)  -->
<svg version="1.1" id="Layer_1" xmlns="http://www.w3.org/2000/svg" xmlns:xlink="http://www.w3.org/1999/xlink" x="0px" y="0px"
	 viewBox="0 0 300 300" style="enable-background:new 0 0 300 300;" xml:space="preserve">
<style type="text/css">
	.st0{fill:#1D2587;}
</style>
<path class="st0" d="M200,275c-20.8,0-38.5-7.3-53.1-21.9C132.3,238.5,125,220.8,125,200s7.3-38.5,21.9-53.1S179.2,125,200,125
	s38.5,7.3,53.1,21.9c14.6,14.6,21.9,32.3,21.9,53.1s-7.3,38.5-21.9,53.1C238.5,267.7,220.8,275,200,275z M200,250
	c13.8,0,25.5-4.9,35.3-14.7c9.8-9.8,14.7-21.6,14.7-35.3s-4.9-25.5-14.7-35.3c-9.8-9.8-21.6-14.7-35.3-14.7s-25.5,4.9-35.3,14.7
	c-9.8,9.8-14.7,21.6-14.7,35.3s4.9,25.5,14.7,35.3C174.5,245.1,186.2,250,200,250z M50,250c-6.9,0-12.8-2.4-17.7-7.3
	c-4.9-4.9-7.3-10.8-7.3-17.7v-95c0-1.7,0.2-3.3,0.5-5s0.8-3.3,1.4-5l25-57.5H50c-3.5,0-6.5-1.2-8.9-3.6c-2.4-2.4-3.6-5.4-3.6-8.9
	V39.5c0-3.5,1.2-6.5,3.6-8.9c2.4-2.4,5.4-3.6,8.9-3.6h87.5c3.5,0,6.5,1.2,8.9,3.6c2.4,2.4,3.6,5.4,3.6,8.9V50c0,3.5-1.2,6.5-3.6,8.9
	c-2.4,2.4-5.4,3.6-8.9,3.6h-1.9l20.6,47.5c-4,1.8-7.7,3.7-11.2,6.6c-3.6,2.9-4.7,4.2-8,7.8l-25.1-59.2c-0.7-1.6-2.3-2.7-4-2.7H79.7
	c-1.8,0-3.4,1.1-4,2.7L49.3,127c-0.8,1.9-1.3,4-1.3,6.2V221c0,3.3,2.7,6,6,6h49.1c1,4.4,2.3,7.5,4,11.7c1.8,4.3,4.1,7.5,6.6,11.3H50
	z M200,112.5c-8.8,0-16.1-3-22.2-9.1c-6-6-9.1-13.4-9.1-22.2s3-16.1,9.1-22.2c6-6,13.4-9.1,22.2-9.1V112.5z M200,112.5
	c0-8.8,3-16.1,9.1-22.2c6-6,13.4-9.1,22.2-9.1s16.1,3,22.2,9.1c6,6,9.1,13.4,9.1,22.2H200z"/>
</svg>
