<?xml version="1.0" encoding="utf-8"?>
<!-- Generator: Adobe Illustrator 27.8.0, SVG Export Plug-In . SVG Version: 6.00 Build 0)  -->
<svg version="1.1" id="Layer_1" xmlns="http://www.w3.org/2000/svg" xmlns:xlink="http://www.w3.org/1999/xlink" x="0px" y="0px"
	 viewBox="0 0 24 24" style="enable-background:new 0 0 24 24;" xml:space="preserve">
<style type="text/css">
	.st0{fill:#1D2587;}
</style>
<g>
	<path class="st0" d="M20.6,21.3H3.4c-0.4,0-0.6-0.3-0.6-0.6S3,20,3.4,20h17.3c0.4,0,0.6,0.3,0.6,0.6S21,21.3,20.6,21.3z"/>
</g>
<g>
	<path class="st0" d="M20.4,20.6h-1.3v-6.5c0-0.1-0.1-0.3-0.2-0.5c-0.1,0-0.2-0.1-0.5-0.1h-2.6c-0.1,0-0.3,0.1-0.5,0.2
		c0,0.1-0.1,0.2-0.1,0.5v6.5h-1.3v-6.5c0-0.6,0.2-1.1,0.5-1.4l0.1-0.1c0.5-0.3,0.9-0.5,1.3-0.5h2.6c0.6,0,1.1,0.2,1.4,0.5l0.1,0.1
		c0.3,0.5,0.5,0.9,0.5,1.3V20.6z"/>
</g>
<g>
	<path class="st0" d="M14.6,21.3c-0.4,0-0.6-0.3-0.6-0.6V9.4c0-0.4,0.3-0.6,0.6-0.6s0.6,0.3,0.6,0.6v11.2C15.2,21,15,21.3,14.6,21.3
		z M9.4,21.3c-0.4,0-0.6-0.3-0.6-0.6V5.9c0-1.3,0-2,0.5-2.7c0,0,0.1-0.1,0.1-0.1C10,2.7,10.7,2.7,12,2.7c1.3,0,2,0,2.7,0.5
		c0,0,0.1,0.1,0.1,0.1c0.5,0.6,0.5,1.3,0.5,2.7c0,0.4-0.3,0.6-0.6,0.6s-0.6-0.3-0.6-0.6c0-1,0-1.5-0.2-1.8C13.5,4,13,4,12,4
		c-1,0-1.5,0-1.8,0.2c-0.2,0.3-0.2,0.8-0.2,1.8v14.7C10.1,21,9.8,21.3,9.4,21.3z"/>
</g>
<g>
	<path class="st0" d="M9.4,21.3c-0.4,0-0.6-0.3-0.6-0.6V9.8c0-0.1-0.1-0.3-0.2-0.5C8.4,9.3,8.2,9.2,8.1,9.2H5.5
		C5.4,9.2,5.2,9.3,5,9.4C4.9,9.5,4.9,9.7,4.9,9.8v5.6c0,0.4-0.3,0.6-0.6,0.6c-0.4,0-0.6-0.3-0.6-0.6V9.8C3.6,9.4,3.7,9,4,8.5
		l0.1-0.1l0.1-0.1C4.7,8,5.1,7.9,5.5,7.9h2.6C8.5,7.9,9,8,9.4,8.3l0.1,0.1l0.1,0.1c0.3,0.5,0.5,0.9,0.5,1.3v10.8
		C10.1,21,9.8,21.3,9.4,21.3z M4.2,21.3c-0.4,0-0.6-0.3-0.6-0.6v-1.9c0-0.4,0.3-0.6,0.6-0.6c0.4,0,0.6,0.3,0.6,0.6v1.9
		C4.9,21,4.6,21.3,4.2,21.3z"/>
</g>
</svg>
