<?xml version="1.0" encoding="utf-8"?>
<!-- Generator: Adobe Illustrator 27.8.0, SVG Export Plug-In . SVG Version: 6.00 Build 0)  -->
<svg version="1.1" id="Layer_1" xmlns="http://www.w3.org/2000/svg" xmlns:xlink="http://www.w3.org/1999/xlink" x="0px" y="0px"
	 viewBox="0 0 24 24" style="enable-background:new 0 0 24 24;" xml:space="preserve">
<style type="text/css">
	.st0{fill:#1D2587;}
</style>
<g>
	<path class="st0" d="M7.5,15.3c-0.2,0-0.4-0.1-0.5-0.2c-0.3-0.3-0.3-0.8,0-1.1l3-3c0.3-0.3,0.8-0.3,1.1,0l1.5,1.5L15,10
		c0.3-0.3,0.8-0.3,1.1,0s0.3,0.8,0,1.1l-3,3c-0.3,0.3-0.8,0.3-1.1,0l-1.5-1.5L8,15C7.9,15.2,7.7,15.3,7.5,15.3z"/>
</g>
<g>
	<path class="st0" d="M15.8,20.8H7.2c-1.2,0-1.9,0-2.4-0.3c-0.5-0.3-0.9-0.7-1.2-1.2c-0.3-0.6-0.3-1.2-0.3-2.4V8.2
		c0-1.2,0-1.9,0.3-2.4c0.3-0.5,0.7-0.9,1.2-1.2C5.3,4.3,6,4.3,7.2,4.3H14c0.4,0,0.8,0.3,0.8,0.8S14.4,5.8,14,5.8H7.2
		c-1,0-1.5,0-1.8,0.1C5.2,6,5,6.2,4.9,6.4C4.8,6.7,4.8,7.2,4.8,8.2v8.6c0,1,0,1.5,0.1,1.8C5,18.8,5.2,19,5.4,19.1
		c0.3,0.1,0.8,0.1,1.8,0.1h8.6c1,0,1.5,0,1.8-0.1c0.2-0.1,0.4-0.3,0.5-0.5c0.1-0.3,0.1-0.8,0.1-1.8V10c0-0.4,0.3-0.8,0.8-0.8
		s0.8,0.3,0.8,0.8v6.8c0,1.2,0,1.9-0.3,2.4c-0.3,0.5-0.7,0.9-1.2,1.2C17.7,20.8,17,20.8,15.8,20.8z"/>
</g>
<path class="st0" d="M19,7c1.1,0,2-0.9,2-2s-0.9-2-2-2s-2,0.9-2,2S17.9,7,19,7z"/>
</svg>
