<?xml version="1.0" encoding="utf-8"?>
<!-- Generator: Adobe Illustrator 27.8.0, SVG Export Plug-In . SVG Version: 6.00 Build 0)  -->
<svg version="1.1" id="Layer_1" xmlns="http://www.w3.org/2000/svg" xmlns:xlink="http://www.w3.org/1999/xlink" x="0px" y="0px"
	 viewBox="0 0 48 48" style="enable-background:new 0 0 48 48;" xml:space="preserve">
<style type="text/css">
	.st0{fill:#FFFFFF;}
</style>
<path class="st0" d="M36,0H12C5.4,0,0,5.4,0,12v24c0,6.6,5.4,12,12,12h24c6.6,0,12-5.4,12-12V12C48,5.4,42.6,0,36,0z M15.4,40.1H8.6
	V18.3h6.8V40.1z M12,15.4c-2.2,0-3.9-1.8-3.9-3.9c0-2.2,1.8-3.9,3.9-3.9c2.2,0,3.9,1.8,3.9,3.9C15.9,13.6,14.2,15.4,12,15.4z
	 M40.7,40.1H34V29.5c0-2.5,0-5.8-3.5-5.8c-3.5,0-4,2.8-4,5.6v10.8h-6.8V18.3h6.5v3h0.1c0.9-1.7,3.1-3.5,6.4-3.5
	c6.9,0,8.1,4.5,8.1,10.4V40.1z"/>
</svg>
