<?xml version="1.0" encoding="utf-8"?>
<!-- Generator: Adobe Illustrator 27.8.0, SVG Export Plug-In . SVG Version: 6.00 Build 0)  -->
<svg version="1.1" id="Layer_1" xmlns="http://www.w3.org/2000/svg" xmlns:xlink="http://www.w3.org/1999/xlink" x="0px" y="0px"
	 viewBox="0 0 48 48" style="enable-background:new 0 0 48 48;" xml:space="preserve">
<style type="text/css">
	.st0{fill:#8E9AEF;}
</style>
<path class="st0" d="M24,15.5c-1.6,0-3.1,0.6-4.2,1.8c-1.1,1.1-1.8,2.7-1.8,4.2s0.6,3.1,1.8,4.2c1.1,1.1,2.7,1.8,4.2,1.8
	c1.6,0,3.1-0.6,4.2-1.8c1.1-1.1,1.8-2.7,1.8-4.2s-0.6-3.1-1.8-4.2C27.1,16.1,25.6,15.5,24,15.5z M20.5,21.5c0-0.9,0.4-1.8,1-2.5
	c0.7-0.7,1.5-1,2.5-1c0.9,0,1.8,0.4,2.5,1c0.7,0.7,1,1.5,1,2.5s-0.4,1.8-1,2.5c-0.7,0.7-1.5,1-2.5,1c-0.9,0-1.8-0.4-2.5-1
	C20.9,23.3,20.5,22.4,20.5,21.5z M37,32L26.9,42.7c-0.4,0.4-0.8,0.7-1.3,0.9c-0.5,0.2-1,0.3-1.6,0.3s-1.1-0.1-1.6-0.3
	c-0.5-0.2-1-0.5-1.3-0.9L11,32h0l0,0l0,0C8.4,28.9,7,25,7,21c0-9.4,7.6-17,17-17s17,7.6,17,17C41,25,39.6,28.9,37,32L37,32L37,32
	L37,32z M35.1,30.4c2.2-2.6,3.4-5.9,3.4-9.4C38.5,13,32,6.5,24,6.5S9.5,13,9.5,21c0,3.4,1.2,6.8,3.4,9.4l0.3,0.4L22.9,41
	c0.1,0.1,0.3,0.3,0.5,0.3s0.4,0.1,0.6,0.1c0.2,0,0.4,0,0.6-0.1c0.2-0.1,0.4-0.2,0.5-0.3l9.7-10.3L35.1,30.4z"/>
</svg>
