<?xml version="1.0" encoding="utf-8"?>
<!-- Generator: Adobe Illustrator 27.8.0, SVG Export Plug-In . SVG Version: 6.00 Build 0)  -->
<svg version="1.1" id="Layer_1" xmlns="http://www.w3.org/2000/svg" xmlns:xlink="http://www.w3.org/1999/xlink" x="0px" y="0px"
	 viewBox="0 0 300 300" style="enable-background:new 0 0 300 300;" xml:space="preserve">
<style type="text/css">
	.st0{fill-rule:evenodd;clip-rule:evenodd;fill:#1D2587;}
</style>
<path class="st0" d="M105,35c-2.3,0-4.5,0.9-6.2,2.6c-1.6,1.6-2.6,3.9-2.6,6.2s0.9,4.5,2.6,6.2c1.6,1.6,3.9,2.6,6.2,2.6h90
	c1.1,0,2.3-0.2,3.3-0.7c1.1-0.4,2-1.1,2.8-1.9c0.8-0.8,1.5-1.8,1.9-2.8s0.7-2.2,0.7-3.3s-0.2-2.3-0.7-3.3s-1.1-2-1.9-2.8
	c-0.8-0.8-1.8-1.5-2.8-1.9c-1.1-0.4-2.2-0.7-3.3-0.7H105z M84.7,23.4C90.1,18,97.4,15,105,15h90c3.8,0,7.5,0.7,11,2.2
	c3.5,1.4,6.7,3.6,9.3,6.2c2.7,2.7,4.8,5.8,6.2,9.3c1.4,3.5,2.2,7.2,2.2,11s-0.7,7.5-2.2,11c-1.4,3.5-3.6,6.7-6.2,9.3
	c-2.7,2.7-5.8,4.8-9.3,6.2c-3.5,1.4-7.2,2.2-11,2.2h-90c-7.6,0-14.9-3-20.3-8.4s-8.4-12.7-8.4-20.3S79.3,28.8,84.7,23.4z M101.5,110
	c-1.3,0-2.6,0.3-3.8,0.9c-1.2,0.6-2.2,1.4-3,2.4c0,0,0,0,0,0l-27.7,34.5c-1.2,1.6-1.9,3.5-1.9,5.5v103c0,2.3,0.9,4.5,2.6,6.2
	c1.6,1.6,3.9,2.6,6.2,2.6h152.5c2.3,0,4.5-0.9,6.2-2.6c1.6-1.6,2.6-3.9,2.6-6.2v-103c0-2-0.7-3.9-1.9-5.5l-27.7-34.5c0,0,0,0,0,0
	c-0.8-1-1.9-1.8-3-2.4c-1.2-0.6-2.5-0.9-3.8-0.9H101.5C101.5,110,101.5,110,101.5,110z M89.1,92.8c3.9-1.9,8.1-2.8,12.4-2.8h97
	c0,0,0,0,0,0c4.3,0,8.5,1,12.4,2.8c3.9,1.9,7.3,4.6,10,7.9l0,0l27.7,34.5l0,0c4.1,5.1,6.3,11.5,6.3,18c0,0,0,0,0,0v103
	c0,7.6-3,14.9-8.4,20.3c-5.4,5.4-12.7,8.4-20.3,8.4H73.8c-7.6,0-14.9-3-20.3-8.4c-5.4-5.4-8.4-12.7-8.4-20.3v-103c0,0,0,0,0,0
	c0,0,0,0,0,0c0-6.6,2.2-12.9,6.3-18l27.7-34.5C81.8,97.4,85.2,94.7,89.1,92.8z"/>
<path class="st0" d="M150,140c5.5,0,10,4.5,10,10v27.5h27.5c5.5,0,10,4.5,10,10s-4.5,10-10,10H160V225c0,5.5-4.5,10-10,10
	s-10-4.5-10-10v-27.5h-27.5c-5.5,0-10-4.5-10-10s4.5-10,10-10H140V150C140,144.5,144.5,140,150,140z"/>
</svg>
