<?xml version="1.0" encoding="utf-8"?>
<!-- Generator: Adobe Illustrator 27.8.0, SVG Export Plug-In . SVG Version: 6.00 Build 0)  -->
<svg version="1.1" id="Layer_1" xmlns="http://www.w3.org/2000/svg" xmlns:xlink="http://www.w3.org/1999/xlink" x="0px" y="0px"
	 viewBox="0 0 24 24" style="enable-background:new 0 0 24 24;" xml:space="preserve">
<style type="text/css">
	.st0{fill:#8E9AEF;}
</style>
<path class="st0" d="M12,8c-2.2,0-4,1.8-4,4s1.8,4,4,4s4-1.8,4-4S14.2,8,12,8z M20.9,11c-0.2-2-1.1-3.9-2.6-5.4
	C16.9,4.2,15,3.3,13,3.1V2c0-0.5-0.4-1-1-1s-1,0.5-1,1v1.1C9,3.3,7.1,4.2,5.6,5.6C4.2,7.1,3.3,9,3.1,11H2c-0.5,0-1,0.4-1,1
	s0.5,1,1,1h1.1c0.2,2,1.1,3.9,2.6,5.4c1.4,1.4,3.3,2.4,5.4,2.6V22c0,0.5,0.4,1,1,1s1-0.5,1-1v-1.1c2-0.2,3.9-1.1,5.4-2.6
	c1.4-1.4,2.4-3.3,2.6-5.4H22c0.5,0,1-0.4,1-1s-0.5-1-1-1H20.9z M12,19c-3.9,0-7-3.1-7-7s3.1-7,7-7s7,3.1,7,7S15.9,19,12,19z"/>
</svg>
