<?xml version="1.0" encoding="utf-8"?>
<!-- Generator: Adobe Illustrator 27.8.0, SVG Export Plug-In . SVG Version: 6.00 Build 0)  -->
<svg version="1.1" id="Layer_1" xmlns="http://www.w3.org/2000/svg" xmlns:xlink="http://www.w3.org/1999/xlink" x="0px" y="0px"
	 viewBox="0 0 100 100" style="enable-background:new 0 0 100 100;" xml:space="preserve">
<style type="text/css">
	.st0{fill:#1D2587;}
</style>
<path class="st0" d="M54,48.4l12.3-12.3L26.5,13.7c-2.6-1.4-5.1-1.6-7.3-0.1L54,48.4z M68.4,62.8l12.8-7.2c2.5-1.4,3.9-3.4,3.9-5.6
	c0-2.2-1.4-4.2-3.9-5.6l-11.6-6.5L56.6,51L68.4,62.8z M17.1,16.7c-0.3,0.8-0.4,1.7-0.4,2.7v61.3c0,1.6,0.4,3,1,4L51.4,51L17.1,16.7z
	 M54,53.6L20.4,87.1c0.6,0.2,1.3,0.4,2.1,0.4c1.3,0,2.7-0.4,4-1.2l38.6-21.7L54,53.6z"/>
</svg>
