<?xml version="1.0" encoding="utf-8"?>
<!-- Generator: Adobe Illustrator 27.8.0, SVG Export Plug-In . SVG Version: 6.00 Build 0)  -->
<svg version="1.1" id="Layer_1" xmlns="http://www.w3.org/2000/svg" xmlns:xlink="http://www.w3.org/1999/xlink" x="0px" y="0px"
	 viewBox="0 0 24 24" style="enable-background:new 0 0 24 24;" xml:space="preserve">
<style type="text/css">
	.st0{fill:#1D2587;}
</style>
<g>
	<path class="st0" d="M13.9,21.7H5.7c-0.7,0-1.3-0.3-1.8-0.7s-0.7-1.1-0.7-1.8V4.8C3.2,4.1,3.5,3.5,4,3c0.5-0.5,1.1-0.7,1.8-0.7
		h12.6c0.7,0,1.3,0.3,1.8,0.7c0.5,0.5,0.7,1.1,0.7,1.8v10.8c0,0.4-0.3,0.7-0.7,0.7c-0.4,0-0.7-0.3-0.7-0.7V4.8
		c0-0.3-0.1-0.6-0.3-0.8c-0.2-0.2-0.5-0.3-0.8-0.3H5.7C5.4,3.7,5.1,3.8,4.9,4C4.7,4.2,4.6,4.5,4.6,4.8v14.4c0,0.3,0.1,0.6,0.3,0.8
		c0.2,0.2,0.5,0.3,0.8,0.3h8.1c0.4,0,0.7,0.3,0.7,0.7C14.5,21.4,14.2,21.7,13.9,21.7z"/>
</g>
<g>
	<path class="st0" d="M17.5,21.7c-0.2,0-0.3-0.1-0.5-0.2l-1.8-1.8c-0.3-0.3-0.3-0.7,0-1c0.3-0.3,0.7-0.3,1,0l1.3,1.3l3.1-3.1
		c0.3-0.3,0.7-0.3,1,0c0.3,0.3,0.3,0.7,0,1l-3.6,3.6C17.8,21.6,17.6,21.7,17.5,21.7z M20.2,9.1H13c-0.4,0-0.7-0.3-0.7-0.7V6.6
		c0-0.4,0.3-0.7,0.7-0.7s0.7,0.3,0.7,0.7v1.1h6.5c0.4,0,0.7,0.3,0.7,0.7C20.8,8.8,20.5,9.1,20.2,9.1z M11.1,9.1H3.9
		c-0.4,0-0.7-0.3-0.7-0.7c0-0.4,0.3-0.7,0.7-0.7h6.5V6.6c0-0.4,0.3-0.7,0.7-0.7c0.4,0,0.7,0.3,0.7,0.7v1.8
		C11.8,8.8,11.5,9.1,11.1,9.1z"/>
</g>
</svg>
