<?xml version="1.0" encoding="utf-8"?>
<!-- Generator: Adobe Illustrator 27.8.0, SVG Export Plug-In . SVG Version: 6.00 Build 0)  -->
<svg version="1.1" id="Layer_1" xmlns="http://www.w3.org/2000/svg" xmlns:xlink="http://www.w3.org/1999/xlink" x="0px" y="0px"
	 viewBox="0 0 24 24" style="enable-background:new 0 0 24 24;" xml:space="preserve">
<style type="text/css">
	.st0{fill:#1D2587;}
</style>
<path class="st0" d="M11,3.8c0-0.2-0.1-0.4-0.2-0.5C10.6,3.1,10.4,3,10.2,3H3.8C3.6,3,3.4,3.1,3.2,3.2S3,3.6,3,3.8v6.5
	c0,0.2,0.1,0.4,0.2,0.5C3.4,10.9,3.6,11,3.8,11s0.4-0.1,0.5-0.2c0.1-0.1,0.2-0.3,0.2-0.5V5.6l5.2,5.2c0.1,0.1,0.3,0.2,0.5,0.2
	c0.2,0,0.4-0.1,0.5-0.2c0.1-0.1,0.2-0.3,0.2-0.5c0-0.2-0.1-0.4-0.2-0.5L5.6,4.5h4.7c0.2,0,0.4-0.1,0.5-0.2C10.9,4.1,11,3.9,11,3.8z
	 M17.8,4.5c1,0,1.8,0.8,1.8,1.8V12h-4.8c-0.4,0-0.7,0.1-1.1,0.2c-0.3,0.1-0.6,0.3-0.9,0.6c-0.3,0.3-0.5,0.6-0.6,0.9
	C12.1,14,12,14.4,12,14.8v4.8H6.2c-0.5,0-0.9-0.2-1.2-0.5c-0.3-0.3-0.5-0.8-0.5-1.2v-4c0-0.2-0.1-0.4-0.2-0.5
	C4.1,13.1,3.9,13,3.8,13s-0.4,0.1-0.5,0.2C3.1,13.4,3,13.6,3,13.8v4c0,0.9,0.3,1.7,1,2.3c0.6,0.6,1.4,1,2.3,1h11.5
	c0.9,0,1.7-0.3,2.3-1c0.6-0.6,1-1.4,1-2.3V6.2c0-0.9-0.3-1.7-1-2.3c-0.6-0.6-1.4-1-2.3-1h-4c-0.2,0-0.4,0.1-0.5,0.2
	C13.1,3.4,13,3.6,13,3.8s0.1,0.4,0.2,0.5c0.1,0.1,0.3,0.2,0.5,0.2H17.8z"/>
</svg>
