<?xml version="1.0" encoding="utf-8"?>
<!-- Generator: Adobe Illustrator 27.8.0, SVG Export Plug-In . SVG Version: 6.00 Build 0)  -->
<svg version="1.1" id="Layer_1" xmlns="http://www.w3.org/2000/svg" xmlns:xlink="http://www.w3.org/1999/xlink" x="0px" y="0px"
	 viewBox="0 0 48 48" style="enable-background:new 0 0 48 48;" xml:space="preserve">
<style type="text/css">
	.st0{fill-rule:evenodd;clip-rule:evenodd;fill:#8E9AEF;}
	.st1{fill:#1D2587;}
</style>
<path class="st0" d="M23,8.9C15.2,8.9,8.9,15.2,8.9,23c0,7.8,6.3,14.1,14.1,14.1c3.9,0,7.4-1.6,10-4.1c2.6-2.6,4.2-6.1,4.2-10
	C37.2,15.2,30.8,8.9,23,8.9z M4,23C4,12.5,12.5,4,23,4s19,8.5,19,19c0,4.4-1.5,8.4-4,11.6l5.2,5.2c1,1,1,2.5,0,3.4c-1,1-2.5,1-3.4,0
	l-5.2-5.2C31.4,40.5,27.4,42,23,42C12.5,42,4,33.5,4,23z"/>
<circle class="st1" cx="29" cy="29" r="3"/>
</svg>
