<?xml version="1.0" encoding="utf-8"?>
<!-- Generator: Adobe Illustrator 27.8.0, SVG Export Plug-In . SVG Version: 6.00 Build 0)  -->
<svg version="1.1" id="Layer_1" xmlns="http://www.w3.org/2000/svg" xmlns:xlink="http://www.w3.org/1999/xlink" x="0px" y="0px"
	 viewBox="0 0 24 24" style="enable-background:new 0 0 24 24;" xml:space="preserve">
<style type="text/css">
	.st0{fill:#FFFFFF;}
</style>
<path class="st0" d="M22.2,1.6c0.3,0.2,0.4,0.4,0.3,0.8l-3,18.1c0,0.2-0.2,0.4-0.4,0.5C19,21,18.9,21,18.8,21c-0.1,0-0.2,0-0.3-0.1
	l-5.3-2.2l-2.8,3.5c-0.1,0.2-0.3,0.3-0.6,0.3c-0.1,0-0.2,0-0.3,0c-0.1-0.1-0.3-0.1-0.4-0.3S9,21.9,9,21.8v-4.1L19.2,5.2L6.6,16.1
	l-4.6-1.9c-0.3-0.1-0.4-0.3-0.5-0.6c0-0.3,0.1-0.5,0.4-0.7L21.4,1.6c0.1-0.1,0.2-0.1,0.4-0.1C21.9,1.5,22.1,1.5,22.2,1.6z"/>
</svg>
