<?xml version="1.0" encoding="utf-8"?>
<!-- Generator: Adobe Illustrator 27.8.0, SVG Export Plug-In . SVG Version: 6.00 Build 0)  -->
<svg version="1.1" id="Layer_1" xmlns="http://www.w3.org/2000/svg" xmlns:xlink="http://www.w3.org/1999/xlink" x="0px" y="0px"
	 viewBox="0 0 24 24" style="enable-background:new 0 0 24 24;" xml:space="preserve">
<style type="text/css">
	.st0{fill:#FFC529;}
</style>
<path class="st0" d="M9.2,5.4C10.4,3.1,11.1,2,12,2c0.9,0,1.6,1.1,2.8,3.4L15.2,6c0.4,0.6,0.5,1,0.8,1.2s0.6,0.3,1.3,0.4L18,7.8
	c2.5,0.6,3.7,0.8,4,1.8c0.3,0.9-0.5,1.9-2.2,3.9l-0.4,0.5c-0.5,0.6-0.7,0.8-0.8,1.2c-0.1,0.3-0.1,0.7,0,1.5l0.1,0.7
	c0.3,2.6,0.4,3.9-0.4,4.5c-0.8,0.6-1.9,0.1-4.2-1l-0.6-0.3c-0.7-0.3-1-0.5-1.3-0.5s-0.7,0.1-1.3,0.5l-0.6,0.3
	c-2.3,1.1-3.5,1.6-4.2,1c-0.8-0.6-0.6-1.9-0.4-4.5l0.1-0.7c0.1-0.7,0.1-1.1,0-1.5c-0.1-0.3-0.3-0.6-0.8-1.2l-0.4-0.5
	c-1.7-2-2.5-2.9-2.2-3.9c0.3-0.9,1.5-1.2,4-1.8l0.6-0.1c0.7-0.2,1-0.2,1.3-0.4C8.3,7,8.5,6.6,8.8,6L9.2,5.4z"/>
</svg>
