<?xml version="1.0" encoding="utf-8"?>
<!-- Generator: Adobe Illustrator 27.8.0, SVG Export Plug-In . SVG Version: 6.00 Build 0)  -->
<svg version="1.1" id="Layer_1" xmlns="http://www.w3.org/2000/svg" xmlns:xlink="http://www.w3.org/1999/xlink" x="0px" y="0px"
	 viewBox="0 0 83 14" style="enable-background:new 0 0 83 14;" xml:space="preserve">
<style type="text/css">
	.st0{fill:#FFC529;}
	.st1{opacity:0.5;fill:#FFC529;enable-background:new    ;}
</style>
<path class="st0" d="M4.8,2.3C5.6,0.8,6,0,6.7,0c0.6,0,1.1,0.8,1.9,2.3l0.2,0.4C9,3.1,9.1,3.3,9.3,3.5c0.2,0.1,0.4,0.2,0.9,0.3
	l0.4,0.1c1.6,0.4,2.5,0.6,2.7,1.2c0.2,0.6-0.4,1.3-1.5,2.6L11.5,8C11.2,8.3,11,8.5,11,8.7c-0.1,0.2,0,0.5,0,1l0,0.5
	c0.2,1.7,0.3,2.6-0.3,3c-0.5,0.4-1.3,0-2.8-0.7l-0.4-0.2C7.1,12.1,6.9,12,6.7,12c-0.2,0-0.4,0.1-0.9,0.3l-0.4,0.2
	c-1.5,0.7-2.3,1.1-2.8,0.7c-0.5-0.4-0.4-1.3-0.3-3l0-0.5c0-0.5,0.1-0.7,0-1C2.3,8.5,2.1,8.3,1.8,8L1.5,7.6C0.4,6.3-0.2,5.7,0,5
	c0.2-0.6,1-0.8,2.7-1.2l0.4-0.1C3.6,3.6,3.8,3.6,4,3.5c0.2-0.1,0.3-0.4,0.5-0.8L4.8,2.3z"/>
<path class="st0" d="M22.1,2.3C22.9,0.8,23.4,0,24,0s1.1,0.8,1.9,2.3l0.2,0.4c0.2,0.4,0.4,0.6,0.5,0.8c0.2,0.1,0.4,0.2,0.9,0.3
	L28,3.8c1.6,0.4,2.5,0.6,2.7,1.2c0.2,0.6-0.4,1.3-1.5,2.6L28.9,8c-0.3,0.4-0.5,0.6-0.5,0.8c-0.1,0.2,0,0.5,0,1l0,0.5
	c0.2,1.7,0.3,2.6-0.3,3c-0.5,0.4-1.3,0-2.8-0.7l-0.4-0.2C24.5,12.1,24.2,12,24,12c-0.2,0-0.4,0.1-0.9,0.3l-0.4,0.2
	c-1.5,0.7-2.3,1.1-2.8,0.7c-0.5-0.4-0.4-1.3-0.3-3l0-0.5c0-0.5,0.1-0.7,0-1c-0.1-0.2-0.2-0.4-0.5-0.8l-0.3-0.3
	c-1.1-1.3-1.7-2-1.5-2.6c0.2-0.6,1-0.8,2.7-1.2l0.4-0.1c0.5-0.1,0.7-0.2,0.9-0.3c0.2-0.1,0.3-0.4,0.5-0.8L22.1,2.3z"/>
<path class="st0" d="M39.4,2.3C40.3,0.8,40.7,0,41.3,0c0.6,0,1.1,0.8,1.9,2.3l0.2,0.4c0.2,0.4,0.4,0.6,0.5,0.8
	c0.2,0.1,0.4,0.2,0.9,0.3l0.4,0.1C46.9,4.2,47.8,4.4,48,5c0.2,0.6-0.4,1.3-1.5,2.6L46.2,8c-0.3,0.4-0.5,0.6-0.5,0.8
	c-0.1,0.2,0,0.5,0,1l0,0.5c0.2,1.7,0.3,2.6-0.3,3c-0.5,0.4-1.3,0-2.8-0.7l-0.4-0.2c-0.4-0.2-0.7-0.3-0.9-0.3s-0.4,0.1-0.9,0.3
	l-0.4,0.2c-1.5,0.7-2.3,1.1-2.8,0.7c-0.5-0.4-0.4-1.3-0.3-3l0-0.5c0-0.5,0.1-0.7,0-1C37,8.5,36.8,8.3,36.5,8l-0.3-0.3
	c-1.1-1.3-1.7-2-1.5-2.6c0.2-0.6,1-0.8,2.7-1.2l0.4-0.1c0.5-0.1,0.7-0.2,0.9-0.3c0.2-0.1,0.3-0.4,0.5-0.8L39.4,2.3z"/>
<path class="st0" d="M56.8,2.3C57.6,0.8,58,0,58.7,0c0.6,0,1.1,0.8,1.9,2.3l0.2,0.4c0.2,0.4,0.4,0.6,0.5,0.8
	c0.2,0.1,0.4,0.2,0.9,0.3l0.4,0.1c1.6,0.4,2.5,0.6,2.7,1.2c0.2,0.6-0.4,1.3-1.5,2.6L63.5,8C63.2,8.3,63,8.5,63,8.7
	c-0.1,0.2,0,0.5,0,1l0,0.5c0.2,1.7,0.3,2.6-0.3,3c-0.5,0.4-1.3,0-2.8-0.7l-0.4-0.2c-0.4-0.2-0.7-0.3-0.9-0.3s-0.4,0.1-0.9,0.3
	l-0.4,0.2c-1.5,0.7-2.3,1.1-2.8,0.7c-0.5-0.4-0.4-1.3-0.3-3l0-0.5c0-0.5,0.1-0.7,0-1c-0.1-0.2-0.2-0.4-0.5-0.8l-0.3-0.3
	c-1.1-1.3-1.7-2-1.5-2.6c0.2-0.6,1-0.8,2.7-1.2l0.4-0.1c0.5-0.1,0.7-0.2,0.9-0.3c0.2-0.1,0.3-0.4,0.5-0.8L56.8,2.3z"/>
<path class="st0" d="M80.3,9.8c-0.9,0.2-1.9,0.2-2.8,0c-0.9-0.2-1.7-0.7-2.4-1.3S73.9,7,73.6,6.1c-0.3-0.9-0.4-1.8-0.2-2.8
	c0,0,0,0-0.1,0.1c-0.2,0.1-0.4,0.2-0.9,0.3L72,3.8c-1.6,0.4-2.5,0.6-2.7,1.2c-0.2,0.6,0.4,1.3,1.5,2.6L71.1,8
	c0.3,0.4,0.5,0.6,0.5,0.8c0.1,0.2,0,0.5,0,1l0,0.5c-0.2,1.7-0.3,2.6,0.3,3c0.5,0.4,1.3,0,2.8-0.7l0.4-0.2c0.4-0.2,0.7-0.3,0.9-0.3
	s0.4,0.1,0.9,0.3l0.4,0.2c1.5,0.7,2.3,1.1,2.8,0.7c0.5-0.4,0.4-1.3,0.3-3L80.3,9.8z"/>
<path class="st1" d="M74.1,2.3l-0.2,0.4c-0.2,0.4-0.4,0.6-0.5,0.8c0,0,0.1,0,0.1-0.1c-0.2,0.9-0.1,1.9,0.2,2.8
	c0.3,0.9,0.8,1.7,1.5,2.3s1.5,1.1,2.4,1.3c0.9,0.2,1.9,0.2,2.8,0l0-0.1c0-0.5-0.1-0.7,0-1c0.1-0.2,0.2-0.4,0.5-0.8l0.3-0.3
	c1.1-1.3,1.7-2,1.5-2.6c-0.2-0.6-1-0.8-2.7-1.2l-0.4-0.1c-0.5-0.1-0.7-0.2-0.9-0.3c-0.2-0.1-0.3-0.4-0.5-0.8l-0.2-0.4
	C77.1,0.8,76.6,0,76,0C75.4,0,74.9,0.8,74.1,2.3z"/>
</svg>
