<?xml version="1.0" encoding="utf-8"?>
<!-- Generator: Adobe Illustrator 27.8.0, SVG Export Plug-In . SVG Version: 6.00 Build 0)  -->
<svg version="1.1" id="Layer_1" xmlns="http://www.w3.org/2000/svg" xmlns:xlink="http://www.w3.org/1999/xlink" x="0px" y="0px"
	 viewBox="0 0 48 48" style="enable-background:new 0 0 48 48;" xml:space="preserve">
<style type="text/css">
	.st0{fill:#8E9AEF;}
</style>
<path class="st0" d="M24,11.8c-8.3,0-15,6.5-15,14.6c0,8,6.7,14.6,15,14.6c8.3,0,15-6.5,15-14.6C39,18.4,32.3,11.8,24,11.8z
	 M24,39.6c-7.5,0-13.6-5.9-13.6-13.2c0-7.3,6.1-13.2,13.6-13.2s13.6,5.9,13.6,13.2C37.6,33.7,31.5,39.6,24,39.6z M24,26.4l9.5,7.4
	c-1.2,1.4-2.6,2.5-4.3,3.3c-1.6,0.8-3.4,1.2-5.2,1.2c-6.7,0-12.2-5.3-12.2-11.8c0-6.5,5.4-11.8,12.1-11.8L24,26.4L24,26.4z M24,10.4
	c-1.7,0-3.3,0.2-4.9,0.7V9.2c0-0.6,0.2-1.2,0.7-1.6c0.4-0.4,1-0.7,1.6-0.7h5.4c0.6,0,1.2,0.2,1.6,0.7s0.7,1,0.7,1.6v1.9
	C27.3,10.7,25.7,10.4,24,10.4z M33.6,13.4l1.5-1.5c0.7-0.6,1.6-0.8,2.1-0.3l1.5,1.5c0.5,0.5,0.4,1.4-0.3,2l-1.4,1.4
	C35.9,15.3,34.8,14.3,33.6,13.4L33.6,13.4z M11.1,16.5l-1.4-1.4c-0.7-0.6-0.8-1.5-0.3-2l1.5-1.4c0.5-0.5,1.4-0.3,2.1,0.3l1.5,1.5
	C13.2,14.3,12.1,15.3,11.1,16.5L11.1,16.5z"/>
</svg>
