<?xml version="1.0" encoding="utf-8"?>
<!-- Generator: Adobe Illustrator 27.8.0, SVG Export Plug-In . SVG Version: 6.00 Build 0)  -->
<svg version="1.1" id="Layer_1" xmlns="http://www.w3.org/2000/svg" xmlns:xlink="http://www.w3.org/1999/xlink" x="0px" y="0px"
	 viewBox="0 0 24 24" style="enable-background:new 0 0 24 24;" xml:space="preserve">
<style type="text/css">
	.st0{fill:#1D2587;}
</style>
<g>
	<path class="st0" d="M7.9,15.3c0,0.1,0.1,0.2,0.1,0.3c0.1,0.1,0.1,0.1,0.2,0.2c0.1,0,0.2,0.1,0.3,0.1c0.1,0,0.2,0,0.3,0
		c0.1,0,0.2-0.1,0.3-0.1c0.1-0.1,0.1-0.1,0.2-0.2c0-0.1,0.1-0.2,0.1-0.3c0-0.1,0-0.2,0-0.3L7.9,15.3z M3.6,4.7c-0.1,0-0.2,0-0.3,0
		c-0.1,0-0.2,0-0.3,0.1C2.9,4.8,2.9,4.9,2.8,5C2.7,5.1,2.7,5.1,2.7,5.2c0,0.1,0,0.2,0,0.3c0,0.1,0,0.2,0.1,0.3C2.8,5.9,2.9,6,2.9,6
		s0.2,0.1,0.3,0.1L3.6,4.7z M20.6,15.7c0.1,0,0.2-0.1,0.3-0.1c0.1-0.1,0.1-0.1,0.2-0.2c0.1-0.1,0.1-0.2,0.1-0.3c0-0.1,0-0.2,0-0.3
		c0-0.1-0.1-0.2-0.1-0.3c-0.1-0.1-0.1-0.1-0.2-0.2c-0.1,0-0.2-0.1-0.3-0.1c-0.1,0-0.2,0-0.3,0L20.6,15.7z M10.6,17.6
		c0.3,1.1-0.4,2.3-1.6,2.6l0.4,1.5c2-0.5,3.2-2.5,2.6-4.5L10.6,17.6z M9,20.2c-1.2,0.3-2.4-0.4-2.7-1.5l-1.4,0.4
		c0.5,2,2.6,3.1,4.6,2.6L9,20.2z M6.3,18.7C6,17.5,6.7,16.4,7.9,16l-0.4-1.4c-2,0.5-3.2,2.5-2.6,4.5L6.3,18.7z M7.9,16
		c1.2-0.3,2.4,0.4,2.7,1.5l1.4-0.4c-0.5-2-2.6-3.1-4.6-2.6L7.9,16z M9.4,14.9L7.2,7.1L5.8,7.5l2.2,7.8L9.4,14.9z M5.3,5.2L3.6,4.7
		L3.2,6.2l1.7,0.5L5.3,5.2z M7.2,7.1C7.1,6.6,6.8,6.2,6.5,5.9C6.2,5.6,5.8,5.3,5.3,5.2L4.9,6.6c0.4,0.1,0.7,0.4,0.8,0.8L7.2,7.1z
		 M11.5,18.1l9.1-2.4l-0.4-1.5l-9.1,2.4L11.5,18.1z"/>
	<g>
		<path class="st0" d="M12.8,14.6c-0.4,0-0.8-0.1-1.2-0.3c-1-0.6-1.3-1.6-1.8-3.5L9.2,8.9C8.7,7,8.4,6,9,5c0.6-1,1.6-1.2,3.6-1.7
			l1.9-0.5c1.9-0.5,3-0.8,4-0.2c1,0.6,1.3,1.6,1.8,3.5c0.1,0.4-0.1,0.8-0.5,0.9c-0.4,0.1-0.8-0.1-0.9-0.5c-0.4-1.6-0.7-2.3-1.1-2.6
			c-0.4-0.2-1.2-0.1-2.9,0.4L13,4.7c-1.6,0.4-2.4,0.6-2.7,1.1c-0.2,0.4-0.1,1.1,0.4,2.7l0.5,1.9c0.4,1.6,0.7,2.3,1.1,2.6
			c0.4,0.2,1.2,0.1,2.9-0.4l1.9-0.5c1.6-0.4,2.4-0.6,2.7-1.1c0.1-0.1,0.2-0.4,0.1-0.9c-0.1-0.4,0.2-0.8,0.6-0.9
			c0.4-0.1,0.8,0.2,0.9,0.6c0.1,0.5,0.1,1.3-0.2,1.9c-0.6,1-1.6,1.2-3.6,1.7L15.5,14C14.3,14.4,13.5,14.6,12.8,14.6z"/>
	</g>
</g>
</svg>
